  0
SECTION
  2
HEADER
  9
$ACADVER
  1
AC1015
  9
$ACADMAINTVER
 70
     6
  9
$DWGCODEPAGE
  3
ANSI_1252
  9
$INSBASE
 10
0.0
 20
0.0
 30
0.0
  9
$EXTMIN
 10
0.0
 20
0.0
 30
0.0
  9
$EXTMAX
 10
431.8
 20
279.4
 30
0.0
  9
$LIMMIN
 10
0.0
 20
0.0
  9
$LIMMAX
 10
431.8
 20
279.4
  9
$ORTHOMODE
 70
     0
  9
$REGENMODE
 70
     1
  9
$FILLMODE
 70
     1
  9
$QTEXTMODE
 70
     0
  9
$MIRRTEXT
 70
     1
  9
$LTSCALE
 40
1.0
  9
$ATTMODE
 70
     1
  9
$TEXTSIZE
 40
3.175
  9
$TRACEWID
 40
1.0
  9
$TEXTSTYLE
  7
Standard
  9
$CLAYER
  8
0
  9
$CELTYPE
  6
ByLayer
  9
$CECOLOR
 62
   256
  9
$CELTSCALE
 40
1.0
  9
$DISPSILH
 70
     0
  9
$DIMSCALE
 40
1.0
  9
$DIMASZ
 40
3.302
  9
$DIMEXO
 40
1.27
  9
$DIMDLI
 40
3.75
  9
$DIMRND
 40
0.0
  9
$DIMDLE
 40
0.0
  9
$DIMEXE
 40
3.175
  9
$DIMTP
 40
0.0
  9
$DIMTM
 40
0.0
  9
$DIMTXT
 40
3.175
  9
$DIMCEN
 40
2.5
  9
$DIMTSZ
 40
0.0
  9
$DIMTOL
 70
     0
  9
$DIMLIM
 70
     0
  9
$DIMTIH
 70
     1
  9
$DIMTOH
 70
     1
  9
$DIMSE1
 70
     0
  9
$DIMSE2
 70
     0
  9
$DIMTAD
 70
     0
  9
$DIMZIN
 70
     0
  9
$DIMBLK
  1

  9
$DIMASO
 70
     1
  9
$DIMSHO
 70
     1
  9
$DIMPOST
  1

  9
$DIMAPOST
  1

  9
$DIMALT
 70
     0
  9
$DIMALTD
 70
     3
  9
$DIMALTF
 40
0.0393700787
  9
$DIMLFAC
 40
1.0
  9
$DIMTOFL
 70
     1
  9
$DIMTVP
 40
0.0
  9
$DIMTIX
 70
     0
  9
$DIMSOXD
 70
     0
  9
$DIMSAH
 70
     0
  9
$DIMBLK1
  1

  9
$DIMBLK2
  1

  9
$DIMSTYLE
  2
ISO-25
  9
$DIMCLRD
 70
     0
  9
$DIMCLRE
 70
     0
  9
$DIMCLRT
 70
     0
  9
$DIMTFAC
 40
1.0
  9
$DIMGAP
 40
1.524
  9
$DIMJUST
 70
     0
  9
$DIMSD1
 70
     0
  9
$DIMSD2
 70
     0
  9
$DIMTOLJ
 70
     0
  9
$DIMTZIN
 70
     0
  9
$DIMALTZ
 70
     0
  9
$DIMALTTZ
 70
     0
  9
$DIMUPT
 70
     0
  9
$DIMDEC
 70
     2
  9
$DIMTDEC
 70
     2
  9
$DIMALTU
 70
     2
  9
$DIMALTTD
 70
     3
  9
$DIMTXSTY
  7
Standard
  9
$DIMAUNIT
 70
     0
  9
$DIMADEC
 70
     0
  9
$DIMALTRND
 40
0.0
  9
$DIMAZIN
 70
     0
  9
$DIMDSEP
 70
    44
  9
$DIMATFIT
 70
     3
  9
$DIMFRAC
 70
     0
  9
$DIMLDRBLK
  1

  9
$DIMLUNIT
 70
     2
  9
$DIMLWD
 70
    -2
  9
$DIMLWE
 70
    -2
  9
$DIMTMOVE
 70
     0
  9
$LUNITS
 70
     2
  9
$LUPREC
 70
     2
  9
$SKETCHINC
 40
1.0
  9
$FILLETRAD
 40
10.0
  9
$AUNITS
 70
     0
  9
$AUPREC
 70
     0
  9
$MENU
  1
.
  9
$ELEVATION
 40
0.0
  9
$PELEVATION
 40
0.0
  9
$THICKNESS
 40
0.0
  9
$LIMCHECK
 70
     0
  9
$CHAMFERA
 40
10.0
  9
$CHAMFERB
 40
10.0
  9
$CHAMFERC
 40
20.0
  9
$CHAMFERD
 40
0.0
  9
$SKPOLY
 70
     0
  9
$TDCREATE
 40
2454978.565510162
  9
$TDUCREATE
 40
2454978.773843495
  9
$TDUPDATE
 40
2454978.565510174
  9
$TDUUPDATE
 40
2454978.773843507
  9
$TDINDWG
 40
0.0000000116
  9
$TDUSRTIMER
 40
0.0000000116
  9
$USRTIMER
 70
     1
  9
$ANGBASE
 50
0.0
  9
$ANGDIR
 70
     0
  9
$PDMODE
 70
     0
  9
$PDSIZE
 40
-1.0
  9
$PLINEWID
 40
0.0
  9
$SPLFRAME
 70
     0
  9
$SPLINETYPE
 70
     6
  9
$SPLINESEGS
 70
     8
  9
$HANDSEED
  5
1F4
  9
$SURFTAB1
 70
     6
  9
$SURFTAB2
 70
     6
  9
$SURFTYPE
 70
     6
  9
$SURFU
 70
     6
  9
$SURFV
 70
     6
  9
$UCSBASE
  2

  9
$UCSNAME
  2

  9
$UCSORG
 10
0.0
 20
0.0
 30
0.0
  9
$UCSXDIR
 10
1.0
 20
0.0
 30
0.0
  9
$UCSYDIR
 10
0.0
 20
1.0
 30
0.0
  9
$UCSORTHOREF
  2

  9
$UCSORTHOVIEW
 70
     0
  9
$UCSORGTOP
 10
0.0
 20
0.0
 30
0.0
  9
$UCSORGBOTTOM
 10
0.0
 20
0.0
 30
0.0
  9
$UCSORGLEFT
 10
0.0
 20
0.0
 30
0.0
  9
$UCSORGRIGHT
 10
0.0
 20
0.0
 30
0.0
  9
$UCSORGFRONT
 10
0.0
 20
0.0
 30
0.0
  9
$UCSORGBACK
 10
0.0
 20
0.0
 30
0.0
  9
$PUCSBASE
  2

  9
$PUCSNAME
  2

  9
$PUCSORG
 10
0.0
 20
0.0
 30
0.0
  9
$PUCSXDIR
 10
1.0
 20
0.0
 30
0.0
  9
$PUCSYDIR
 10
0.0
 20
1.0
 30
0.0
  9
$PUCSORTHOREF
  2

  9
$PUCSORTHOVIEW
 70
     0
  9
$PUCSORGTOP
 10
0.0
 20
0.0
 30
0.0
  9
$PUCSORGBOTTOM
 10
0.0
 20
0.0
 30
0.0
  9
$PUCSORGLEFT
 10
0.0
 20
0.0
 30
0.0
  9
$PUCSORGRIGHT
 10
0.0
 20
0.0
 30
0.0
  9
$PUCSORGFRONT
 10
0.0
 20
0.0
 30
0.0
  9
$PUCSORGBACK
 10
0.0
 20
0.0
 30
0.0
  9
$USERI1
 70
     0
  9
$USERI2
 70
     0
  9
$USERI3
 70
     0
  9
$USERI4
 70
     0
  9
$USERI5
 70
     0
  9
$USERR1
 40
0.0
  9
$USERR2
 40
0.0
  9
$USERR3
 40
0.0
  9
$USERR4
 40
0.0
  9
$USERR5
 40
0.0
  9
$WORLDVIEW
 70
     1
  9
$SHADEDGE
 70
     3
  9
$SHADEDIF
 70
    70
  9
$TILEMODE
 70
     1
  9
$MAXACTVP
 70
    64
  9
$PINSBASE
 10
0.0
 20
0.0
 30
0.0
  9
$PLIMCHECK
 70
     0
  9
$PEXTMIN
 10
1.0000000000E+20
 20
1.0000000000E+20
 30
1.0000000000E+20
  9
$PEXTMAX
 10
-1.0000000000E+20
 20
-1.0000000000E+20
 30
-1.0000000000E+20
  9
$PLIMMIN
 10
0.0
 20
0.0
  9
$PLIMMAX
 10
420.0
 20
297.0
  9
$UNITMODE
 70
     0
  9
$VISRETAIN
 70
     1
  9
$PLINEGEN
 70
     0
  9
$PSLTSCALE
 70
     1
  9
$TREEDEPTH
 70
  3020
  9
$CMLSTYLE
  2
Standard
  9
$CMLJUST
 70
     0
  9
$CMLSCALE
 40
20.0
  9
$PROXYGRAPHICS
 70
     1
  9
$MEASUREMENT
 70
     1
  9
$CELWEIGHT
370
    -1
  9
$ENDCAPS
280
     0
  9
$JOINSTYLE
280
     0
  9
$LWDISPLAY
290
     1
  9
$INSUNITS
 70
     4
  9
$HYPERLINKBASE
  1

  9
$STYLESHEET
  1

  9
$XEDIT
290
     1
  9
$CEPSNTYPE
380
     0
  9
$PSTYLEMODE
290
     1
  9
$FINGERPRINTGUID
  2
{0414463B-3D71-459F-BCB3-FFBD84DDBE35}
  9
$VERSIONGUID
  2
{FAEB1C32-E019-11D5-929B-00C0DF256EC4}
  9
$EXTNAMES
290
     1
  9
$PSVPSCALE
 40
0.0
  9
$OLESTARTUP
290
     0
  0
ENDSEC
  0
SECTION
  2
CLASSES
  0
CLASS
  1
ACDBDICTIONARYWDFLT
  2
AcDbDictionaryWithDefault
  3
ObjectDBX Classes
 90
        0
280
     0
281
     0
  0
CLASS
  1
VISUALSTYLE
  2
AcDbVisualStyle
  3
ObjectDBX Classes
 90
     4095
280
     0
281
     0
  0
CLASS
  1
DICTIONARYVAR
  2
AcDbDictionaryVar
  3
ObjectDBX Classes
 90
        0
280
     0
281
     0
  0
CLASS
  1
ACDBPLACEHOLDER
  2
AcDbPlaceHolder
  3
ObjectDBX Classes
 90
        0
280
     0
281
     0
  0
CLASS
  1
LAYOUT
  2
AcDbLayout
  3
ObjectDBX Classes
 90
        0
280
     0
281
     0
  0
ENDSEC
  0
SECTION
  2
TABLES
  0
TABLE
  2
VPORT
  5
8
330
0
100
AcDbSymbolTable
 70
     1
  0
VPORT
  5
29
330
8
100
AcDbSymbolTableRecord
100
AcDbViewportTableRecord
  2
*Active
 70
     0
 10
0.0
 20
0.0
 11
1.0
 21
1.0
 12
215.9
 22
139.7
 13
0.0
 23
0.0
 14
10.0
 24
10.0
 15
10.0
 25
10.0
 16
0.0
 26
0.0
 36
1.0
 17
0.0
 27
0.0
 37
0.0
 40
279.4
 41
1.5454545455
 42
50.0
 43
0.0
 44
0.0
 50
0.0
 51
0.0
 71
     0
 72
  2000
 73
     1
 74
     3
 75
     0
 76
     0
 77
     0
 78
     0
281
     0
 65
     1
110
0.0
120
0.0
130
0.0
111
1.0
121
0.0
131
0.0
112
0.0
122
1.0
132
0.0
 79
     0
146
0.0
  0
ENDTAB
  0
TABLE
  2
LTYPE
  5
5
330
0
100
AcDbSymbolTable
 70
     6
  0
LTYPE
  5
14
330
5
100
AcDbSymbolTableRecord
100
AcDbLinetypeTableRecord
  2
ByBlock
 70
     0
  3

 72
    65
 73
     0
 40
0.0
  0
LTYPE
  5
15
330
5
100
AcDbSymbolTableRecord
100
AcDbLinetypeTableRecord
  2
ByLayer
 70
     0
  3

 72
    65
 73
     0
 40
0.0
  0
LTYPE
  5
16
330
5
100
AcDbSymbolTableRecord
100
AcDbLinetypeTableRecord
  2
Continuous
 70
     0
  3
Solid line
 72
    65
 73
     0
 40
0.0
  0
LTYPE
  5
3B
330
5
100
AcDbSymbolTableRecord
100
AcDbLinetypeTableRecord
  2
HIDDEN
 70
     0
  3
Hidden __ __ __ __ __ __ __ __ __ __ __ __ __ __
 72
    65
 73
     2
 40
1.905
 49
1.27
 74
     0
 49
-0.635
 74
     0
  0
LTYPE
  5
3C
330
5
100
AcDbSymbolTableRecord
100
AcDbLinetypeTableRecord
  2
PHANTOM
 70
     0
  3
Phantom ______  __  __  ______  __  __  ______
 72
    65
 73
     6
 40
12.7
 49
6.35
 74
     0
 49
-1.27
 74
     0
 49
1.27
 74
     0
 49
-1.27
 74
     0
 49
1.27
 74
     0
 49
-1.27
 74
     0
  0
LTYPE
  5
3D
330
5
100
AcDbSymbolTableRecord
100
AcDbLinetypeTableRecord
  2
CENTER
 70
     0
  3
Center ____ _ ____ _ ____ _ ____ _ ____ _ ____
 72
    65
 73
     4
 40
10.16
 49
6.35
 74
     0
 49
-1.27
 74
     0
 49
1.27
 74
     0
 49
-1.27
 74
     0
  0
LTYPE
  5
3E
330
5
100
AcDbSymbolTableRecord
100
AcDbLinetypeTableRecord
  2
CENTERX2
 70
     0
  3
Center (2x) ________  __  ________  __  _____
 72
    65
 73
     4
 40
20.32
 49
12.7
 74
     0
 49
-2.54
 74
     0
 49
2.54
 74
     0
 49
-2.54
 74
     0
  0
LTYPE
  5
3F
330
5
100
AcDbSymbolTableRecord
100
AcDbLinetypeTableRecord
  2
DOT2
 70
     0
  3
Dot (.5x) ........................................
 72
    65
 73
     2
 40
0.635
 49
0.0
 74
     0
 49
-0.635
 74
     0
  0
ENDTAB
  0
TABLE
  2
LAYER
  5
2
330
0
100
AcDbSymbolTable
 70
     1
  0
LAYER
  5
10
330
2
100
AcDbSymbolTableRecord
100
AcDbLayerTableRecord
  2
0
 70
     0
 62
     7
  6
Continuous
370
    -3
390
F
  0
ENDTAB
  0
TABLE
  2
STYLE
  5
3
330
0
100
AcDbSymbolTable
 70
     2
  0
STYLE
  5
11
330
3
100
AcDbSymbolTableRecord
100
AcDbTextStyleTableRecord
  2
Standard
 70
     0
 40
0.0
 41
1.0
 50
0.0
 71
     0
 42
2.5
  3
txt
  4

  0
STYLE
  5
43
330
3
100
AcDbSymbolTableRecord
100
AcDbTextStyleTableRecord
  2
SLDTEXTSTYLE0
 70
     0
 40
0.0
 41
0.75
 50
0.0
 71
     0
 42
0.2
  3
TXT
  4

  0
ENDTAB
  0
TABLE
  2
VIEW
  5
6
330
0
100
AcDbSymbolTable
 70
     0
  0
ENDTAB
  0
TABLE
  2
UCS
  5
7
330
0
100
AcDbSymbolTable
 70
     0
  0
ENDTAB
  0
TABLE
  2
APPID
  5
9
330
0
100
AcDbSymbolTable
 70
     1
  0
APPID
  5
12
330
9
100
AcDbSymbolTableRecord
100
AcDbRegAppTableRecord
  2
ACAD
 70
     0
  0
ENDTAB
  0
TABLE
  2
DIMSTYLE
  5
A
330
0
100
AcDbSymbolTable
 70
     4
100
AcDbDimStyleTable
  0
DIMSTYLE
105
27
330
A
100
AcDbSymbolTableRecord
100
AcDbDimStyleTableRecord
  2
ISO-25
 70
     0
 41
2.5
 42
0.625
 43
3.75
 44
1.25
 73
     0
 74
     0
 77
     1
 78
     8
140
2.5
141
2.5
143
0.0393700787
147
0.625
171
     3
172
     1
271
     2
272
     2
274
     3
278
    44
283
     0
284
     8
340
11
  0
DIMSTYLE
105
D0
102
{ACAD_REACTORS
330
CF
102
}
330
A
100
AcDbSymbolTableRecord
100
AcDbDimStyleTableRecord
  2
SLDDIMSTYLE0
 70
     0
 41
3.302
 44
0.0
 78
    12
140
3.175
147
0.79375
173
     1
271
     2
272
     2
284
    12
340
11
  0
DIMSTYLE
105
DC
102
{ACAD_REACTORS
330
DB
330
E8
102
}
330
A
100
AcDbSymbolTableRecord
100
AcDbDimStyleTableRecord
  2
SLDDIMSTYLE1
 70
     0
 41
3.302
 44
0.0
 78
    12
140
3.175
147
0.79375
173
     1
271
     2
272
     2
284
    12
340
11
  0
DIMSTYLE
105
F5
102
{ACAD_REACTORS
330
F4
102
}
330
A
100
AcDbSymbolTableRecord
100
AcDbDimStyleTableRecord
  2
SLDDIMSTYLE2
 70
     0
 41
3.302
 44
0.0
 78
     4
140
3.175
147
0.79375
173
     1
271
     2
272
     2
284
    12
340
11
  0
ENDTAB
  0
TABLE
  2
BLOCK_RECORD
  5
1
330
0
100
AcDbSymbolTable
 70
     6
  0
BLOCK_RECORD
  5
1F
330
1
100
AcDbSymbolTableRecord
100
AcDbBlockTableRecord
  2
*Model_Space
340
22
  0
BLOCK_RECORD
  5
1B
330
1
100
AcDbSymbolTableRecord
100
AcDbBlockTableRecord
  2
*Paper_Space
340
1E
  0
BLOCK_RECORD
  5
23
330
1
100
AcDbSymbolTableRecord
100
AcDbBlockTableRecord
  2
*Paper_Space0
340
26
  0
BLOCK_RECORD
  5
40
330
1
100
AcDbSymbolTableRecord
100
AcDbBlockTableRecord
  2
SW_NOTE_0
340
0
102
{BLKREFS
331
48
102
}
  0
BLOCK_RECORD
  5
D1
330
1
100
AcDbSymbolTableRecord
100
AcDbBlockTableRecord
  2
*D2
340
0
  0
BLOCK_RECORD
  5
DD
330
1
100
AcDbSymbolTableRecord
100
AcDbBlockTableRecord
  2
*D3
340
0
  0
BLOCK_RECORD
  5
E9
330
1
100
AcDbSymbolTableRecord
100
AcDbBlockTableRecord
  2
*D4
340
0
  0
BLOCK_RECORD
  5
F6
330
1
100
AcDbSymbolTableRecord
100
AcDbBlockTableRecord
  2
*D5
340
0
  0
ENDTAB
  0
ENDSEC
  0
SECTION
  2
BLOCKS
  0
BLOCK
  5
20
330
1F
100
AcDbEntity
  8
0
100
AcDbBlockBegin
  2
*Model_Space
 70
     0
 71
     0
 10
0.0
 20
0.0
 30
0.0
  3
*Model_Space
  1

  0
ENDBLK
  5
21
330
1F
100
AcDbEntity
  8
0
100
AcDbBlockEnd
  0
BLOCK
  5
1C
330
1B
100
AcDbEntity
 67
     1
  8
0
100
AcDbBlockBegin
  2
*Paper_Space
 70
     0
 71
     0
 10
0.0
 20
0.0
 30
0.0
  3
*Paper_Space
  1

  0
ENDBLK
  5
1D
330
1B
100
AcDbEntity
 67
     1
  8
0
100
AcDbBlockEnd
  0
BLOCK
  5
24
330
23
100
AcDbEntity
  8
0
100
AcDbBlockBegin
  2
*Paper_Space0
 70
     0
 71
     0
 10
0.0
 20
0.0
 30
0.0
  3
*Paper_Space0
  1

  0
ENDBLK
  5
25
330
23
100
AcDbEntity
  8
0
100
AcDbBlockEnd
  0
BLOCK
  5
41
330
40
100
AcDbEntity
  8
0
100
AcDbBlockBegin
  2
SW_NOTE_0
 70
     0
 71
     0
 10
0.0
 20
0.0
 30
0.0
  3
SW_NOTE_0
  1

  0
MTEXT
  5
44
330
40
100
AcDbEntity
  8
0
  6
Continuous
 62
     0
370
     0
100
AcDbMText
 10
0.0
 20
4.0927900738
 30
0.0
 40
3.175
 41
0.0
 71
     1
 72
     1
  1
304 stainless
  7
SLDTEXTSTYLE0
 73
     1
 44
1.0
  0
MTEXT
  5
45
330
40
100
AcDbEntity
  8
0
  6
Continuous
 62
     0
370
     0
100
AcDbMText
 10
0.0
 20
-4.2572097116
 30
0.0
 40
3.175
 41
0.0
 71
     1
 72
     1
  1
all dimensions metric
  7
SLDTEXTSTYLE0
 73
     1
 44
1.0
  0
MTEXT
  5
46
330
40
100
AcDbEntity
  8
0
  6
Continuous
 62
     0
370
     0
100
AcDbMText
 10
0.0
 20
-12.6072094971
 30
0.0
 40
3.175
 41
0.0
 71
     1
 72
     1
  1
position of hole approiximate
  7
SLDTEXTSTYLE0
 73
     1
 44
1.0
  0
MTEXT
  5
47
330
40
100
AcDbEntity
  8
0
  6
Continuous
 62
     0
370
     0
100
AcDbMText
 10
0.0
 20
-20.9572092825
 30
0.0
 40
3.175
 41
0.0
 71
     1
 72
     1
  1
actualhardware.com
  7
SLDTEXTSTYLE0
 73
     1
 44
1.0
  0
ENDBLK
  5
42
330
40
100
AcDbEntity
  8
0
100
AcDbBlockEnd
  0
BLOCK
  5
D2
330
D1
100
AcDbEntity
  8
0
100
AcDbBlockBegin
  2
*D2
 70
     1
 71
     0
 10
0.0
 20
0.0
 30
0.0
  3
*D2
  1

  0
SOLID
  5
D4
330
D1
100
AcDbEntity
  8
0
  6
Continuous
 62
     7
370
     0
100
AcDbTrace
 10
209.4934609909
 20
177.6587420991
 30
0.0
 11
206.1914609909
 21
178.1667420991
 31
0.0
 12
206.1914609909
 22
177.1507420991
 32
0.0
 13
206.1914609909
 23
177.1507420991
 33
0.0
  0
SOLID
  5
D5
330
D1
100
AcDbEntity
  8
0
  6
Continuous
 62
     7
370
     0
100
AcDbTrace
 10
74.3786506191
 20
177.6587420991
 30
0.0
 11
77.6806506191
 21
177.1507420991
 31
0.0
 12
77.6806506191
 22
178.1667420991
 32
0.0
 13
77.6806506191
 23
178.1667420991
 33
0.0
  0
LINE
  5
D6
330
D1
100
AcDbEntity
  8
0
  6
Continuous
 62
     7
370
     0
100
AcDbLine
 10
209.4934609909
 20
196.9518458362
 30
0.0
 11
209.4934609909
 21
174.4837420991
 31
0.0
  0
LINE
  5
D7
330
D1
100
AcDbEntity
  8
0
  6
Continuous
 62
     7
370
     0
100
AcDbLine
 10
74.3786506191
 20
196.2707350561
 30
0.0
 11
74.3786506191
 21
174.4837420991
 31
0.0
  0
LINE
  5
D8
330
D1
100
AcDbEntity
  8
0
  6
Continuous
 62
     7
370
     0
100
AcDbLine
 10
209.4934609909
 20
177.6587420991
 30
0.0
 11
148.4185593205
 21
177.6587420991
 31
0.0
  0
LINE
  5
D9
330
D1
100
AcDbEntity
  8
0
  6
Continuous
 62
     7
370
     0
100
AcDbLine
 10
74.3786506191
 20
177.6587420991
 30
0.0
 11
132.3412005037
 21
177.6587420991
 31
0.0
  0
MTEXT
  5
DA
330
D1
100
AcDbEntity
  8
0
  6
Continuous
 62
     7
370
     0
100
AcDbMText
 10
133.9287005037
 20
179.2314289382
 30
0.0
 40
3.175
 41
0.0
 71
     1
 72
     1
  1
135.11
  7
SLDTEXTSTYLE0
 73
     1
 44
1.0
  0
ENDBLK
  5
D3
330
D1
100
AcDbEntity
  8
0
100
AcDbBlockEnd
  0
BLOCK
  5
DE
330
DD
100
AcDbEntity
  8
0
100
AcDbBlockBegin
  2
*D3
 70
     1
 71
     0
 10
0.0
 20
0.0
 30
0.0
  3
*D3
  1

  0
SOLID
  5
E0
330
DD
100
AcDbEntity
  8
0
  6
Continuous
 62
     7
370
     0
100
AcDbTrace
 10
69.5385418251
 20
206.9636137057
 30
0.0
 11
70.3323969943
 21
210.2087734814
 31
0.0
 12
69.320263181
 22
210.2973237161
 32
0.0
 13
69.320263181
 23
210.2973237161
 33
0.0
  0
SOLID
  5
E1
330
DD
100
AcDbEntity
  8
0
  6
Continuous
 62
     7
370
     0
100
AcDbTrace
 10
69.2190136889
 20
203.311390396
 30
0.0
 11
68.4251585197
 21
200.0662306202
 31
0.0
 12
69.4372923329
 22
199.9776803856
 32
0.0
 13
69.4372923329
 23
199.9776803856
 33
0.0
  0
LINE
  5
E2
330
DD
100
AcDbEntity
  8
0
  6
Continuous
 62
     7
370
     0
100
AcDbLine
 10
90.3229050362
 20
205.1452175461
 30
0.0
 11
66.3756236587
 21
207.2403331889
 31
0.0
  0
LINE
  5
E3
330
DD
100
AcDbEntity
  8
0
  6
Continuous
 62
     7
370
     0
100
AcDbLine
 10
90.0033769
 20
201.4929942364
 30
0.0
 11
66.0560955224
 21
203.5881098792
 31
0.0
  0
LINE
  5
E4
330
DD
100
AcDbEntity
  8
0
  6
Continuous
 62
     7
370
     0
100
AcDbLine
 10
69.5385418251
 20
206.9636137057
 30
0.0
 11
70.7907829121
 21
221.2767948253
 31
0.0
  0
LINE
  5
E5
330
DD
100
AcDbEntity
  8
0
  6
Continuous
 62
     7
370
     0
100
AcDbLine
 10
69.2190136889
 20
203.311390396
 30
0.0
 11
68.6655747224
 21
196.9855540631
 31
0.0
  0
LINE
  5
E6
330
DD
100
AcDbEntity
  8
0
  6
Continuous
 62
     7
370
     0
100
AcDbLine
 10
70.7907829121
 20
221.2767948253
 30
0.0
 11
64.4407829121
 21
221.2767948253
 31
0.0
  0
MTEXT
  5
E7
330
DD
100
AcDbEntity
  8
0
  6
Continuous
 62
     7
370
     0
100
AcDbMText
 10
54.6446393459
 20
222.8494816644
 30
0.0
 40
3.175
 41
0.0
 71
     1
 72
     1
  1
3.67
  7
SLDTEXTSTYLE0
 73
     1
 44
1.0
  0
ENDBLK
  5
DF
330
DD
100
AcDbEntity
  8
0
100
AcDbBlockEnd
  0
BLOCK
  5
EA
330
E9
100
AcDbEntity
  8
0
100
AcDbBlockBegin
  2
*D4
 70
     1
 71
     0
 10
0.0
 20
0.0
 30
0.0
  3
*D4
  1

  0
SOLID
  5
EC
330
E9
100
AcDbEntity
  8
0
  6
Continuous
 62
     7
370
     0
100
AcDbTrace
 10
91.6601278827
 20
213.5549132814
 30
0.0
 11
94.8674462724
 21
214.4899944259
 31
0.0
 12
94.4380661185
 22
215.4108031375
 32
0.0
 13
94.4380661185
 23
215.4108031375
 33
0.0
  0
SOLID
  5
ED
330
E9
100
AcDbEntity
  8
0
  6
Continuous
 62
     7
370
     0
100
AcDbTrace
 10
88.3374456481
 20
212.0055211098
 30
0.0
 11
85.1301272583
 21
211.0704399654
 31
0.0
 12
85.5595074123
 22
210.1496312537
 32
0.0
 13
85.5595074123
 23
210.1496312537
 33
0.0
  0
LINE
  5
EE
330
E9
100
AcDbEntity
  8
0
  6
Continuous
 62
     7
370
     0
100
AcDbLine
 10
94.374029345
 20
207.7349328139
 30
0.0
 11
90.3183149016
 21
216.4324405053
 31
0.0
  0
LINE
  5
EF
330
E9
100
AcDbEntity
  8
0
  6
Continuous
 62
     7
370
     0
100
AcDbLine
 10
91.0513471104
 20
206.1855406423
 30
0.0
 11
86.9956326671
 21
214.8830483337
 31
0.0
  0
LINE
  5
F0
330
E9
100
AcDbEntity
  8
0
  6
Continuous
 62
     7
370
     0
100
AcDbLine
 10
91.6601278827
 20
213.5549132814
 30
0.0
 11
108.2197562929
 21
221.2767948253
 31
0.0
  0
LINE
  5
F1
330
E9
100
AcDbEntity
  8
0
  6
Continuous
 62
     7
370
     0
100
AcDbLine
 10
88.3374456481
 20
212.0055211098
 30
0.0
 11
82.5823912004
 21
209.3218951478
 31
0.0
  0
LINE
  5
F2
330
E9
100
AcDbEntity
  8
0
  6
Continuous
 62
     7
370
     0
100
AcDbLine
 10
108.2197562929
 20
221.2767948253
 30
0.0
 11
114.5697562929
 21
221.2767948253
 31
0.0
  0
MTEXT
  5
F3
330
E9
100
AcDbEntity
  8
0
  6
Continuous
 62
     7
370
     0
100
AcDbMText
 10
116.1572562929
 20
222.8494816644
 30
0.0
 40
3.175
 41
0.0
 71
     1
 72
     1
  1
3.67
  7
SLDTEXTSTYLE0
 73
     1
 44
1.0
  0
ENDBLK
  5
EB
330
E9
100
AcDbEntity
  8
0
100
AcDbBlockEnd
  0
BLOCK
  5
F7
330
F6
100
AcDbEntity
  8
0
100
AcDbBlockBegin
  2
*D5
 70
     1
 71
     0
 10
0.0
 20
0.0
 30
0.0
  3
*D5
  1

  0
SOLID
  5
F9
330
F6
100
AcDbEntity
  8
0
  6
Continuous
 62
     7
370
     0
100
AcDbTrace
 10
249.4858207039
 20
208.801027532
 30
0.0
 11
248.9802300158
 21
205.4986577683
 31
0.0
 12
249.9962297454
 22
205.4993990535
 32
0.0
 13
249.9962297454
 23
205.4993990535
 33
0.0
  0
SOLID
  5
FA
330
F6
100
AcDbEntity
  8
0
  6
Continuous
 62
     7
370
     0
100
AcDbTrace
 10
249.5012155036
 20
187.7010331481
 30
0.0
 11
250.0068061917
 21
191.0034029118
 31
0.0
 12
248.9908064621
 22
191.0026616267
 32
0.0
 13
248.9908064621
 23
191.0026616267
 33
0.0
  0
LINE
  5
FB
330
F6
100
AcDbEntity
  8
0
  6
Continuous
 62
     7
370
     0
100
AcDbLine
 10
203.8194202977
 20
208.7677087986
 30
0.0
 11
252.6608198588
 21
208.8033440481
 31
0.0
  0
LINE
  5
FC
330
F6
100
AcDbEntity
  8
0
  6
Continuous
 62
     7
370
     0
100
AcDbLine
 10
203.8348150974
 20
187.6677144147
 30
0.0
 11
252.6762146585
 21
187.7033496642
 31
0.0
  0
LINE
  5
FD
330
F6
100
AcDbEntity
  8
0
  6
Continuous
 62
     7
370
     0
100
AcDbLine
 10
249.4858207039
 20
208.801027532
 30
0.0
 11
249.4916228266
 21
200.8486826375
 31
0.0
  0
LINE
  5
FE
330
F6
100
AcDbEntity
  8
0
  6
Continuous
 62
     7
370
     0
100
AcDbLine
 10
249.5012155036
 20
187.7010331481
 30
0.0
 11
249.49530022
 21
195.8084754695
 31
0.0
  0
MTEXT
  5
FF
330
F6
100
AcDbEntity
  8
0
  6
Continuous
 62
     7
370
     0
100
AcDbMText
 10
244.2157109275
 20
199.9012658926
 30
0.0
 40
3.175
 41
0.0
 71
     1
 72
     1
  1
21.10
  7
SLDTEXTSTYLE0
 73
     1
 44
1.0
  0
ENDBLK
  5
F8
330
F6
100
AcDbEntity
  8
0
100
AcDbBlockEnd
  0
ENDSEC
  0
SECTION
  2
ENTITIES
  0
INSERT
  5
48
330
1F
100
AcDbEntity
  8
0
  6
Continuous
 62
     7
370
     0
100
AcDbBlockReference
  2
SW_NOTE_0
 10
18.0985641305
 20
258.0938401271
 30
0.0
  0
POINT
  5
49
330
1F
100
AcDbEntity
  8
0
  6
Continuous
 62
     7
370
     0
100
AcDbPoint
 10
209.4934609909
 20
198.2218458362
 30
0.0
  0
LINE
  5
4A
330
1F
100
AcDbEntity
  8
0
  6
Continuous
 62
     7
370
    15
100
AcDbLine
 10
183.5180827665
 20
197.4442623167
 30
0.0
 11
182.2518670044
 21
197.4442623167
 31
0.0
  0
SPLINE
  5
4B
330
1F
100
AcDbEntity
  8
0
  6
Continuous
 62
     7
370
    15
100
AcDbSpline
210
0.0
220
0.0
230
1.0
 70
     8
 71
     3
 72
    23
 73
    19
 74
     0
 42
0.00000001
 43
0.00000001
 40
0.0
 40
0.0
 40
0.0
 40
0.0
 40
0.0648015416815813
 40
0.1283309054687194
 40
0.1908923274384344
 40
0.2539943247366537
 40
0.3161344773332527
 40
0.3775212325760639
 40
0.4378700760373815
 40
0.4991238954174393
 40
0.560183331200872
 40
0.6211982494968044
 40
0.6828187897649015
 40
0.7456060170668731
 40
0.8083770135218016
 40
0.8717386356551089
 40
0.9351984583184227
 40
1.0
 40
1.0
 40
1.0
 40
1.0
 10
185.4415383243016
 20
199.3222930938228
 30
0.0
 10
185.4395264688097
 20
199.2578454193426
 30
0.0
 10
185.4355422543874
 20
199.1302153011884
 30
0.0
 10
185.4068575998836
 20
198.9420438019701
 30
0.0
 10
185.3577350554857
 20
198.7601041758571
 30
0.0
 10
185.2913176363847
 20
198.5852705539973
 30
0.0
 10
185.2091859426484
 20
198.4184853111344
 30
0.0
 10
185.1108714631454
 20
198.263945900646
 30
0.0
 10
184.9990418920064
 20
198.1200462177304
 30
0.0
 10
184.8729715637913
 20
197.9888280836467
 30
0.0
 10
184.7348002591218
 20
197.8696266142171
 30
0.0
 10
184.586903084743
 20
197.7618642424033
 30
0.0
 10
184.4264640254238
 20
197.6705288137958
 30
0.0
 10
184.259015894616
 20
197.5887677647321
 30
0.0
 10
184.0819089349534
 20
197.5250925247711
 30
0.0
 10
183.899142038494
 20
197.4777149242497
 30
0.0
 10
183.7100509000376
 20
197.4505954617303
 30
0.0
 10
183.5825168478991
 20
197.4463880360737
 30
0.0
 10
183.5180827664617
 20
197.4442623166847
 30
0.0
  0
SPLINE
  5
4C
330
1F
100
AcDbEntity
  8
0
  6
Continuous
 62
     7
370
    15
100
AcDbSpline
210
0.0
220
0.0
230
1.0
 70
     8
 71
     3
 72
    15
 73
    11
 74
     0
 42
0.00000001
 43
0.00000001
 40
0.0
 40
0.0
 40
0.0
 40
0.0
 40
0.1288085836301522
 40
0.2553873514417563
 40
0.378949647506822
 40
0.5017800585190766
 40
0.6237769885972692
 40
0.745423324074702
 40
0.8713065988874156
 40
1.0
 40
1.0
 40
1.0
 40
1.0
 10
184.9205728706283
 20
200.4806250017175
 30
0.0
 10
184.9586085095879
 20
200.4395517085998
 30
0.0
 10
185.0340213494819
 20
200.3581161454664
 30
0.0
 10
185.1344618131138
 20
200.2273741980712
 30
0.0
 10
185.2230706490733
 20
200.0915741421024
 30
0.0
 10
185.3002910632471
 20
199.9511888273606
 30
0.0
 10
185.3634354674495
 20
199.804704644609
 30
0.0
 10
185.4097418376456
 20
199.6506324816652
 30
0.0
 10
185.436996429792
 20
199.4888828317866
 30
0.0
 10
185.440013259114
 20
199.3782301503619
 30
0.0
 10
185.4415383243016
 20
199.3222930938228
 30
0.0
  0
LINE
  5
4D
330
1F
100
AcDbEntity
  8
0
  6
Continuous
 62
     7
370
    15
100
AcDbLine
 10
183.3221883997
 20
202.108819485
 30
0.0
 11
184.9205728706
 21
200.4806250017
 31
0.0
  0
SPLINE
  5
4E
330
1F
100
AcDbEntity
  8
0
  6
Continuous
 62
     7
370
    15
100
AcDbSpline
210
0.0
220
0.0
230
1.0
 70
     8
 71
     3
 72
    15
 73
    11
 74
     0
 42
0.00000001
 43
0.00000001
 40
0.0
 40
0.0
 40
0.0
 40
0.0
 40
0.1286255797137288
 40
0.252860428728628
 40
0.3763427208620718
 40
0.4981076688548707
 40
0.6200482707879691
 40
0.7432562756625821
 40
0.8695197628586094
 40
1.0
 40
1.0
 40
1.0
 40
1.0
 10
182.2518670044003
 20
202.5999749263338
 30
0.0
 10
182.3035553936471
 20
202.5962082135813
 30
0.0
 10
182.405167750181
 20
202.588803367643
 30
0.0
 10
182.5544632260619
 20
202.5611301304727
 30
0.0
 10
182.697858159979
 20
202.5205233028729
 30
0.0
 10
182.8348880237937
 20
202.4642697389266
 30
0.0
 10
182.96608333614
 20
202.3959023083617
 30
0.0
 10
183.0917724144973
 20
202.3144831791837
 30
0.0
 10
183.211909235923
 20
202.2191908973327
 30
0.0
 10
183.2850283763632
 20
202.1460105926959
 30
0.0
 10
183.3221883996854
 20
202.1088194849961
 30
0.0
  0
LINE
  5
4F
330
1F
100
AcDbEntity
  8
0
  6
Continuous
 62
     7
370
    15
100
AcDbLine
 10
182.2518670044
 20
201.4217696769
 30
0.0
 11
182.2518670044
 21
202.5999749263
 31
0.0
  0
SPLINE
  5
50
330
1F
100
AcDbEntity
  8
0
  6
Continuous
 62
     7
370
    15
100
AcDbSpline
210
0.0
220
0.0
230
1.0
 70
     8
 71
     3
 72
    11
 73
     7
 74
     0
 42
0.00000001
 43
0.00000001
 40
0.0
 40
0.0
 40
0.0
 40
0.0
 40
0.2503934032968506
 40
0.4960392893198273
 40
0.7426791941169999
 40
1.0
 40
1.0
 40
1.0
 40
1.0
 10
182.4775713835121
 20
201.3138858227154
 30
0.0
 10
182.462574668012
 20
201.3293109369922
 30
0.0
 10
182.4328655782321
 20
201.3598687017846
 30
0.0
 10
182.377489800228
 20
201.3922816375899
 30
0.0
 10
182.3168349648739
 20
201.4146120903292
 30
0.0
 10
182.2738268281737
 20
201.4193503406708
 30
0.0
 10
182.2518670044003
 20
201.421769676882
 30
0.0
  0
LINE
  5
51
330
1F
100
AcDbEntity
  8
0
  6
Continuous
 62
     7
370
    15
100
AcDbLine
 10
184.185259233
 20
199.6076174976
 30
0.0
 11
182.4775713835
 21
201.3138858227
 31
0.0
  0
SPLINE
  5
52
330
1F
100
AcDbEntity
  8
0
  6
Continuous
 62
     7
370
    15
100
AcDbSpline
210
0.0
220
0.0
230
1.0
 70
     8
 71
     3
 72
    11
 73
     7
 74
     0
 42
0.00000001
 43
0.00000001
 40
0.0
 40
0.0
 40
0.0
 40
0.0
 40
0.2629893246649706
 40
0.5166196249788703
 40
0.7631841710127176
 40
1.0
 40
1.0
 40
1.0
 40
1.0
 10
184.2732697456283
 20
199.3421664353798
 30
0.0
 10
184.272731678793
 20
199.3673577488473
 30
0.0
 10
184.2716746933544
 20
199.4168438902824
 30
0.0
 10
184.2550386150609
 20
199.4880146839317
 30
0.0
 10
184.2304446433467
 20
199.5550474900321
 30
0.0
 10
184.2001171569364
 20
199.5903313610583
 30
0.0
 10
184.1852592330187
 20
199.6076174976057
 30
0.0
  0
SPLINE
  5
53
330
1F
100
AcDbEntity
  8
0
  6
Continuous
 62
     7
370
    15
100
AcDbSpline
210
0.0
220
0.0
230
1.0
 70
     8
 71
     3
 72
    15
 73
    11
 74
     0
 42
0.00000001
 43
0.00000001
 40
0.0
 40
0.0
 40
0.0
 40
0.0
 40
0.1306943821933653
 40
0.2570913609966864
 40
0.3807418917560768
 40
0.5092937888460585
 40
0.6364230267202994
 40
0.758024214260808
 40
0.87653270055505
 40
1.0
 40
1.0
 40
1.0
 40
1.0
 10
183.5180827664617
 20
198.6253066149303
 30
0.0
 10
183.5684922385877
 20
198.6275941952522
 30
0.0
 10
183.6676536530151
 20
198.6320941372428
 30
0.0
 10
183.8101590959945
 20
198.6726436128152
 30
0.0
 10
183.9394084360406
 20
198.7419580900534
 30
0.0
 10
184.0544398050281
 20
198.833218563387
 30
0.0
 10
184.1510619677895
 20
198.9429857776815
 30
0.0
 10
184.2217920914711
 20
199.066472859321
 30
0.0
 10
184.2653712205657
 20
199.2011557278239
 30
0.0
 10
184.2706011780767
 20
199.2945250598535
 30
0.0
 10
184.2732697456283
 20
199.3421664353798
 30
0.0
  0
LINE
  5
54
330
1F
100
AcDbEntity
  8
0
  6
Continuous
 62
     7
370
    15
100
AcDbLine
 10
182.2518670044
 20
198.6253066149
 30
0.0
 11
183.5180827665
 21
198.6253066149
 31
0.0
  0
LINE
  5
55
330
1F
100
AcDbEntity
  8
0
  6
Continuous
 62
     7
370
    15
100
AcDbLine
 10
182.2518670044
 20
197.4442623167
 30
0.0
 11
182.2518670044
 21
198.6253066149
 31
0.0
  0
LINE
  5
56
330
1F
100
AcDbEntity
  8
0
  6
Continuous
 62
     7
370
    15
100
AcDbLine
 10
177.4325816768
 20
201.4416430184
 30
0.0
 11
176.8732890644
 21
201.4416430184
 31
0.0
  0
SPLINE
  5
57
330
1F
100
AcDbEntity
  8
0
  6
Continuous
 62
     7
370
    15
100
AcDbSpline
210
0.0
220
0.0
230
1.0
 70
     8
 71
     3
 72
    15
 73
    11
 74
     0
 42
0.00000001
 43
0.00000001
 40
0.0
 40
0.0
 40
0.0
 40
0.0
 40
0.1272964691726118
 40
0.2500742175560615
 40
0.3737260256535148
 40
0.5008455887878617
 40
0.6276359572817722
 40
0.7507797389469606
 40
0.8727035308273804
 40
1.0
 40
1.0
 40
1.0
 40
1.0
 10
178.1395048264946
 20
200.7233636735926
 30
0.0
 10
178.1371454441183
 20
200.7709428877405
 30
0.0
 10
178.1325104318081
 20
200.8644123675093
 30
0.0
 10
178.0927226932287
 20
200.9995701304211
 30
0.0
 10
178.0260003746531
 20
201.1229260977769
 30
0.0
 10
177.9367888663789
 20
201.2329311266483
 30
0.0
 10
177.8297026802046
 20
201.3256473806473
 30
0.0
 10
177.7074586564946
 20
201.3931448434204
 30
0.0
 10
177.5734507700612
 20
201.4351850968909
 30
0.0
 10
177.4802080815624
 20
201.4394596609803
 30
0.0
 10
177.4325816768235
 20
201.441643018439
 30
0.0
  0
LINE
  5
58
330
1F
100
AcDbEntity
  8
0
  6
Continuous
 62
     7
370
    15
100
AcDbLine
 10
178.1395048265
 20
199.3251321426
 30
0.0
 11
178.1395048265
 21
200.7233636736
 31
0.0
  0
SPLINE
  5
59
330
1F
100
AcDbEntity
  8
0
  6
Continuous
 62
     7
370
    15
100
AcDbSpline
210
0.0
220
0.0
230
1.0
 70
     8
 71
     3
 72
    15
 73
    11
 74
     0
 42
0.00000001
 43
0.00000001
 40
0.0
 40
0.0
 40
0.0
 40
0.0
 40
0.1289927156550996
 40
0.2521732287160581
 40
0.376341336995308
 40
0.5031661703433565
 40
0.630982723977131
 40
0.7528971889734322
 40
0.8748454955984161
 40
1.0
 40
1.0
 40
1.0
 40
1.0
 10
177.4325816768235
 20
198.6253066149303
 30
0.0
 10
177.4801696942498
 20
198.6276226818991
 30
0.0
 10
177.5732014902055
 20
198.632150457615
 30
0.0
 10
177.7074122792921
 20
198.6721456223516
 30
0.0
 10
177.8290795037069
 20
198.7385583124213
 30
0.0
 10
177.9372952992504
 20
198.8281230395607
 30
0.0
 10
178.0249668601811
 20
198.9365241304289
 30
0.0
 10
178.0931108100386
 20
199.0561221302277
 30
0.0
 10
178.1322942334368
 20
199.1878827297105
 30
0.0
 10
178.1370805942144
 20
199.2789883019458
 30
0.0
 10
178.1395048264946
 20
199.3251321426167
 30
0.0
  0
LINE
  5
5A
330
1F
100
AcDbEntity
  8
0
  6
Continuous
 62
     7
370
    15
100
AcDbLine
 10
176.8732890644
 20
198.6253066149
 30
0.0
 11
177.4325816768
 21
198.6253066149
 31
0.0
  0
LINE
  5
5B
330
1F
100
AcDbEntity
  8
0
  6
Continuous
 62
     7
370
    15
100
AcDbLine
 10
176.8732890644
 20
197.4442623167
 30
0.0
 11
176.8732890644
 21
198.6253066149
 31
0.0
  0
LINE
  5
5C
330
1F
100
AcDbEntity
  8
0
  6
Continuous
 62
     7
370
    15
100
AcDbLine
 10
177.4325816768
 20
197.4442623167
 30
0.0
 11
176.8732890644
 21
197.4442623167
 31
0.0
  0
SPLINE
  5
5D
330
1F
100
AcDbEntity
  8
0
  6
Continuous
 62
     7
370
    15
100
AcDbSpline
210
0.0
220
0.0
230
1.0
 70
     8
 71
     3
 72
    23
 73
    19
 74
     0
 42
0.00000001
 43
0.00000001
 40
0.0
 40
0.0
 40
0.0
 40
0.0
 40
0.0656758026418995
 40
0.1295235518316956
 40
0.1928087865916879
 40
0.2561284199312813
 40
0.3184372678499925
 40
0.3798531644425188
 40
0.440368615490268
 40
0.500366733433786
 40
0.5603648513773035
 40
0.6205936551710685
 40
0.6817646089383015
 40
0.7445042084303285
 40
0.8076589206537047
 40
0.8704806675535725
 40
0.9348023299348134
 40
1.0
 40
1.0
 40
1.0
 40
1.0
 10
179.3205491247402
 20
199.3279711914105
 30
0.0
 10
179.3184394334323
 20
199.2630626587911
 30
0.0
 10
179.3142787730296
 20
199.1350522904233
 30
0.0
 10
179.2871978898151
 20
198.9459478572265
 30
0.0
 10
179.2397937780167
 20
198.7634484966777
 30
0.0
 10
179.1748263611622
 20
198.5880286382025
 30
0.0
 10
179.0930384848566
 20
198.4220159470319
 30
0.0
 10
179.0003707985154
 20
198.2648991459148
 30
0.0
 10
178.8911025107283
 20
198.1217248887083
 30
0.0
 10
178.7721233659726
 20
197.988441520293
 30
0.0
 10
178.639216844448
 20
197.869413913499
 30
0.0
 10
178.4955758234639
 20
197.7615643140081
 30
0.0
 10
178.3378337091121
 20
197.6702663505125
 30
0.0
 10
178.1717669438649
 20
197.5884303247139
 30
0.0
 10
177.9957780207894
 20
197.5256749968894
 30
0.0
 10
177.8137807556824
 20
197.4771192552439
 30
0.0
 10
177.6249870587307
 20
197.4507708674571
 30
0.0
 10
177.4970053401223
 20
197.4464415939968
 30
0.0
 10
177.4325816768235
 20
197.4442623166847
 30
0.0
  0
LINE
  5
5E
330
1F
100
AcDbEntity
  8
0
  6
Continuous
 62
     7
370
    15
100
AcDbLine
 10
179.3205491247
 20
200.7290417712
 30
0.0
 11
179.3205491247
 21
199.3279711914
 31
0.0
  0
SPLINE
  5
5F
330
1F
100
AcDbEntity
  8
0
  6
Continuous
 62
     7
370
    15
100
AcDbSpline
210
0.0
220
0.0
230
1.0
 70
     8
 71
     3
 72
    23
 73
    19
 74
     0
 42
0.00000001
 43
0.00000001
 40
0.0
 40
0.0
 40
0.0
 40
0.0
 40
0.0648523341612099
 40
0.1288557376821725
 40
0.1912485425601949
 40
0.2539298559340372
 40
0.315950533408057
 40
0.376818817789777
 40
0.4364668258751432
 40
0.4961680775386448
 40
0.5558693292021468
 40
0.6160853542436849
 40
0.6776063605157059
 40
0.7404648371278417
 40
0.8039180349583593
 40
0.8682750511345411
 40
0.9332218024831832
 40
1.0
 40
1.0
 40
1.0
 40
1.0
 10
177.4325816768235
 20
202.6226873166846
 30
0.0
 10
177.4970210633557
 20
202.6211451974372
 30
0.0
 10
177.6250563113508
 20
202.6180811456062
 30
0.0
 10
177.813546992284
 20
202.5907359024528
 30
0.0
 10
177.9958104940222
 20
202.544411432857
 30
0.0
 10
178.1712392930183
 20
202.4822962963411
 30
0.0
 10
178.3386162222636
 20
202.4044217547634
 30
0.0
 10
178.4949915096734
 20
202.3120942919195
 30
0.0
 10
178.6397014970245
 20
202.2062572394322
 30
0.0
 10
178.772057383185
 20
202.0869254687772
 30
0.0
 10
178.8910914235265
 20
201.9537491482525
 30
0.0
 10
179.0007306690282
 20
201.8103171283335
 30
0.0
 10
179.0934091173692
 20
201.6516909910071
 30
0.0
 10
179.1744326287218
 20
201.4834457925994
 30
0.0
 10
179.2403621972949
 20
201.3055332784518
 30
0.0
 10
179.2871124136965
 20
201.1195047041525
 30
0.0
 10
179.3142974042092
 20
200.9262094195932
 30
0.0
 10
179.3184459911826
 20
200.79537069548
 30
0.0
 10
179.3205491247402
 20
200.7290417711803
 30
0.0
  0
LINE
  5
60
330
1F
100
AcDbEntity
  8
0
  6
Continuous
 62
     7
370
    15
100
AcDbLine
 10
176.8732890644
 20
202.6226873167
 30
0.0
 11
177.4325816768
 21
202.6226873167
 31
0.0
  0
LINE
  5
61
330
1F
100
AcDbEntity
  8
0
  6
Continuous
 62
     7
370
    15
100
AcDbLine
 10
176.8732890644
 20
201.4416430184
 30
0.0
 11
176.8732890644
 21
202.6226873167
 31
0.0
  0
SPLINE
  5
62
330
1F
100
AcDbEntity
  8
0
  6
Continuous
 62
     7
370
    15
100
AcDbSpline
210
0.0
220
0.0
230
1.0
 70
     8
 71
     3
 72
    17
 73
    13
 74
     0
 42
0.00000001
 43
0.00000001
 40
0.0
 40
0.0
 40
0.0
 40
0.0
 40
0.1591712634441989
 40
0.3089086193092956
 40
0.4498484619648787
 40
0.5772881359953627
 40
0.6951141731370858
 40
0.8038815695330154
 40
0.8558818728355427
 40
0.9054094272449086
 40
0.9523696444412099
 40
1.0
 40
1.0
 40
1.0
 40
1.0
 10
170.6628698278652
 20
196.8991649482636
 30
0.0
 10
170.7454158026752
 20
196.901568857979
 30
0.0
 10
170.905615342192
 20
196.9062342002968
 30
0.0
 10
171.1353920215803
 20
196.9513318332733
 30
0.0
 10
171.340964271713
 20
197.0211734929635
 30
0.0
 10
171.5207202859395
 20
197.1113212004272
 30
0.0
 10
171.6667207488697
 20
197.2240389130019
 30
0.0
 10
171.7634999686294
 20
197.332793784138
 30
0.0
 10
171.8193393828622
 20
197.4267091837085
 30
0.0
 10
171.8496612527447
 20
197.4976723425232
 30
0.0
 10
171.8676803633596
 20
197.5706540880107
 30
0.0
 10
171.869811814048
 20
197.6197123473792
 30
0.0
 10
171.8708850896525
 20
197.6444152566518
 30
0.0
  0
LINE
  5
63
330
1F
100
AcDbEntity
  8
0
  6
Continuous
 62
     7
370
    15
100
AcDbLine
 10
170.6628698279
 20
195.71812065
 30
0.0
 11
170.6628698279
 21
196.8991649483
 31
0.0
  0
LINE
  5
64
330
1F
100
AcDbEntity
  8
0
  6
Continuous
 62
     7
370
    15
100
AcDbLine
 10
173.0519293879
 20
202.5502915724
 30
0.0
 11
173.0519293879
 21
197.6444152567
 31
0.0
  0
LINE
  5
65
330
1F
100
AcDbEntity
  8
0
  6
Continuous
 62
     7
370
    15
100
AcDbLine
 10
171.8708850897
 20
202.5502915724
 30
0.0
 11
173.0519293879
 21
202.5502915724
 31
0.0
  0
LINE
  5
66
330
1F
100
AcDbEntity
  8
0
  6
Continuous
 62
     7
370
    15
100
AcDbLine
 10
171.8708850897
 20
197.6444152567
 30
0.0
 11
171.8708850897
 21
202.5502915724
 31
0.0
  0
LINE
  5
67
330
1F
100
AcDbEntity
  8
0
  6
Continuous
 62
     7
370
    15
100
AcDbLine
 10
168.5179684641
 20
201.4416430184
 30
0.0
 11
166.2907346853
 21
201.4416430184
 31
0.0
  0
LINE
  5
68
330
1F
100
AcDbEntity
  8
0
  6
Continuous
 62
     7
370
    15
100
AcDbLine
 10
168.5179684641
 20
202.6226873167
 30
0.0
 11
168.5179684641
 21
201.4416430184
 31
0.0
  0
LINE
  5
69
330
1F
100
AcDbEntity
  8
0
  6
Continuous
 62
     7
370
    15
100
AcDbLine
 10
166.2907346853
 20
202.6226873167
 30
0.0
 11
168.5179684641
 21
202.6226873167
 31
0.0
  0
LINE
  5
6A
330
1F
100
AcDbEntity
  8
0
  6
Continuous
 62
     7
370
    15
100
AcDbLine
 10
166.2907346853
 20
201.4416430184
 30
0.0
 11
166.2907346853
 21
202.6226873167
 31
0.0
  0
SPLINE
  5
6B
330
1F
100
AcDbEntity
  8
0
  6
Continuous
 62
     7
370
    15
100
AcDbSpline
210
0.0
220
0.0
230
1.0
 70
     8
 71
     3
 72
    19
 73
    15
 74
     0
 42
0.00000001
 43
0.00000001
 40
0.0
 40
0.0
 40
0.0
 40
0.0
 40
0.1235780180493525
 40
0.2457106691246945
 40
0.3691384956846903
 40
0.4951216957190304
 40
0.5586986869637454
 40
0.6217225379942173
 40
0.683544425398594
 40
0.7456589186433553
 40
0.808004502111983
 40
0.8704302642657215
 40
0.9347406159870852
 40
1.0
 40
1.0
 40
1.0
 40
1.0
 10
165.6931149142139
 20
197.6018295247439
 30
0.0
 10
165.6109246858257
 20
197.6402249981368
 30
0.0
 10
165.4475055249461
 20
197.7165668719396
 30
0.0
 10
165.224755274181
 20
197.8721948259972
 30
0.0
 10
165.0213107651591
 20
198.0542139594693
 30
0.0
 10
164.873745970699
 20
198.2307833041063
 30
0.0
 10
164.7672534409805
 20
198.3823769601445
 30
0.0
 10
164.6995226660657
 20
198.503008214017
 30
0.0
 10
164.6427585664483
 20
198.6278115915063
 30
0.0
 10
164.593684660573
 20
198.7553601184004
 30
0.0
 10
164.5569732914504
 20
198.8875480306118
 30
0.0
 10
164.5315197006472
 20
199.0238826716081
 30
0.0
 10
164.515602364547
 20
199.1638769636331
 30
0.0
 10
164.5132535999957
 20
199.2588460049036
 30
0.0
 10
164.5120706159683
 20
199.3066783254566
 30
0.0
  0
LINE
  5
6C
330
1F
100
AcDbEntity
  8
0
  6
Continuous
 62
     7
370
    15
100
AcDbLine
 10
165.6931149142
 20
204.2579794219
 30
0.0
 11
165.6931149142
 21
197.6018295247
 31
0.0
  0
LINE
  5
6D
330
1F
100
AcDbEntity
  8
0
  6
Continuous
 62
     7
370
    15
100
AcDbLine
 10
164.512070616
 20
204.2579794219
 30
0.0
 11
165.6931149142
 21
204.2579794219
 31
0.0
  0
LINE
  5
6E
330
1F
100
AcDbEntity
  8
0
  6
Continuous
 62
     7
370
    15
100
AcDbLine
 10
164.512070616
 20
199.3066783255
 30
0.0
 11
164.512070616
 21
204.2579794219
 31
0.0
  0
SPLINE
  5
6F
330
1F
100
AcDbEntity
  8
0
  6
Continuous
 62
     7
370
    15
100
AcDbSpline
210
0.0
220
0.0
230
1.0
 70
     8
 71
     3
 72
    23
 73
    19
 74
     0
 42
0.00000001
 43
0.00000001
 40
0.0
 40
0.0
 40
0.0
 40
0.0
 40
0.0647604666824029
 40
0.1278597966913651
 40
0.1908389239230624
 40
0.254221942887852
 40
0.317137340381499
 40
0.3786901240571142
 40
0.4402591989607382
 40
0.5017141445761434
 40
0.5632669282517612
 40
0.6244583865845674
 40
0.6863145657041411
 40
0.7488105699285318
 40
0.8116905341024636
 40
0.874093750695177
 40
0.936653911893007
 40
1.0
 40
1.0
 40
1.0
 40
1.0
 10
160.3329907914069
 20
197.4442623166847
 30
0.0
 10
160.268031481017
 20
197.446052089649
 30
0.0
 10
160.1397790973462
 20
197.4495857270527
 30
0.0
 10
159.9506994223149
 20
197.4814332075523
 30
0.0
 10
159.7663346026119
 20
197.5283838383466
 30
0.0
 10
159.5899423521644
 20
197.5993433439866
 30
0.0
 10
159.4212158898554
 20
197.683415261584
 30
0.0
 10
159.2638535871804
 20
197.7840838858588
 30
0.0
 10
159.1175700483988
 20
197.8977137302288
 30
0.0
 10
158.9821757167295
 20
198.0241965038361
 30
0.0
 10
158.8602277998068
 20
198.1632463485428
 30
0.0
 10
158.7522175452107
 20
198.313732410929
 30
0.0
 10
158.6550767956243
 20
198.4725495087371
 30
0.0
 10
158.572509580373
 20
198.6414263087048
 30
0.0
 10
158.5074269286325
 20
198.8183970469537
 30
0.0
 10
158.4605338593205
 20
199.0009940025515
 30
0.0
 10
158.4310735648839
 20
199.1879062755302
 30
0.0
 10
158.4271327227054
 20
199.3141424599066
 30
0.0
 10
158.4251500019332
 20
199.3776545453031
 30
0.0
  0
LINE
  5
70
330
1F
100
AcDbEntity
  8
0
  6
Continuous
 62
     7
370
    15
100
AcDbLine
 10
160.9504839041
 20
197.4442623167
 30
0.0
 11
160.3329907914
 21
197.4442623167
 31
0.0
  0
LINE
  5
71
330
1F
100
AcDbEntity
  8
0
  6
Continuous
 62
     7
370
    15
100
AcDbLine
 10
160.9504839041
 20
198.6253066149
 30
0.0
 11
160.9504839041
 21
197.4442623167
 31
0.0
  0
LINE
  5
72
330
1F
100
AcDbEntity
  8
0
  6
Continuous
 62
     7
370
    15
100
AcDbLine
 10
160.3613812793
 20
198.6253066149
 30
0.0
 11
160.9504839041
 21
198.6253066149
 31
0.0
  0
SPLINE
  5
73
330
1F
100
AcDbEntity
  8
0
  6
Continuous
 62
     7
370
    15
100
AcDbSpline
210
0.0
220
0.0
230
1.0
 70
     8
 71
     3
 72
    15
 73
    11
 74
     0
 42
0.00000001
 43
0.00000001
 40
0.0
 40
0.0
 40
0.0
 40
0.0
 40
0.128888820859976
 40
0.2514625169574536
 40
0.3727384761519241
 40
0.4995798841075813
 40
0.6265799572174152
 40
0.7489128460893256
 40
0.8723052687239966
 40
1.0
 40
1.0
 40
1.0
 40
1.0
 10
159.6061943001788
 20
199.3748154965092
 30
0.0
 10
159.6088452109217
 20
199.3238823572439
 30
0.0
 10
159.6140171465728
 20
199.2245116336175
 30
0.0
 10
159.6569047945978
 20
199.0823522720873
 30
0.0
 10
159.7266407082078
 20
198.952739945792
 30
0.0
 10
159.8231496355256
 20
198.8392317043767
 30
0.0
 10
159.9383992044361
 20
198.7444799107217
 30
0.0
 10
160.068681902964
 20
198.6741131187903
 30
0.0
 10
160.211882438445
 20
198.6338761547612
 30
0.0
 10
160.310982316086
 20
198.6281955732692
 30
0.0
 10
160.3613812793455
 20
198.6253066149303
 30
0.0
  0
LINE
  5
74
330
1F
100
AcDbEntity
  8
0
  6
Continuous
 62
     7
370
    15
100
AcDbLine
 10
159.6061943002
 20
202.6226873167
 30
0.0
 11
159.6061943002
 21
199.3748154965
 31
0.0
  0
LINE
  5
75
330
1F
100
AcDbEntity
  8
0
  6
Continuous
 62
     7
370
    15
100
AcDbLine
 10
158.4251500019
 20
202.6226873167
 30
0.0
 11
159.6061943002
 21
202.6226873167
 31
0.0
  0
LINE
  5
76
330
1F
100
AcDbEntity
  8
0
  6
Continuous
 62
     7
370
    15
100
AcDbLine
 10
158.4251500019
 20
199.3776545453
 30
0.0
 11
158.4251500019
 21
202.6226873167
 31
0.0
  0
LINE
  5
77
330
1F
100
AcDbEntity
  8
0
  6
Continuous
 62
     7
370
    15
100
AcDbLine
 10
152.3382293879
 20
197.4442623167
 30
0.0
 11
152.3382293879
 21
202.4622810598
 31
0.0
  0
LINE
  5
78
330
1F
100
AcDbEntity
  8
0
  6
Continuous
 62
     7
370
    15
100
AcDbLine
 10
153.5192736861
 20
197.4442623167
 30
0.0
 11
152.3382293879
 21
197.4442623167
 31
0.0
  0
LINE
  5
79
330
1F
100
AcDbEntity
  8
0
  6
Continuous
 62
     7
370
    15
100
AcDbLine
 10
153.5192736861
 20
202.4622810598
 30
0.0
 11
153.5192736861
 21
197.4442623167
 31
0.0
  0
SPLINE
  5
7A
330
1F
100
AcDbEntity
  8
0
  6
Continuous
 62
     7
370
    15
100
AcDbSpline
210
0.0
220
0.0
230
1.0
 70
     8
 71
     3
 72
    15
 73
    11
 74
     0
 42
0.00000001
 43
0.00000001
 40
0.0
 40
0.0
 40
0.0
 40
0.0
 40
0.1280959719884329
 40
0.2509333729724847
 40
0.3750602178812982
 40
0.5031561898697317
 40
0.6302058528482577
 40
0.751889093187377
 40
0.8738540805368282
 40
1.0
 40
1.0
 40
1.0
 40
1.0
 10
154.1552206159683
 20
203.1535894411364
 30
0.0
 10
154.1118052760264
 20
203.1465911694432
 30
0.0
 10
154.0267568742596
 20
203.1328819177492
 30
0.0
 10
153.9057715930165
 20
203.0862556877397
 30
0.0
 10
153.797283616589
 20
203.0162855570885
 30
0.0
 10
153.6994223472696
 20
202.9296974351868
 30
0.0
 10
153.6211761582958
 20
202.8261295290648
 30
0.0
 10
153.5604092980336
 20
202.7138826037044
 30
0.0
 10
153.5256092075112
 20
202.5906486263787
 30
0.0
 10
153.5214091185849
 20
202.5055482591836
 30
0.0
 10
153.5192736861437
 20
202.4622810598316
 30
0.0
  0
LINE
  5
7B
330
1F
100
AcDbEntity
  8
0
  6
Continuous
 62
     7
370
    15
100
AcDbLine
 10
154.155220616
 20
204.3488289834
 30
0.0
 11
154.155220616
 21
203.1535894411
 31
0.0
  0
SPLINE
  5
7C
330
1F
100
AcDbEntity
  8
0
  6
Continuous
 62
     7
370
    15
100
AcDbSpline
210
0.0
220
0.0
230
1.0
 70
     8
 71
     3
 72
    23
 73
    19
 74
     0
 42
0.00000001
 43
0.00000001
 40
0.0
 40
0.0
 40
0.0
 40
0.0
 40
0.0652878271899208
 40
0.1292302516828417
 40
0.1922693260345318
 40
0.254779745436288
 40
0.3170820787811777
 40
0.3779730798492322
 40
0.4386880807084523
 40
0.4987980261421244
 40
0.5595051048978573
 40
0.6203210221186635
 40
0.6814012975747784
 40
0.7432523202049287
 40
0.8061768473856316
 40
0.8696341590252639
 40
0.9339796076412608
 40
1.0
 40
1.0
 40
1.0
 40
1.0
 10
152.3382293878981
 20
202.4622810598316
 30
0.0
 10
152.3396502256473
 20
202.5253292755187
 30
0.0
 10
152.3424626215844
 20
202.6501264564343
 30
0.0
 10
152.3714480699572
 20
202.8337722449736
 30
0.0
 10
152.4125691391
 20
203.0121838388665
 30
0.0
 10
152.4748147568669
 20
203.1828518051002
 30
0.0
 10
152.5509349286984
 20
203.3452751551739
 30
0.0
 10
152.6408159615169
 20
203.4986317359033
 30
0.0
 10
152.7446752881316
 20
203.6402418889479
 30
0.0
 10
152.8605158020181
 20
203.7719113025856
 30
0.0
 10
152.9879548740455
 20
203.8926297756281
 30
0.0
 10
153.1275909036724
 20
204.0005366033203
 30
0.0
 10
153.2772807454956
 20
204.0959544125697
 30
0.0
 10
153.4366599029288
 20
204.1787519603283
 30
0.0
 10
153.6054567683247
 20
204.2464818185168
 30
0.0
 10
153.7818822921764
 20
204.2998536913215
 30
0.0
 10
153.966246216101
 20
204.333800603412
 30
0.0
 10
154.0916919061742
 20
204.3437767985659
 30
0.0
 10
154.1552206159683
 20
204.3488289833513
 30
0.0
  0
LINE
  5
7D
330
1F
100
AcDbEntity
  8
0
  6
Continuous
 62
     7
370
    15
100
AcDbLine
 10
206.3387612922
 20
198.2195441308
 30
0.0
 11
201.9852764859
 21
190.6663657684
 31
0.0
  0
LINE
  5
7E
330
1F
100
AcDbEntity
  8
0
  6
Continuous
 62
     7
370
    15
100
AcDbLine
 10
201.9742593543
 20
205.7663617493
 30
0.0
 11
206.3387612922
 21
198.2195441308
 31
0.0
  0
LINE
  5
7F
330
1F
100
AcDbEntity
  8
0
  6
Continuous
 62
     7
370
    15
100
AcDbLine
 10
193.25627261
 20
205.7600010055
 30
0.0
 11
201.9742593543
 21
205.7663617493
 31
0.0
  0
LINE
  5
80
330
1F
100
AcDbEntity
  8
0
  6
Continuous
 62
     7
370
    15
100
AcDbLine
 10
188.9027878036
 20
198.2068226431
 30
0.0
 11
193.25627261
 21
205.7600010055
 31
0.0
  0
LINE
  5
81
330
1F
100
AcDbEntity
  8
0
  6
Continuous
 62
     7
370
    15
100
AcDbLine
 10
193.2672897415
 20
190.6600050246
 30
0.0
 11
188.9027878036
 21
198.2068226431
 31
0.0
  0
LINE
  5
82
330
1F
100
AcDbEntity
  8
0
  6
Continuous
 62
     7
370
    15
100
AcDbLine
 10
201.9852764859
 20
190.6663657684
 30
0.0
 11
193.2672897415
 21
190.6600050246
 31
0.0
  0
SPLINE
  5
83
330
1F
100
AcDbEntity
  8
0
  6
Continuous
 62
     7
370
    15
100
AcDbSpline
210
0.0
220
0.0
230
1.0
 70
     8
 71
     3
 72
    11
 73
     7
 74
     0
 42
0.00000001
 43
0.00000001
 40
0.0
 40
0.0
 40
0.0
 40
0.0
 40
0.2442788944241021
 40
0.5011845906818034
 40
0.7581150563618944
 40
0.9999999999999999
 40
0.9999999999999999
 40
0.9999999999999999
 40
0.9999999999999999
 10
156.6209344934354
 20
201.3096272495246
 30
0.0
 10
156.4829661332404
 20
201.4465772537673
 30
0.0
 10
156.1998978137511
 20
201.7275562224255
 30
0.0
 10
155.7679203094314
 20
202.1487100989605
 30
0.0
 10
155.3365179520808
 20
202.5677682047484
 30
0.0
 10
155.0457354057685
 20
202.8380072770202
 30
0.0
 10
154.9047294975472
 20
202.9690512695356
 30
0.0
  0
SPLINE
  5
84
330
1F
100
AcDbEntity
  8
0
  6
Continuous
 62
     7
370
    15
100
AcDbSpline
210
0.0
220
0.0
230
1.0
 70
     8
 71
     3
 72
    11
 73
     7
 74
     0
 42
0.00000001
 43
0.00000001
 40
0.0
 40
0.0
 40
0.0
 40
0.0
 40
0.2414492208900287
 40
0.5043736252281992
 40
0.7662746416891641
 40
1.0
 40
1.0
 40
1.0
 40
1.0
 10
156.6990083352665
 20
201.0271418945355
 30
0.0
 10
156.6986024643076
 20
201.0513450387109
 30
0.0
 10
156.6977546230672
 20
201.1019040238453
 30
0.0
 10
156.6857171127692
 20
201.1772996034526
 30
0.0
 10
156.6686873729166
 20
201.2531513940371
 30
0.0
 10
156.6362372045429
 20
201.2915292057948
 30
0.0
 10
156.6209344934354
 20
201.3096272495246
 30
0.0
  0
LINE
  5
85
330
1F
100
AcDbEntity
  8
0
  6
Continuous
 62
     7
370
    15
100
AcDbLine
 10
156.6990083353
 20
197.4442623167
 30
0.0
 11
156.6990083353
 21
201.0271418945
 31
0.0
  0
LINE
  5
86
330
1F
100
AcDbEntity
  8
0
  6
Continuous
 62
     7
370
    15
100
AcDbLine
 10
157.8800526335
 20
197.4442623167
 30
0.0
 11
156.6990083353
 21
197.4442623167
 31
0.0
  0
LINE
  5
87
330
1F
100
AcDbEntity
  8
0
  6
Continuous
 62
     7
370
    15
100
AcDbLine
 10
157.8800526335
 20
201.0271418945
 30
0.0
 11
157.8800526335
 21
197.4442623167
 31
0.0
  0
SPLINE
  5
88
330
1F
100
AcDbEntity
  8
0
  6
Continuous
 62
     7
370
    15
100
AcDbSpline
210
0.0
220
0.0
230
1.0
 70
     8
 71
     3
 72
    15
 73
    11
 74
     0
 42
0.00000001
 43
0.00000001
 40
0.0
 40
0.0
 40
0.0
 40
0.0
 40
0.1411747586544387
 40
0.2734214706297249
 40
0.3976950817320769
 40
0.5167145818528818
 40
0.6328051273343126
 40
0.7513791741456242
 40
0.8732459828312531
 40
1.0
 40
1.0
 40
1.0
 40
1.0
 10
157.4158681557161
 20
202.110239009393
 30
0.0
 10
157.4544428498882
 20
202.0682704790769
 30
0.0
 10
157.5291527322366
 20
201.986987554363
 30
0.0
 10
157.6260227944662
 20
201.8586582596309
 30
0.0
 10
157.7064408100225
 20
201.7299822192015
 30
0.0
 10
157.7714262889202
 20
201.5999660258061
 30
0.0
 10
157.8199649943148
 20
201.4654624509737
 30
0.0
 10
157.8562884638858
 20
201.3259527589292
 30
0.0
 10
157.8756678106376
 20
201.178630472735
 30
0.0
 10
157.8785719964256
 20
201.0782955245639
 30
0.0
 10
157.8800526335121
 20
201.0271418945355
 30
0.0
  0
SPLINE
  5
89
330
1F
100
AcDbEntity
  8
0
  6
Continuous
 62
     7
370
    15
100
AcDbSpline
210
0.0
220
0.0
230
1.0
 70
     8
 71
     3
 72
    17
 73
    13
 74
     0
 42
0.00000001
 43
0.00000001
 40
0.0
 40
0.0
 40
0.0
 40
0.0
 40
0.0304058505700263
 40
0.0690671579232574
 40
0.1151103030721523
 40
0.168979101011251
 40
0.290614913209477
 40
0.4248525954347715
 40
0.5686452344401861
 40
0.7189596056628199
 40
0.8662114369417937
 40
1.0
 40
1.0
 40
1.0
 40
1.0
 10
155.7976103432161
 20
203.7597263586254
 30
0.0
 10
155.8142303158764
 20
203.7432234178452
 30
0.0
 10
155.8519827304575
 20
203.7057368422125
 30
0.0
 10
155.9133841753861
 20
203.6417592210181
 30
0.0
 10
155.9897054259619
 20
203.567115798171
 30
0.0
 10
156.107468458854
 20
203.4435851454379
 30
0.0
 10
156.2745733813186
 20
203.2732933590592
 30
0.0
 10
156.4881059158784
 20
203.0515267056061
 30
0.0
 10
156.718544982273
 20
202.8153882823783
 30
0.0
 10
156.9533903519389
 20
202.5695522085663
 30
0.0
 10
157.1881522742308
 20
202.3343955746796
 30
0.0
 10
157.3424263671757
 20
202.1825328650536
 30
0.0
 10
157.4158681557161
 20
202.110239009393
 30
0.0
  0
SPLINE
  5
8A
330
1F
100
AcDbEntity
  8
0
  6
Continuous
 62
     7
370
    15
100
AcDbSpline
210
0.0
220
0.0
230
1.0
 70
     8
 71
     3
 72
    15
 73
    11
 74
     0
 42
0.00000001
 43
0.00000001
 40
0.0
 40
0.0
 40
0.0
 40
0.0
 40
0.1216133123252548
 40
0.245537553535642
 40
0.3724645694820577
 40
0.5032067670450934
 40
0.634787150863287
 40
0.7604110493804311
 40
0.8819018234907133
 40
1.0
 40
1.0
 40
1.0
 40
1.0
 10
154.7372256187095
 20
204.2579794219478
 30
0.0
 10
154.7851930953484
 20
204.2518626650267
 30
0.0
 10
154.8820395395248
 20
204.2395129189235
 30
0.0
 10
155.0256691413067
 20
204.2025833528053
 30
0.0
 10
155.1694427570155
 20
204.1542606535548
 30
0.0
 10
155.31196846456
 20
204.0937052312457
 30
0.0
 10
155.4483725683552
 20
204.0217993149523
 30
0.0
 10
155.5779231007761
 20
203.9448799190442
 30
0.0
 10
155.6928366374198
 20
203.8557448948019
 30
0.0
 10
155.7630170278235
 20
203.7914289645441
 30
0.0
 10
155.7976103432161
 20
203.7597263586254
 30
0.0
  0
LINE
  5
8B
330
1F
100
AcDbEntity
  8
0
  6
Continuous
 62
     7
370
    15
100
AcDbLine
 10
154.7372256187
 20
203.0769351237
 30
0.0
 11
154.7372256187
 21
204.2579794219
 31
0.0
  0
SPLINE
  5
8C
330
1F
100
AcDbEntity
  8
0
  6
Continuous
 62
     7
370
    15
100
AcDbSpline
210
0.0
220
0.0
230
1.0
 70
     8
 71
     3
 72
     9
 73
     5
 74
     0
 42
0.00000001
 43
0.00000001
 40
0.0
 40
0.0
 40
0.0
 40
0.0
 40
0.4813975215779981
 40
1.0
 40
1.0
 40
1.0
 40
1.0
 10
154.9047294975472
 20
202.9690512695356
 30
0.0
 10
154.8825652134911
 20
202.9935775032834
 30
0.0
 10
154.8365236718074
 20
203.0445254883653
 30
0.0
 10
154.7711358863212
 20
203.0658672389534
 30
0.0
 10
154.7372256187095
 20
203.0769351237022
 30
0.0
  0
LINE
  5
8D
330
1F
100
AcDbEntity
  8
0
  6
Continuous
 62
     7
370
    15
100
AcDbLine
 10
162.0704886532
 20
197.4442623167
 30
0.0
 11
161.5310693824
 21
197.4442623167
 31
0.0
  0
SPLINE
  5
8E
330
1F
100
AcDbEntity
  8
0
  6
Continuous
 62
     7
370
    15
100
AcDbSpline
210
0.0
220
0.0
230
1.0
 70
     8
 71
     3
 72
    23
 73
    19
 74
     0
 42
0.00000001
 43
0.00000001
 40
0.0
 40
0.0
 40
0.0
 40
0.0
 40
0.0634397024086812
 40
0.1261149469751419
 40
0.1885165655921465
 40
0.251350430029426
 40
0.3135527823138855
 40
0.3752786195133437
 40
0.4365826433993983
 40
0.4982486573090527
 40
0.559816653179205
 40
0.6211261500687257
 40
0.6831916987735899
 40
0.746222833115471
 40
0.8092823518705424
 40
0.8723773331853616
 40
0.9355927383980389
 40
1.0
 40
1.0
 40
1.0
 40
1.0
 10
163.9669732475472
 20
199.3776545453031
 30
0.0
 10
163.9656255365194
 20
199.3141275685174
 30
0.0
 10
163.9629463545819
 20
199.1878391244574
 30
0.0
 10
163.9325118850034
 20
199.0012174021306
 30
0.0
 10
163.8878028977858
 20
198.8183907997504
 30
0.0
 10
163.8235246654075
 20
198.6418723629914
 30
0.0
 10
163.7444200018586
 20
198.4722793078988
 30
0.0
 10
163.6484651643741
 20
198.313395610128
 30
0.0
 10
163.540347842494
 20
198.1633034371995
 30
0.0
 10
163.418538532873
 20
198.0241062638293
 30
0.0
 10
163.2831136792106
 20
197.8982713270014
 30
0.0
 10
163.1379171790537
 20
197.7831625723452
 30
0.0
 10
162.979584543697
 20
197.6838740481599
 30
0.0
 10
162.8110861153478
 20
197.5996173261281
 30
0.0
 10
162.6353572889045
 20
197.5281059600077
 30
0.0
 10
162.4513444819081
 20
197.4814779489201
 30
0.0
 10
162.2627525586906
 20
197.4496545125093
 30
0.0
 10
162.1349743912613
 20
197.4460708710592
 30
0.0
 10
162.070488653249
 20
197.4442623166847
 30
0.0
  0
LINE
  5
8F
330
1F
100
AcDbEntity
  8
0
  6
Continuous
 62
     7
370
    15
100
AcDbLine
 10
163.9669732475
 20
202.6226873167
 30
0.0
 11
163.9669732475
 21
199.3776545453
 31
0.0
  0
LINE
  5
90
330
1F
100
AcDbEntity
  8
0
  6
Continuous
 62
     7
370
    15
100
AcDbLine
 10
162.7859289493
 20
202.6226873167
 30
0.0
 11
163.9669732475
 21
202.6226873167
 31
0.0
  0
LINE
  5
91
330
1F
100
AcDbEntity
  8
0
  6
Continuous
 62
     7
370
    15
100
AcDbLine
 10
162.7859289493
 20
199.3748154965
 30
0.0
 11
162.7859289493
 21
202.6226873167
 31
0.0
  0
SPLINE
  5
92
330
1F
100
AcDbEntity
  8
0
  6
Continuous
 62
     7
370
    15
100
AcDbSpline
210
0.0
220
0.0
230
1.0
 70
     8
 71
     3
 72
    15
 73
    11
 74
     0
 42
0.00000001
 43
0.00000001
 40
0.0
 40
0.0
 40
0.0
 40
0.0
 40
0.1239333176833993
 40
0.2425241998073558
 40
0.3629032888329901
 40
0.4897054060671301
 40
0.6177784102964646
 40
0.7418956508874208
 40
0.8675835188740612
 40
1.0
 40
1.0
 40
1.0
 40
1.0
 10
162.070488653249
 20
198.6253066149303
 30
0.0
 10
162.1180852025031
 20
198.628121192999
 30
0.0
 10
162.2112265404195
 20
198.6336290201649
 30
0.0
 10
162.3458020570045
 20
198.6748280125774
 30
0.0
 10
162.468379671981
 20
198.7450886469638
 30
0.0
 10
162.5779389841725
 20
198.839771236337
 30
0.0
 10
162.6696768639415
 20
198.9536799706964
 30
0.0
 10
162.7382223570567
 20
199.082396724145
 30
0.0
 10
162.7794731401675
 20
199.2246870165374
 30
0.0
 10
162.7837399353946
 20
199.3239104397354
 30
0.0
 10
162.7859289493016
 20
199.3748154965092
 30
0.0
  0
LINE
  5
93
330
1F
100
AcDbEntity
  8
0
  6
Continuous
 62
     7
370
    15
100
AcDbLine
 10
161.5310693824
 20
198.6253066149
 30
0.0
 11
162.0704886532
 21
198.6253066149
 31
0.0
  0
LINE
  5
94
330
1F
100
AcDbEntity
  8
0
  6
Continuous
 62
     7
370
    15
100
AcDbLine
 10
161.5310693824
 20
197.4442623167
 30
0.0
 11
161.5310693824
 21
198.6253066149
 31
0.0
  0
LINE
  5
95
330
1F
100
AcDbEntity
  8
0
  6
Continuous
 62
     7
370
    15
100
AcDbLine
 10
170.0879624471
 20
197.4442623167
 30
0.0
 11
166.2907346853
 21
197.4442623167
 31
0.0
  0
LINE
  5
96
330
1F
100
AcDbEntity
  8
0
  6
Continuous
 62
     7
370
    15
100
AcDbLine
 10
170.0879624471
 20
198.6253066149
 30
0.0
 11
170.0879624471
 21
197.4442623167
 31
0.0
  0
LINE
  5
97
330
1F
100
AcDbEntity
  8
0
  6
Continuous
 62
     7
370
    15
100
AcDbLine
 10
166.2907346853
 20
198.6253066149
 30
0.0
 11
170.0879624471
 21
198.6253066149
 31
0.0
  0
LINE
  5
98
330
1F
100
AcDbEntity
  8
0
  6
Continuous
 62
     7
370
    15
100
AcDbLine
 10
166.2907346853
 20
197.4442623167
 30
0.0
 11
166.2907346853
 21
198.6253066149
 31
0.0
  0
LINE
  5
99
330
1F
100
AcDbEntity
  8
0
  6
Continuous
 62
     7
370
    15
100
AcDbLine
 10
173.0519293879
 20
204.2579794219
 30
0.0
 11
173.0519293879
 21
202.9860855623
 31
0.0
  0
LINE
  5
9A
330
1F
100
AcDbEntity
  8
0
  6
Continuous
 62
     7
370
    15
100
AcDbLine
 10
171.8708850897
 20
204.2579794219
 30
0.0
 11
173.0519293879
 21
204.2579794219
 31
0.0
  0
LINE
  5
9B
330
1F
100
AcDbEntity
  8
0
  6
Continuous
 62
     7
370
    15
100
AcDbLine
 10
171.8708850897
 20
202.9860855623
 30
0.0
 11
171.8708850897
 21
204.2579794219
 31
0.0
  0
LINE
  5
9C
330
1F
100
AcDbEntity
  8
0
  6
Continuous
 62
     7
370
    15
100
AcDbLine
 10
173.0519293879
 20
202.9860855623
 30
0.0
 11
171.8708850897
 21
202.9860855623
 31
0.0
  0
LINE
  5
9D
330
1F
100
AcDbEntity
  8
0
  6
Continuous
 62
     7
370
    15
100
AcDbLine
 10
175.6241075951
 20
202.6226873167
 30
0.0
 11
176.2330835614
 21
202.6226873167
 31
0.0
  0
SPLINE
  5
9E
330
1F
100
AcDbEntity
  8
0
  6
Continuous
 62
     7
370
    15
100
AcDbSpline
210
0.0
220
0.0
230
1.0
 70
     8
 71
     3
 72
    23
 73
    19
 74
     0
 42
0.00000001
 43
0.00000001
 40
0.0
 40
0.0
 40
0.0
 40
0.0
 40
0.0658127047340777
 40
0.1298204427217536
 40
0.1932469720482251
 40
0.2557827506187862
 40
0.3177324065714905
 40
0.3786052193628104
 40
0.4379506288480029
 40
0.4974221947793363
 40
0.5569604411967202
 40
0.6168880175545107
 40
0.6776865498876711
 40
0.740090003594054
 40
0.8036380564219201
 40
0.8678641077483633
 40
0.932801822068934
 40
0.9999999999999999
 40
0.9999999999999999
 40
0.9999999999999999
 40
0.9999999999999999
 10
173.6878763177226
 20
200.7290417711803
 30
0.0
 10
173.6899787110802
 20
200.7953711577561
 30
0.0
 10
173.6941258379542
 20
200.9262107937433
 30
0.0
 10
173.72132151695
 20
201.1194994030385
 30
0.0
 10
173.7680318948372
 20
201.3055528576324
 30
0.0
 10
173.8341076126265
 20
201.4833740974034
 30
0.0
 10
173.9147008603437
 20
201.6521732624182
 30
0.0
 10
174.0094743352154
 20
201.8097809702105
 30
0.0
 10
174.1185730600859
 20
201.9547359986693
 30
0.0
 10
174.2409102868436
 20
202.0868062386966
 30
0.0
 10
174.3759645402382
 20
202.2068484596232
 30
0.0
 10
174.5247447652496
 20
202.3116229314891
 30
0.0
 10
174.6843223215597
 20
202.4048622972032
 30
0.0
 10
174.8561337651051
 20
202.4824941810751
 30
0.0
 10
175.0376442632374
 20
202.5449246242927
 30
0.0
 10
175.2267371686243
 20
202.5903359952461
 30
0.0
 10
175.4231124543983
 20
202.6183517807885
 30
0.0
 10
175.5563494481301
 20
202.6212257496163
 30
0.0
 10
175.6241075951349
 20
202.6226873166846
 30
0.0
  0
LINE
  5
9F
330
1F
100
AcDbEntity
  8
0
  6
Continuous
 62
     7
370
    15
100
AcDbLine
 10
173.6878763177
 20
199.3279711914
 30
0.0
 11
173.6878763177
 21
200.7290417712
 31
0.0
  0
SPLINE
  5
A0
330
1F
100
AcDbEntity
  8
0
  6
Continuous
 62
     7
370
    15
100
AcDbSpline
210
0.0
220
0.0
230
1.0
 70
     8
 71
     3
 72
    23
 73
    19
 74
     0
 42
0.00000001
 43
0.00000001
 40
0.0
 40
0.0
 40
0.0
 40
0.0
 40
0.0675504078032108
 40
0.1328078001832588
 40
0.1974620233846618
 40
0.2614778458594299
 40
0.3245848263961352
 40
0.385682660252897
 40
0.4461800094259098
 40
0.5060113531793878
 40
0.5657756881893673
 40
0.625413245705047
 40
0.6861822799345014
 40
0.7475872176347256
 40
0.8099882773604831
 40
0.872355437524494
 40
0.9352769517597374
 40
0.9999999999999999
 40
0.9999999999999999
 40
0.9999999999999999
 40
0.9999999999999999
 10
175.6241075951349
 20
197.4442623166847
 30
0.0
 10
175.5563646669691
 20
197.4463628928805
 30
0.0
 10
175.4231783612122
 20
197.4504927406899
 30
0.0
 10
175.226514462582
 20
197.477523598384
 30
0.0
 10
175.0376719843427
 20
197.5251539302571
 30
0.0
 10
174.8556088007497
 20
197.5882153063528
 30
0.0
 10
174.6850896426602
 20
197.6698344355834
 30
0.0
 10
174.5241694000727
 20
197.7620251671652
 30
0.0
 10
174.3764419285538
 20
197.8688322611185
 30
0.0
 10
174.2408461114514
 20
197.9885602933943
 30
0.0
 10
174.1185603060204
 20
198.1207366825971
 30
0.0
 10
174.0098336222605
 20
198.2654385548744
 30
0.0
 10
173.9150796912667
 20
198.4215346079621
 30
0.0
 10
173.8337129398607
 20
198.5881002849025
 30
0.0
 10
173.7686009891649
 20
198.7634291939333
 30
0.0
 10
173.7212358043462
 20
198.9459530496949
 30
0.0
 10
173.6941445296283
 20
199.1350509439283
 30
0.0
 10
173.6899852890824
 20
199.2630622057562
 30
0.0
 10
173.6878763177226
 20
199.3279711914105
 30
0.0
  0
LINE
  5
A1
330
1F
100
AcDbEntity
  8
0
  6
Continuous
 62
     7
370
    15
100
AcDbLine
 10
176.2330835614
 20
197.4442623167
 30
0.0
 11
175.6241075951
 21
197.4442623167
 31
0.0
  0
LINE
  5
A2
330
1F
100
AcDbEntity
  8
0
  6
Continuous
 62
     7
370
    15
100
AcDbLine
 10
176.2330835614
 20
198.6253066149
 30
0.0
 11
176.2330835614
 21
197.4442623167
 31
0.0
  0
LINE
  5
A3
330
1F
100
AcDbEntity
  8
0
  6
Continuous
 62
     7
370
    15
100
AcDbLine
 10
175.6241075951
 20
198.6253066149
 30
0.0
 11
176.2330835614
 21
198.6253066149
 31
0.0
  0
SPLINE
  5
A4
330
1F
100
AcDbEntity
  8
0
  6
Continuous
 62
     7
370
    15
100
AcDbSpline
210
0.0
220
0.0
230
1.0
 70
     8
 71
     3
 72
    15
 73
    11
 74
     0
 42
0.00000001
 43
0.00000001
 40
0.0
 40
0.0
 40
0.0
 40
0.0
 40
0.121119045140189
 40
0.2397478209164834
 40
0.3588373683104855
 40
0.4864321707232654
 40
0.6148705444854129
 40
0.7404115077914437
 40
0.867867189517411
 40
1.0
 40
1.0
 40
1.0
 40
1.0
 10
174.8689206159683
 20
199.3251321426167
 30
0.0
 10
174.8716849469409
 20
199.2789258926597
 30
0.0
 10
174.877156772831
 20
199.1874634168198
 30
0.0
 10
174.9199600794276
 20
199.0559928676128
 30
0.0
 10
174.9905455171091
 20
198.9351078110398
 30
0.0
 10
175.0859747436115
 20
198.8274111197057
 30
0.0
 10
175.202168251637
 20
198.7387711097722
 30
0.0
 10
175.3318107988378
 20
198.6713609657289
 30
0.0
 10
175.4747340447836
 20
198.6324174674994
 30
0.0
 10
175.5737219079536
 20
198.6277052001704
 30
0.0
 10
175.6241075951349
 20
198.6253066149303
 30
0.0
  0
LINE
  5
A5
330
1F
100
AcDbEntity
  8
0
  6
Continuous
 62
     7
370
    15
100
AcDbLine
 10
174.868920616
 20
200.7233636736
 30
0.0
 11
174.868920616
 21
199.3251321426
 31
0.0
  0
SPLINE
  5
A6
330
1F
100
AcDbEntity
  8
0
  6
Continuous
 62
     7
370
    15
100
AcDbSpline
210
0.0
220
0.0
230
1.0
 70
     8
 71
     3
 72
    15
 73
    11
 74
     0
 42
0.00000001
 43
0.00000001
 40
0.0
 40
0.0
 40
0.0
 40
0.0
 40
0.1304782469789304
 40
0.2566661973782944
 40
0.3811981291504504
 40
0.5095374341505713
 40
0.6364564326508793
 40
0.7572540372485475
 40
0.8767368840156795
 40
1.0
 40
1.0
 40
1.0
 40
1.0
 10
175.6241075951349
 20
201.441643018439
 30
0.0
 10
175.5736864368239
 20
201.439377050599
 30
0.0
 10
175.4745020342835
 20
201.4349196229253
 30
0.0
 10
175.3317568289182
 20
201.3939448267618
 30
0.0
 10
175.2015607488503
 20
201.3254693915815
 30
0.0
 10
175.086467967767
 20
201.233613116907
 30
0.0
 10
174.989462245322
 20
201.1243853453963
 30
0.0
 10
174.9203552977511
 20
200.9996806744025
 30
0.0
 10
174.8769244311308
 20
200.8648299230298
 30
0.0
 10
174.8716161097525
 20
200.7710061276335
 30
0.0
 10
174.8689206159682
 20
200.7233636735926
 30
0.0
  0
LINE
  5
A7
330
1F
100
AcDbEntity
  8
0
  6
Continuous
 62
     7
370
    15
100
AcDbLine
 10
176.2330835614
 20
201.4416430184
 30
0.0
 11
175.6241075951
 21
201.4416430184
 31
0.0
  0
LINE
  5
A8
330
1F
100
AcDbEntity
  8
0
  6
Continuous
 62
     7
370
    15
100
AcDbLine
 10
176.2330835614
 20
202.6226873167
 30
0.0
 11
176.2330835614
 21
201.4416430184
 31
0.0
  0
SPLINE
  5
A9
330
1F
100
AcDbEntity
  8
0
  6
Continuous
 62
     7
370
    15
100
AcDbSpline
210
0.0
220
0.0
230
1.0
 70
     8
 71
     3
 72
    11
 73
     7
 74
     0
 42
0.00000001
 43
0.00000001
 40
0.0
 40
0.0
 40
0.0
 40
0.0
 40
0.2308431431366286
 40
0.4737475274254859
 40
0.7298185370493068
 40
1.0
 40
1.0
 40
1.0
 40
1.0
 10
181.0608860353762
 20
202.4551834378469
 30
0.0
 10
181.1075469607826
 20
202.4691462310689
 30
0.0
 10
181.203306781665
 20
202.4978013545221
 30
0.0
 10
181.3543963447118
 20
202.5280493328862
 30
0.0
 10
181.5150478256964
 20
202.5511856628806
 30
0.0
 10
181.6257846903249
 20
202.5590365798626
 30
0.0
 10
181.6826377212314
 20
202.5630672920136
 30
0.0
  0
LINE
  5
AA
330
1F
100
AcDbEntity
  8
0
  6
Continuous
 62
     7
370
    15
100
AcDbLine
 10
181.0466907914
 20
204.2579794219
 30
0.0
 11
181.0608860354
 21
202.4551834378
 31
0.0
  0
LINE
  5
AB
330
1F
100
AcDbEntity
  8
0
  6
Continuous
 62
     7
370
    15
100
AcDbLine
 10
179.8656464932
 20
204.2579794219
 30
0.0
 11
181.0466907914
 21
204.2579794219
 31
0.0
  0
LINE
  5
AC
330
1F
100
AcDbEntity
  8
0
  6
Continuous
 62
     7
370
    15
100
AcDbLine
 10
179.8656464932
 20
197.4442623167
 30
0.0
 11
179.8656464932
 21
204.2579794219
 31
0.0
  0
LINE
  5
AD
330
1F
100
AcDbEntity
  8
0
  6
Continuous
 62
     7
370
    15
100
AcDbLine
 10
181.6826377212
 20
197.4442623167
 30
0.0
 11
179.8656464932
 21
197.4442623167
 31
0.0
  0
LINE
  5
AE
330
1F
100
AcDbEntity
  8
0
  6
Continuous
 62
     7
370
    15
100
AcDbLine
 10
181.6826377212
 20
198.6253066149
 30
0.0
 11
181.6826377212
 21
197.4442623167
 31
0.0
  0
LINE
  5
AF
330
1F
100
AcDbEntity
  8
0
  6
Continuous
 62
     7
370
    15
100
AcDbLine
 10
181.0466907914
 20
198.6253066149
 30
0.0
 11
181.6826377212
 21
198.6253066149
 31
0.0
  0
LINE
  5
B0
330
1F
100
AcDbEntity
  8
0
  6
Continuous
 62
     7
370
    15
100
AcDbLine
 10
181.0466907914
 20
200.6963927101
 30
0.0
 11
181.0466907914
 21
198.6253066149
 31
0.0
  0
SPLINE
  5
B1
330
1F
100
AcDbEntity
  8
0
  6
Continuous
 62
     7
370
    15
100
AcDbSpline
210
0.0
220
0.0
230
1.0
 70
     8
 71
     3
 72
    15
 73
    11
 74
     0
 42
0.00000001
 43
0.00000001
 40
0.0
 40
0.0
 40
0.0
 40
0.0
 40
0.1312767493444146
 40
0.2578477539371242
 40
0.3831088229086363
 40
0.5107463197718843
 40
0.6365962873776932
 40
0.7566720854522679
 40
0.8769608469777745
 40
1.0
 40
1.0
 40
1.0
 40
1.0
 10
181.6826377212314
 20
201.3962182377373
 30
0.0
 10
181.6382375044988
 20
201.3877874887133
 30
0.0
 10
181.5510286406595
 20
201.3712281991917
 30
0.0
 10
181.4282459714114
 20
201.3207284439049
 30
0.0
 10
181.3193725193181
 20
201.2478565883008
 30
0.0
 10
181.2230630049111
 20
201.15946890866
 30
0.0
 10
181.1451747623691
 20
201.0564048725982
 30
0.0
 10
181.0887560957688
 20
200.9433219129782
 30
0.0
 10
181.0529243194036
 20
200.8225208567552
 30
0.0
 10
181.0487842328566
 20
200.7387510487676
 30
0.0
 10
181.0466907914069
 20
200.6963927100509
 30
0.0
  0
LINE
  5
B2
330
1F
100
AcDbEntity
  8
0
  6
Continuous
 62
     7
370
    15
100
AcDbLine
 10
181.6826377212
 20
202.563067292
 30
0.0
 11
181.6826377212
 21
201.3962182377
 31
0.0
  0
LINE
  5
B3
330
1F
100
AcDbEntity
  8
0
  6
Continuous
 62
     7
370
    15
100
AcDbLine
 10
84.9770209828
 20
201.2303066855
 30
0.0
 11
81.7264780826
 21
199.5223339533
 31
0.0
  0
LINE
  5
B4
330
1F
100
AcDbEntity
  8
0
  6
Continuous
 62
     7
370
    15
100
AcDbLine
 10
81.7264780826
 20
199.5223339533
 30
0.0
 11
81.5803544077
 21
195.8532948595
 31
0.0
  0
LINE
  5
B5
330
1F
100
AcDbEntity
  8
0
  6
Continuous
 62
     7
370
    15
100
AcDbLine
 10
81.5803544077
 20
195.8532948595
 30
0.0
 11
86.7591644171
 21
192.5818349798
 31
0.0
  0
SPLINE
  5
B6
330
1F
100
AcDbEntity
  8
0
  6
Continuous
 62
     7
370
    15
100
AcDbSpline
210
0.0
220
0.0
230
1.0
 70
     8
 71
     3
 72
     8
 73
     4
 74
     0
 42
0.00000001
 43
0.00000001
 40
0.9527783502882817
 40
0.9527783502882817
 40
0.9527783502882817
 40
0.9527783502882817
 40
0.9945810945917569
 40
0.9945810945917569
 40
0.9945810945917569
 40
0.9945810945917569
 10
86.75916441709383
 20
192.5818349797533
 30
0.0
 10
85.2138387562422
 20
192.4881670762615
 30
0.0
 10
83.66843659855961
 20
192.3934789622145
 30
0.0
 10
82.12302902527973
 20
192.2986734752183
 30
0.0
  0
ARC
  5
B7
330
1F
100
AcDbEntity
  8
0
  6
Continuous
 62
     7
370
    15
100
AcDbCircle
 10
82.0005660648
 20
194.2949206601
 30
0.0
 40
2.000000000000009
100
AcDbArc
 50
240.0
 51
273.5105013755
  0
LINE
  5
B8
330
1F
100
AcDbEntity
  8
0
  6
Continuous
 62
     7
370
    15
100
AcDbLine
 10
75.3786506191
 20
195.8086842485
 30
0.0
 11
81.0005660648
 21
192.5628698526
 31
0.0
  0
ARC
  5
B9
330
1F
100
AcDbEntity
  8
0
  6
Continuous
 62
     7
370
    15
100
AcDbCircle
 10
76.3786506191
 20
197.5407350561
 30
0.0
 40
2.000000000000009
100
AcDbArc
 50
180.0
 51
240.0
  0
LINE
  5
BA
330
1F
100
AcDbEntity
  8
0
  6
Continuous
 62
     7
370
    15
100
AcDbLine
 10
74.3786506191
 20
203.4798019562
 30
0.0
 11
74.3786506191
 21
197.5407350561
 31
0.0
  0
ARC
  5
BB
330
1F
100
AcDbEntity
  8
0
  6
Continuous
 62
     7
370
    15
100
AcDbCircle
 10
76.3786506191
 20
203.4798019562
 30
0.0
 40
2.000000000000016
100
AcDbArc
 50
120.0
 51
180.0
  0
LINE
  5
BC
330
1F
100
AcDbEntity
  8
0
  6
Continuous
 62
     7
370
    15
100
AcDbLine
 10
81.0579318142
 20
208.4907872906
 30
0.0
 11
75.3786506191
 21
205.2118527638
 31
0.0
  0
ARC
  5
BD
330
1F
100
AcDbEntity
  8
0
  6
Continuous
 62
     7
370
    15
100
AcDbCircle
 10
82.0579318142
 20
206.758736483
 30
0.0
 40
2.000000000000016
100
AcDbArc
 50
90.0
 51
120.0
  0
LINE
  5
BE
330
1F
100
AcDbEntity
  8
0
  6
Continuous
 62
     7
370
    15
100
AcDbLine
 10
191.5220334293
 20
208.758736483
 30
0.0
 11
82.0579318142
 21
208.758736483
 31
0.0
  0
LINE
  5
BF
330
1F
100
AcDbEntity
  8
0
  6
Continuous
 62
     7
370
    15
100
AcDbLine
 10
191.5220334293
 20
208.758736483
 30
0.0
 11
202.5494206357
 21
208.7667821921
 31
0.0
  0
ARC
  5
C0
330
1F
100
AcDbEntity
  8
0
  6
Continuous
 62
     7
370
    15
100
AcDbCircle
 10
202.5508798585
 20
206.7667827245
 30
0.0
 40
2.000000000000019
100
AcDbArc
 50
30.0418036554
 51
90.0418036554
  0
LINE
  5
C1
330
1F
100
AcDbEntity
  8
0
  6
Continuous
 62
     7
370
    15
100
AcDbLine
 10
204.2822005936
 20
207.7680461823
 30
0.0
 11
209.2247822585
 21
199.2216500712
 31
0.0
  0
ARC
  5
C2
330
1F
100
AcDbEntity
  8
0
  6
Continuous
 62
     7
370
    15
100
AcDbCircle
 10
207.4934615233
 20
198.2203866135
 30
0.0
 40
2.000000000000017
100
AcDbArc
 50
330.0418036554
 51
30.0418036554
  0
LINE
  5
C3
330
1F
100
AcDbEntity
  8
0
  6
Continuous
 62
     7
370
    15
100
AcDbLine
 10
209.2262414812
 20
197.2216506036
 30
0.0
 11
204.2961361707
 21
188.668051266
 31
0.0
  0
ARC
  5
C4
330
1F
100
AcDbEntity
  8
0
  6
Continuous
 62
     7
370
    15
100
AcDbCircle
 10
202.5633562127
 20
189.6667872759
 30
0.0
 40
2.000000000000028
100
AcDbArc
 50
270.0418036554
 51
330.0418036554
  0
LINE
  5
C5
330
1F
100
AcDbEntity
  8
0
  6
Continuous
 62
     7
370
    15
100
AcDbLine
 10
202.5648154355
 20
187.6667878083
 30
0.0
 11
191.5374282291
 21
187.6587420991
 31
0.0
  0
SPLINE
  5
C6
330
1F
100
AcDbEntity
  8
0
  6
Continuous
 62
     7
370
    15
100
AcDbSpline
210
0.0
220
0.0
230
1.0
 70
     8
 71
     3
 72
     9
 73
     5
 74
     0
 42
0.00000001
 43
0.00000001
 40
0.0
 40
0.0
 40
0.0
 40
0.0
 40
0.2775334838061939
 40
0.8544073493935668
 40
0.8544073493935668
 40
0.8544073493935668
 40
0.8544073493935668
 10
191.5374282290663
 20
187.6587420991156
 30
0.0
 10
181.4713469296651
 20
189.5074625352246
 30
0.0
 10
150.4821714116315
 20
195.1988850833185
 30
0.0
 10
118.9813809167456
 20
194.371737604124
 30
0.0
 10
97.66643517367882
 20
193.2143843786664
 30
0.0
  0
LINE
  5
C7
330
1F
100
AcDbEntity
  8
0
  6
Continuous
 62
     7
370
    15
100
AcDbLine
 10
97.6664351737
 20
193.2143843787
 30
0.0
 11
84.9770209828
 21
201.2303066855
 31
0.0
  0
LINE
  5
C8
330
1F
100
AcDbEntity
  8
0
  6
Continuous
 62
     7
370
    15
100
AcDbLine
 10
94.2716982649
 20
199.2794753051
 30
0.0
 11
97.5943804994
 21
200.8288674767
 31
0.0
  0
LINE
  5
C9
330
1F
100
AcDbEntity
  8
0
  6
Continuous
 62
     7
370
    15
100
AcDbLine
 10
97.5943804994
 20
200.8288674767
 30
0.0
 11
97.9139086357
 21
204.4810907863
 31
0.0
  0
LINE
  5
CA
330
1F
100
AcDbEntity
  8
0
  6
Continuous
 62
     7
370
    15
100
AcDbLine
 10
97.9139086357
 20
204.4810907863
 30
0.0
 11
94.9107545374
 21
206.5839219244
 31
0.0
  0
LINE
  5
CB
330
1F
100
AcDbEntity
  8
0
  6
Continuous
 62
     7
370
    15
100
AcDbLine
 10
94.9107545374
 20
206.5839219244
 30
0.0
 11
91.5880723028
 21
205.0345297528
 31
0.0
  0
LINE
  5
CC
330
1F
100
AcDbEntity
  8
0
  6
Continuous
 62
     7
370
    15
100
AcDbLine
 10
91.5880723028
 20
205.0345297528
 30
0.0
 11
91.2685441666
 21
201.3823064431
 31
0.0
  0
LINE
  5
CD
330
1F
100
AcDbEntity
  8
0
  6
Continuous
 62
     7
370
    15
100
AcDbLine
 10
91.2685441666
 20
201.3823064431
 30
0.0
 11
94.2716982649
 21
199.2794753051
 31
0.0
  0
SPLINE
  5
CE
330
1F
100
AcDbEntity
  8
0
  6
Continuous
 62
     7
370
    15
100
AcDbSpline
210
0.0
220
0.0
230
1.0
 70
     8
 71
     3
 72
    23
 73
    19
 74
     0
 42
0.00000001
 43
0.00000001
 40
0.0
 40
0.0
 40
0.0
 40
0.0
 40
0.0546632006848315
 40
0.1098108231335665
 40
0.1655525239245193
 40
0.2233863563955637
 40
0.2819781570366705
 40
0.3410713590708395
 40
0.401350910702651
 40
0.4628684002856576
 40
0.5255713178649661
 40
0.5892775012365681
 40
0.6542200422477998
 40
0.7214035789499161
 40
0.7896290653709832
 40
0.8583676824783784
 40
0.9285918620467288
 40
1.0
 40
1.0
 40
1.0
 40
1.0
 10
173.0519293878981
 20
197.6444152566518
 30
0.0
 10
173.0498042238286
 20
197.5827440593559
 30
0.0
 10
173.0455350626224
 20
197.4588551385855
 30
0.0
 10
173.0087960972396
 20
197.2749707211637
 30
0.0
 10
172.9477125953816
 20
197.0945030597353
 30
0.0
 10
172.8664712153915
 20
196.9176361869033
 30
0.0
 10
172.7610660387539
 20
196.7498079287692
 30
0.0
 10
172.6428460950567
 20
196.5872490160917
 30
0.0
 10
172.5018631344485
 20
196.4393040005926
 30
0.0
 10
172.3477139858608
 20
196.2993011324713
 30
0.0
 10
172.176645934673
 20
196.1737482019656
 30
0.0
 10
171.9933771018805
 20
196.0594945994554
 30
0.0
 10
171.7959030191487
 20
195.9601473643175
 30
0.0
 10
171.5870115613045
 20
195.8736599305874
 30
0.0
 10
171.367316854989
 20
195.8038928249306
 30
0.0
 10
171.1387708471777
 20
195.7543175561632
 30
0.0
 10
170.9031285869669
 20
195.7237441103416
 30
0.0
 10
170.7434011550076
 20
195.7200055541301
 30
0.0
 10
170.6628698278652
 20
195.718120650018
 30
0.0
  0
DIMENSION
  5
CF
330
1F
100
AcDbEntity
  8
0
  6
Continuous
 62
     7
370
     0
100
AcDbDimension
  2
*D2
 10
74.3786506191
 20
177.6587420991
 30
0.0
 11
140.3798799121
 21
177.6587420991
 31
0.0
 70
   160
 71
     2
 42
-1.0
  3
SLDDIMSTYLE0
100
AcDbAlignedDimension
 13
209.4934609909
 23
198.2218458362
 33
0.0
 14
74.3786506191
 24
197.5407350561
 34
0.0
 50
0.0
100
AcDbRotatedDimension
  0
DIMENSION
  5
DB
330
1F
100
AcDbEntity
  8
0
  6
Continuous
 62
     7
370
     0
100
AcDbDimension
  2
*D3
 10
69.2190136889
 20
203.311390396
 30
0.0
 11
70.7907829121
 21
221.2767948253
 31
0.0
 70
   160
 71
     2
 42
-1.0
  3
SLDDIMSTYLE1
100
AcDbAlignedDimension
 13
91.5880723028
 23
205.0345297528
 33
0.0
 14
91.2685441666
 24
201.3823064431
 34
0.0
 50
85.0
100
AcDbRotatedDimension
  0
DIMENSION
  5
E8
330
1F
100
AcDbEntity
  8
0
  6
Continuous
 62
     7
370
     0
100
AcDbDimension
  2
*D4
 10
88.3374456481
 20
212.0055211098
 30
0.0
 11
108.2197562929
 21
221.2767948253
 31
0.0
 70
   160
 71
     2
 42
-1.0
  3
SLDDIMSTYLE1
100
AcDbAlignedDimension
 13
94.9107545374
 23
206.5839219244
 33
0.0
 14
91.5880723028
 24
205.0345297528
 34
0.0
 50
25.0
100
AcDbRotatedDimension
  0
DIMENSION
  5
F4
330
1F
100
AcDbEntity
  8
0
  6
Continuous
 62
     7
370
     0
100
AcDbDimension
  2
*D5
 10
249.5012155036
 20
187.7010331481
 30
0.0
 11
249.4934615233
 21
198.3285790535
 31
0.0
 70
   160
 71
     2
 42
-1.0
  3
SLDDIMSTYLE2
100
AcDbAlignedDimension
 13
202.5494206357
 23
208.7667821921
 33
0.0
 14
202.5648154355
 24
187.6667878083
 34
0.0
 50
-89.9581963446
100
AcDbRotatedDimension
  0
SPLINE
  5
100
330
1F
100
AcDbEntity
  8
0
  6
Continuous
 62
     7
370
    15
100
AcDbSpline
210
0.0
220
0.0
230
1.0
 70
    24
 71
     1
 72
     4
 73
     2
 74
     0
 42
0.00000001
 43
0.00000001
 40
0.0
 40
0.0
 40
1.0
 40
1.0
 10
209.4934615232819
 20
139.5834954142302
 30
0.0
 10
209.4934615232819
 20
145.9434954142301
 30
0.0
  0
LINE
  5
101
330
1F
100
AcDbEntity
  8
0
  6
Continuous
 62
     7
370
    15
100
AcDbLine
 10
204.2822005936
 20
139.5834954142
 30
0.0
 11
204.2822005936
 21
145.9434954142
 31
0.0
  0
LINE
  5
102
330
1F
100
AcDbEntity
  8
0
  6
Continuous
 62
     7
370
    15
100
AcDbLine
 10
204.2822005936
 20
139.5834954142
 30
0.0
 11
202.5494206357
 21
139.5834954142
 31
0.0
  0
LINE
  5
103
330
1F
100
AcDbEntity
  8
0
  6
Continuous
 62
     7
370
    15
100
AcDbLine
 10
202.5494206357
 20
139.5834954142
 30
0.0
 11
202.5494206357
 21
145.9434954142
 31
0.0
  0
LINE
  5
104
330
1F
100
AcDbEntity
  8
0
  6
Continuous
 62
     7
370
    15
100
AcDbLine
 10
204.2822005936
 20
145.9434954142
 30
0.0
 11
202.5494206357
 21
145.9434954142
 31
0.0
  0
LINE
  5
105
330
1F
100
AcDbEntity
  8
0
  6
Continuous
 62
     7
370
    15
100
AcDbLine
 10
191.5220334293
 20
139.5834954142
 30
0.0
 11
191.5220334293
 21
145.9434954142
 31
0.0
  0
LINE
  5
106
330
1F
100
AcDbEntity
  8
0
  6
Continuous
 62
     7
370
    15
100
AcDbLine
 10
191.5220334293
 20
139.5834954142
 30
0.0
 11
202.5494206357
 21
139.5834954142
 31
0.0
  0
LINE
  5
107
330
1F
100
AcDbEntity
  8
0
  6
Continuous
 62
     7
370
    15
100
AcDbLine
 10
191.5220334293
 20
145.9434954142
 30
0.0
 11
202.5494206357
 21
145.9434954142
 31
0.0
  0
LINE
  5
108
330
1F
100
AcDbEntity
  8
0
  6
Continuous
 62
     7
370
    15
100
AcDbLine
 10
82.0579318142
 20
139.5834954142
 30
0.0
 11
82.0579318142
 21
145.9434954142
 31
0.0
  0
LINE
  5
109
330
1F
100
AcDbEntity
  8
0
  6
Continuous
 62
     7
370
    15
100
AcDbLine
 10
191.5220334293
 20
139.5834954142
 30
0.0
 11
82.0579318142
 21
139.5834954142
 31
0.0
  0
LINE
  5
10A
330
1F
100
AcDbEntity
  8
0
  6
Continuous
 62
     7
370
    15
100
AcDbLine
 10
191.5220334293
 20
145.9434954142
 30
0.0
 11
82.0579318142
 21
145.9434954142
 31
0.0
  0
LINE
  5
10B
330
1F
100
AcDbEntity
  8
0
  6
Continuous
 62
     7
370
    15
100
AcDbLine
 10
81.0579318142
 20
139.5834954142
 30
0.0
 11
81.0579318142
 21
145.9434954142
 31
0.0
  0
LINE
  5
10C
330
1F
100
AcDbEntity
  8
0
  6
Continuous
 62
     7
370
    15
100
AcDbLine
 10
82.0579318142
 20
139.5834954142
 30
0.0
 11
81.0579318142
 21
139.5834954142
 31
0.0
  0
LINE
  5
10D
330
1F
100
AcDbEntity
  8
0
  6
Continuous
 62
     7
370
    15
100
AcDbLine
 10
82.0579318142
 20
145.9434954142
 30
0.0
 11
81.0579318142
 21
145.9434954142
 31
0.0
  0
LINE
  5
10E
330
1F
100
AcDbEntity
  8
0
  6
Continuous
 62
     7
370
    15
100
AcDbLine
 10
75.3786506191
 20
139.5834954142
 30
0.0
 11
75.3786506191
 21
145.9434954142
 31
0.0
  0
LINE
  5
10F
330
1F
100
AcDbEntity
  8
0
  6
Continuous
 62
     7
370
    15
100
AcDbLine
 10
81.0579318142
 20
139.5834954142
 30
0.0
 11
75.3786506191
 21
139.5834954142
 31
0.0
  0
LINE
  5
110
330
1F
100
AcDbEntity
  8
0
  6
Continuous
 62
     7
370
    15
100
AcDbLine
 10
81.0579318142
 20
145.9434954142
 30
0.0
 11
75.3786506191
 21
145.9434954142
 31
0.0
  0
LINE
  5
111
330
1F
100
AcDbEntity
  8
0
  6
Continuous
 62
     7
370
    15
100
AcDbLine
 10
209.2247822585
 20
139.5834954142
 30
0.0
 11
209.2247822585
 21
145.9434954142
 31
0.0
  0
LINE
  5
112
330
1F
100
AcDbEntity
  8
0
  6
Continuous
 62
     7
370
    15
100
AcDbLine
 10
204.2822005936
 20
139.5834954142
 30
0.0
 11
209.2247822585
 21
139.5834954142
 31
0.0
  0
LINE
  5
113
330
1F
100
AcDbEntity
  8
0
  6
Continuous
 62
     7
370
    15
100
AcDbLine
 10
204.2822005936
 20
145.9434954142
 30
0.0
 11
209.2247822585
 21
145.9434954142
 31
0.0
  0
LINE
  5
114
330
1F
100
AcDbEntity
  8
0
  6
Continuous
 62
     7
370
    15
100
AcDbLine
 10
74.3786506191
 20
139.5834954142
 30
0.0
 11
74.3786506191
 21
145.9434954142
 31
0.0
  0
LINE
  5
115
330
1F
100
AcDbEntity
  8
0
  6
Continuous
 62
     7
370
    15
100
AcDbLine
 10
74.3786506191
 20
139.5834954142
 30
0.0
 11
75.3786506191
 21
139.5834954142
 31
0.0
  0
LINE
  5
116
330
1F
100
AcDbEntity
  8
0
  6
Continuous
 62
     7
370
    15
100
AcDbLine
 10
74.3786506191
 20
145.9434954142
 30
0.0
 11
75.3786506191
 21
145.9434954142
 31
0.0
  0
LINE
  5
117
330
1F
100
AcDbEntity
  8
0
  6
Continuous
 62
     7
370
    15
100
AcDbLine
 10
209.4934615233
 20
139.5834954142
 30
0.0
 11
209.2247822585
 21
139.5834954142
 31
0.0
  0
LINE
  5
118
330
1F
100
AcDbEntity
  8
0
  6
Continuous
 62
     7
370
    15
100
AcDbLine
 10
209.4934615233
 20
145.9434954142
 30
0.0
 11
209.2247822585
 21
145.9434954142
 31
0.0
  0
LINE
  5
119
330
1F
100
AcDbEntity
  8
0
  6
Continuous
 62
     7
370
    15
100
AcDbLine
 10
81.5803544077
 20
139.5834954142
 30
0.0
 11
86.7591644171
 21
139.5834954142
 31
0.0
  0
LINE
  5
11A
330
1F
100
AcDbEntity
  8
0
  6
Continuous
 62
     7
370
    15
100
AcDbLine
 10
81.5803544077
 20
145.9434954142
 30
0.0
 11
86.759161087
 21
145.9434954142
 31
0.0
  0
SPLINE
  5
11B
330
1F
100
AcDbEntity
  8
0
  6
Continuous
 62
     7
370
    15
100
AcDbSpline
210
0.0
220
0.0
230
1.0
 70
    24
 71
     1
 72
     4
 73
     2
 74
     0
 42
0.00000001
 43
0.00000001
 40
0.0
 40
0.0
 40
1.0
 40
1.0
 10
289.7537750608403
 20
128.6666470956398
 30
0.0
 10
285.2565759324938
 20
131.262824891236
 30
0.0
  0
SPLINE
  5
11C
330
1F
100
AcDbEntity
  8
0
  6
Continuous
 62
     7
370
    15
100
AcDbSpline
210
0.0
220
0.0
230
1.0
 70
    24
 71
     1
 72
     4
 73
     2
 74
     0
 42
0.00000001
 43
0.00000001
 40
0.0
 40
0.0
 40
1.0
 40
1.0
 10
270.357173654942
 20
116.714430903113
 30
0.0
 10
270.0523578061266
 20
116.890397347083
 30
0.0
  0
SPLINE
  5
11D
330
1F
100
AcDbEntity
  8
0
  6
Continuous
 62
     7
370
    15
100
AcDbSpline
210
0.0
220
0.0
230
1.0
 70
    24
 71
     1
 72
     4
 73
     2
 74
     0
 42
0.00000001
 43
0.00000001
 40
0.0
 40
0.0
 40
1.0
 40
1.0
 10
267.8303328088413
 20
114.3949747715265
 30
0.0
 10
266.8433016464211
 20
114.9647757330372
 30
0.0
  0
SPLINE
  5
11E
330
1F
100
AcDbEntity
  8
0
  6
Continuous
 62
     7
370
    15
100
AcDbSpline
210
0.0
220
0.0
230
1.0
 70
    24
 71
     1
 72
     4
 73
     2
 74
     0
 42
0.00000001
 43
0.00000001
 40
0.0
 40
0.0
 40
1.0
 40
1.0
 10
264.8242988447644
 20
111.848296903911
 30
0.0
 10
265.6471649723361
 20
111.3732663997724
 30
0.0
  0
SPLINE
  5
11F
330
1F
100
AcDbEntity
  8
0
  6
Continuous
 62
     7
370
    15
100
AcDbSpline
210
0.0
220
0.0
230
1.0
 70
    24
 71
     1
 72
     4
 73
     2
 74
     0
 42
0.00000001
 43
0.00000001
 40
0.0
 40
0.0
 40
1.0
 40
1.0
 10
254.0423607116537
 20
105.6217739930225
 30
0.0
 10
254.8407351204672
 20
105.1608822571709
 30
0.0
  0
SPLINE
  5
120
330
1F
100
AcDbEntity
  8
0
  6
Continuous
 62
     7
370
    15
100
AcDbSpline
210
0.0
220
0.0
230
1.0
 70
    24
 71
     1
 72
     4
 73
     2
 74
     0
 42
0.00000001
 43
0.00000001
 40
0.0
 40
0.0
 40
1.0
 40
1.0
 10
252.1302839884529
 20
107.4235034331881
 30
0.0
 10
252.3512974366826
 20
107.2959150853195
 30
0.0
  0
SPLINE
  5
121
330
1F
100
AcDbEntity
  8
0
  6
Continuous
 62
     7
370
    15
100
AcDbSpline
210
0.0
220
0.0
230
1.0
 70
    24
 71
     1
 72
     4
 73
     2
 74
     0
 42
0.00000001
 43
0.00000001
 40
0.0
 40
0.0
 40
1.0
 40
1.0
 10
250.5950913666809
 20
106.9651932390684
 30
0.0
 10
250.5439684515241
 20
106.9947058697945
 30
0.0
  0
SPLINE
  5
122
330
1F
100
AcDbEntity
  8
0
  6
Continuous
 62
     7
370
    15
100
AcDbSpline
210
0.0
220
0.0
230
1.0
 70
    24
 71
     1
 72
     4
 73
     2
 74
     0
 42
0.00000001
 43
0.00000001
 40
0.0
 40
0.0
 40
1.0
 40
1.0
 10
194.0394995746327
 20
68.76116926919457
 30
0.0
 10
198.5366987029792
 20
66.16499147359835
 30
0.0
  0
LINE
  5
123
330
1F
100
AcDbEntity
  8
0
  6
Continuous
 62
     7
370
    15
100
AcDbLine
 10
270.7984373112
 20
114.1492438156
 30
0.0
 11
269.9030875594
 21
113.6323694059
 31
0.0
  0
SPLINE
  5
124
330
1F
100
AcDbEntity
  8
0
  6
Continuous
 62
     7
370
    15
100
AcDbSpline
210
0.0
220
0.0
230
1.0
 70
     8
 71
     3
 72
    23
 73
    19
 74
     0
 42
0.00000001
 43
0.00000001
 40
0.0
 40
0.0
 40
0.0
 40
0.0
 40
0.0648015416815813
 40
0.1283309054687194
 40
0.1908923274384344
 40
0.2539943247366537
 40
0.3161344773332527
 40
0.3775212325760639
 40
0.4378700760373815
 40
0.4991238954174393
 40
0.560183331200872
 40
0.6211982494968044
 40
0.6828187897649015
 40
0.7456060170668731
 40
0.8083770135218016
 40
0.8717386356551089
 40
0.9351984583184227
 40
1.0
 40
1.0
 40
1.0
 40
1.0
 10
272.1585257794208
 20
116.4678949511715
 30
0.0
 10
272.1571031827597
 20
116.4144495471556
 30
0.0
 10
272.154285917724
 20
116.3086079743701
 30
0.0
 10
272.1340028040083
 20
116.1432490733138
 30
0.0
 10
272.0992679197554
 20
115.9746359214333
 30
0.0
 10
272.0523037123202
 20
115.8047652740348
 30
0.0
 10
271.9942278347289
 20
115.6350518259149
 30
0.0
 10
271.9247089995835
 20
115.4687317209184
 30
0.0
 10
271.845633551494
 20
115.3055824724907
 30
0.0
 10
271.7564883675067
 20
115.1469750914444
 30
0.0
 10
271.6587865010095
 20
114.9932401398417
 30
0.0
 10
271.5542074060879
 20
114.8448755388309
 30
0.0
 10
271.4407598592761
 20
114.7048045590611
 30
0.0
 10
271.3223561504849
 20
114.5696903195275
 30
0.0
 10
271.1971226183122
 20
114.4454011081282
 30
0.0
 10
271.0678869064493
 20
114.3321091753123
 30
0.0
 10
270.9341792801845
 20
114.232777257714
 30
0.0
 10
270.8439990870851
 20
114.1772818056027
 30
0.0
 10
270.7984373111612
 20
114.1492438155852
 30
0.0
  0
SPLINE
  5
125
330
1F
100
AcDbEntity
  8
0
  6
Continuous
 62
     7
370
    15
100
AcDbSpline
210
0.0
220
0.0
230
1.0
 70
     8
 71
     3
 72
    15
 73
    11
 74
     0
 42
0.00000001
 43
0.00000001
 40
0.0
 40
0.0
 40
0.0
 40
0.0
 40
0.1288085836301522
 40
0.2553873514417563
 40
0.378949647506822
 40
0.5017800585190766
 40
0.6237769885972692
 40
0.745423324074702
 40
0.8713065988874156
 40
1.0
 40
1.0
 40
1.0
 40
1.0
 10
271.7901475743645
 20
117.2010600164979
 30
0.0
 10
271.8170428325996
 20
117.1830482984812
 30
0.0
 10
271.8703677630771
 20
117.1473366647564
 30
0.0
 10
271.9413898960168
 20
117.081580733515
 30
0.0
 10
272.0040458047968
 20
117.0068649317883
 30
0.0
 10
272.0586488833052
 20
116.9237562791771
 30
0.0
 10
272.1032987197106
 20
116.8299217675683
 30
0.0
 10
272.1360422680884
 20
116.7230180066777
 30
0.0
 10
272.1553141750136
 20
116.6020682513
 30
0.0
 10
272.1574473954848
 20
116.5129473029373
 30
0.0
 10
272.1585257794208
 20
116.4678949511715
 30
0.0
  0
LINE
  5
126
330
1F
100
AcDbEntity
  8
0
  6
Continuous
 62
     7
370
    15
100
AcDbLine
 10
270.659919076
 20
117.8780802378
 30
0.0
 11
271.7901475744
 21
117.2010600165
 31
0.0
  0
SPLINE
  5
127
330
1F
100
AcDbEntity
  8
0
  6
Continuous
 62
     7
370
    15
100
AcDbSpline
210
0.0
220
0.0
230
1.0
 70
     8
 71
     3
 72
    15
 73
    11
 74
     0
 42
0.00000001
 43
0.00000001
 40
0.0
 40
0.0
 40
0.0
 40
0.0
 40
0.1286255797137288
 40
0.252860428728628
 40
0.3763427208620718
 40
0.4981076688548707
 40
0.6200482707879691
 40
0.7432562756625821
 40
0.8695197628586094
 40
1.0
 40
1.0
 40
1.0
 40
1.0
 10
269.9030875593623
 20
117.8422191659853
 30
0.0
 10
269.9396367699073
 20
117.8602429014304
 30
0.0
 10
270.0114875562648
 20
117.8956751185839
 30
0.0
 10
270.1170553996607
 20
117.9340218098211
 30
0.0
 10
270.2184509298213
 20
117.9593990714668
 30
0.0
 10
270.3153456757497
 20
117.9694018868807
 30
0.0
 10
270.4081147707697
 20
117.9671315482371
 30
0.0
 10
270.4969903703972
 20
117.9519562979642
 30
0.0
 10
270.5819399314975
 20
117.9231865985454
 30
0.0
 10
270.6336429715373
 20
117.8932794228757
 30
0.0
 10
270.6599190760174
 20
117.8780802378374
 30
0.0
  0
LINE
  5
128
330
1F
100
AcDbEntity
  8
0
  6
Continuous
 62
     7
370
    15
100
AcDbLine
 10
269.9030875594
 20
116.880166495
 30
0.0
 11
269.9030875594
 21
117.842219166
 31
0.0
  0
SPLINE
  5
129
330
1F
100
AcDbEntity
  8
0
  6
Continuous
 62
     7
370
    15
100
AcDbSpline
210
0.0
220
0.0
230
1.0
 70
     8
 71
     3
 72
    11
 73
     7
 74
     0
 42
0.00000001
 43
0.00000001
 40
0.0
 40
0.0
 40
0.0
 40
0.0
 40
0.2503934032968506
 40
0.4960392893198273
 40
0.7426791941169999
 40
1.0
 40
1.0
 40
1.0
 40
1.0
 10
270.0626846563758
 20
116.8842083681497
 30
0.0
 10
270.0520803771501
 20
116.8906818833922
 30
0.0
 10
270.0310728783039
 20
116.9035061745197
 30
0.0
 10
269.9919162901637
 20
116.9073680422572
 30
0.0
 10
269.9490268447731
 20
116.9008422184646
 30
0.0
 10
269.9186154996661
 20
116.8871550974072
 30
0.0
 10
269.9030875593623
 20
116.8801664950299
 30
0.0
  0
LINE
  5
12A
330
1F
100
AcDbEntity
  8
0
  6
Continuous
 62
     7
370
    15
100
AcDbLine
 10
271.2702023149
 20
116.1880557511
 30
0.0
 11
270.0626846564
 21
116.8842083681
 31
0.0
  0
SPLINE
  5
12B
330
1F
100
AcDbEntity
  8
0
  6
Continuous
 62
     7
370
    15
100
AcDbSpline
210
0.0
220
0.0
230
1.0
 70
     8
 71
     3
 72
    11
 73
     7
 74
     0
 42
0.00000001
 43
0.00000001
 40
0.0
 40
0.0
 40
0.0
 40
0.0
 40
0.2629893246649706
 40
0.5166196249788703
 40
0.7631841710127176
 40
1.0
 40
1.0
 40
1.0
 40
1.0
 10
271.3324351451938
 20
116.0072303734131
 30
0.0
 10
271.3320546744857
 20
116.0275804678998
 30
0.0
 10
271.3313072729145
 20
116.0675564562612
 30
0.0
 10
271.3195437891408
 20
116.1188793992563
 30
0.0
 10
271.3021532249654
 20
116.1635750621678
 30
0.0
 10
271.2807084536683
 20
116.1800059799037
 30
0.0
 10
271.2702023149118
 20
116.1880557510689
 30
0.0
  0
SPLINE
  5
12C
330
1F
100
AcDbEntity
  8
0
  6
Continuous
 62
     7
370
    15
100
AcDbSpline
210
0.0
220
0.0
230
1.0
 70
     8
 71
     3
 72
    15
 73
    11
 74
     0
 42
0.00000001
 43
0.00000001
 40
0.0
 40
0.0
 40
0.0
 40
0.0
 40
0.1306943821933653
 40
0.2570913609966864
 40
0.3807418917560768
 40
0.5092937888460585
 40
0.6364230267202994
 40
0.758024214260808
 40
0.87653270055505
 40
1.0
 40
1.0
 40
1.0
 40
1.0
 10
270.7984373111612
 20
115.1136146857477
 30
0.0
 10
270.8340821907375
 20
115.1360599394193
 30
0.0
 10
270.9041998993112
 20
115.1802124172649
 30
0.0
 10
271.0049664643979
 20
115.2714940187839
 30
0.0
 10
271.0963595492084
 20
115.3808522231341
 30
0.0
 10
271.1776990102687
 20
115.5023263955007
 30
0.0
 10
271.2460211967702
 20
115.6313973645094
 30
0.0
 10
271.2960349468595
 20
115.7611019297706
 30
0.0
 10
271.3268500445606
 20
115.8888651658145
 30
0.0
 10
271.3305481829819
 20
115.9672399258635
 30
0.0
 10
271.3324351451938
 20
116.0072303734131
 30
0.0
  0
LINE
  5
12D
330
1F
100
AcDbEntity
  8
0
  6
Continuous
 62
     7
370
    15
100
AcDbLine
 10
269.9030875594
 20
114.596740276
 30
0.0
 11
270.7984373112
 21
115.1136146857
 31
0.0
  0
LINE
  5
12E
330
1F
100
AcDbEntity
  8
0
  6
Continuous
 62
     7
370
    15
100
AcDbLine
 10
269.9030875594
 20
113.6323694059
 30
0.0
 11
269.9030875594
 21
114.596740276
 31
0.0
  0
LINE
  5
12F
330
1F
100
AcDbEntity
  8
0
  6
Continuous
 62
     7
370
    15
100
AcDbLine
 10
266.4953382238
 20
114.9291420722
 30
0.0
 11
266.0998586249
 21
114.7008365593
 31
0.0
  0
SPLINE
  5
130
330
1F
100
AcDbEntity
  8
0
  6
Continuous
 62
     7
370
    15
100
AcDbSpline
210
0.0
220
0.0
230
1.0
 70
     8
 71
     3
 72
    15
 73
    11
 74
     0
 42
0.00000001
 43
0.00000001
 40
0.0
 40
0.0
 40
0.0
 40
0.0
 40
0.1272964691726118
 40
0.2500742175560615
 40
0.3737260256535148
 40
0.5008455887878617
 40
0.6276359572817722
 40
0.7507797389469606
 40
0.8727035308273804
 40
1.0
 40
1.0
 40
1.0
 40
1.0
 10
266.9952083766701
 20
114.6312065696805
 30
0.0
 10
266.9935400413924
 20
114.6690938303743
 30
0.0
 10
266.990262592757
 20
114.7435234444471
 30
0.0
 10
266.9621284129994
 20
114.837643757644
 30
0.0
 10
266.9149486090781
 20
114.9111326183174
 30
0.0
 10
266.8518665466176
 20
114.964539714392
 30
0.0
 10
266.7761451782023
 20
114.9965333041789
 30
0.0
 10
266.6897056000774
 20
115.0017472309426
 30
0.0
 10
266.5949477148479
 20
114.981372250877
 30
0.0
 10
266.5290151775144
 20
114.9468005632798
 30
0.0
 10
266.49533822376
 20
114.9291420721689
 30
0.0
  0
LINE
  5
131
330
1F
100
AcDbEntity
  8
0
  6
Continuous
 62
     7
370
    15
100
AcDbLine
 10
266.9952083767
 20
113.4894934602
 30
0.0
 11
266.9952083767
 21
114.6312065697
 31
0.0
  0
SPLINE
  5
132
330
1F
100
AcDbEntity
  8
0
  6
Continuous
 62
     7
370
    15
100
AcDbSpline
210
0.0
220
0.0
230
1.0
 70
     8
 71
     3
 72
    15
 73
    11
 74
     0
 42
0.00000001
 43
0.00000001
 40
0.0
 40
0.0
 40
0.0
 40
0.0
 40
0.1289927156550996
 40
0.2521732287160581
 40
0.376341336995308
 40
0.5031661703433565
 40
0.630982723977131
 40
0.7528971889734322
 40
0.8748454955984161
 40
1.0
 40
1.0
 40
1.0
 40
1.0
 10
266.49533822376
 20
112.6294884587044
 30
0.0
 10
266.5289880335853
 20
112.6508052436338
 30
0.0
 10
266.5947714473716
 20
112.6924783137306
 30
0.0
 10
266.6896728064431
 20
112.7799213864684
 30
0.0
 10
266.7757045258749
 20
112.883815112815
 30
0.0
 10
266.8522246487353
 20
113.0011224944843
 30
0.0
 10
266.9142178039866
 20
113.1254242959911
 30
0.0
 10
266.9624028530276
 20
113.2508975805643
 30
0.0
 10
266.9901097174226
 20
113.3744803197962
 30
0.0
 10
266.9934941855856
 20
113.450825549599
 30
0.0
 10
266.9952083766701
 20
113.4894934601732
 30
0.0
  0
LINE
  5
133
330
1F
100
AcDbEntity
  8
0
  6
Continuous
 62
     7
370
    15
100
AcDbLine
 10
266.0998586249
 20
112.4011829459
 30
0.0
 11
266.4953382238
 21
112.6294884587
 31
0.0
  0
LINE
  5
134
330
1F
100
AcDbEntity
  8
0
  6
Continuous
 62
     7
370
    15
100
AcDbLine
 10
266.0998586249
 20
111.4368120757
 30
0.0
 11
266.0998586249
 21
112.4011829459
 31
0.0
  0
LINE
  5
135
330
1F
100
AcDbEntity
  8
0
  6
Continuous
 62
     7
370
    15
100
AcDbLine
 10
266.4953382238
 20
111.6651175885
 30
0.0
 11
266.0998586249
 21
111.4368120757
 31
0.0
  0
SPLINE
  5
136
330
1F
100
AcDbEntity
  8
0
  6
Continuous
 62
     7
370
    15
100
AcDbSpline
210
0.0
220
0.0
230
1.0
 70
     8
 71
     3
 72
    23
 73
    19
 74
     0
 42
0.00000001
 43
0.00000001
 40
0.0
 40
0.0
 40
0.0
 40
0.0
 40
0.0656758026418995
 40
0.1295235518316956
 40
0.1928087865916879
 40
0.2561284199312813
 40
0.3184372678499925
 40
0.3798531644425188
 40
0.440368615490268
 40
0.500366733433786
 40
0.5603648513773035
 40
0.6205936551710685
 40
0.6817646089383015
 40
0.7445042084303285
 40
0.8076589206537047
 40
0.8704806675535725
 40
0.9348023299348134
 40
1.0
 40
1.0
 40
1.0
 40
1.0
 10
267.8303328088413
 20
113.9739187321352
 30
0.0
 10
267.8288410318112
 20
113.9200570816632
 30
0.0
 10
267.8258990006263
 20
113.8138329930946
 30
0.0
 10
267.8067499244648
 20
113.6483669793152
 30
0.0
 10
267.7732301555561
 20
113.4799982525811
 30
0.0
 10
267.727291254542
 20
113.3102408158587
 30
0.0
 10
267.6694584925875
 20
113.1412985353946
 30
0.0
 10
267.6039325431788
 20
112.9751789296332
 30
0.0
 10
267.5266681959159
 20
112.8136675471555
 30
0.0
 10
267.4425372358393
 20
112.6562684678406
 30
0.0
 10
267.3485581332054
 20
112.5048245880088
 30
0.0
 10
267.246988593211
 20
112.358126141118
 30
0.0
 10
267.1354480744741
 20
112.2191866570153
 30
0.0
 10
267.0180211386381
 20
112.0845750749423
 30
0.0
 10
266.8935781777177
 20
111.9614933964154
 30
0.0
 10
266.7648866774032
 20
111.847553629929
 30
0.0
 10
266.6313893740433
 20
111.7489727431475
 30
0.0
 10
266.5408926329474
 20
111.6931950580629
 30
0.0
 10
266.49533822376
 20
111.6651175885419
 30
0.0
  0
LINE
  5
137
330
1F
100
AcDbEntity
  8
0
  6
Continuous
 62
     7
370
    15
100
AcDbLine
 10
267.8303328088
 20
115.1179500408
 30
0.0
 11
267.8303328088
 21
113.9739187321
 31
0.0
  0
SPLINE
  5
138
330
1F
100
AcDbEntity
  8
0
  6
Continuous
 62
     7
370
    15
100
AcDbSpline
210
0.0
220
0.0
230
1.0
 70
     8
 71
     3
 72
    23
 73
    19
 74
     0
 42
0.00000001
 43
0.00000001
 40
0.0
 40
0.0
 40
0.0
 40
0.0
 40
0.0648523341612099
 40
0.1288557376821725
 40
0.1912485425601949
 40
0.2539298559340372
 40
0.315950533408057
 40
0.376818817789777
 40
0.4364668258751432
 40
0.4961680775386448
 40
0.5558693292021468
 40
0.6160853542436849
 40
0.6776063605157059
 40
0.7404648371278417
 40
0.8039180349583593
 40
0.8682750511345411
 40
0.9332218024831832
 40
1.0
 40
1.0
 40
1.0
 40
1.0
 10
266.49533822376
 20
115.8935129423314
 30
0.0
 10
266.5409037509523
 20
115.9185581579719
 30
0.0
 10
266.6314383430406
 20
115.9683207421334
 30
0.0
 10
266.7647213817189
 20
116.0229348955462
 30
0.0
 10
266.8936011397608
 20
116.0595097761863
 30
0.0
 10
267.0176480331464
 20
116.0804009794591
 30
0.0
 10
267.1360013948299
 20
116.0851371794379
 30
0.0
 10
267.2465754209674
 20
116.073581064533
 30
0.0
 10
267.3489008343287
 20
116.0462319955351
 30
0.0
 10
267.4424905789628
 20
116.0028209441951
 30
0.0
 10
267.5266603560803
 20
115.9426672213688
 30
0.0
 10
267.6041870100588
 20
115.8703043080746
 30
0.0
 10
267.6697205693504
 20
115.7786113116242
 30
0.0
 10
267.7270128436634
 20
115.6743063666788
 30
0.0
 10
267.7736320886822
 20
115.5559462552281
 30
0.0
 10
267.8066894837217
 20
115.4231299600857
 30
0.0
 10
267.8259121748598
 20
115.2763934948851
 30
0.0
 10
267.828845668841
 20
115.1712518069005
 30
0.0
 10
267.8303328088413
 20
115.1179500408496
 30
0.0
  0
LINE
  5
139
330
1F
100
AcDbEntity
  8
0
  6
Continuous
 62
     7
370
    15
100
AcDbLine
 10
266.0998586249
 20
115.6652074295
 30
0.0
 11
266.4953382238
 21
115.8935129423
 31
0.0
  0
LINE
  5
13A
330
1F
100
AcDbEntity
  8
0
  6
Continuous
 62
     7
370
    15
100
AcDbLine
 10
266.0998586249
 20
114.7008365593
 30
0.0
 11
266.0998586249
 21
115.6652074295
 31
0.0
  0
SPLINE
  5
13B
330
1F
100
AcDbEntity
  8
0
  6
Continuous
 62
     7
370
    15
100
AcDbSpline
210
0.0
220
0.0
230
1.0
 70
     8
 71
     3
 72
    17
 73
    13
 74
     0
 42
0.00000001
 43
0.00000001
 40
0.0
 40
0.0
 40
0.0
 40
0.0
 40
0.1591712634441989
 40
0.3089086193092956
 40
0.4498484619648787
 40
0.5772881359953627
 40
0.6951141731370858
 40
0.8038815695330154
 40
0.8558818728355427
 40
0.9054094272449086
 40
0.9523696444412099
 40
1.0
 40
1.0
 40
1.0
 40
1.0
 10
261.7084290686826
 20
108.4565995066787
 30
0.0
 10
261.7667978872304
 20
108.4922579987859
 30
0.0
 10
261.8800760679658
 20
108.5614615429758
 30
0.0
 10
262.0425527161198
 20
108.6920813733007
 30
0.0
 10
262.1879142482123
 20
108.8330253650945
 30
0.0
 10
262.3150209448309
 20
108.9800117814183
 30
0.0
 10
262.4182588622252
 20
109.131648375091
 30
0.0
 10
262.4866921047953
 20
109.2599568358989
 30
0.0
 10
262.5261765332568
 20
109.3594364678823
 30
0.0
 10
262.5476173330689
 20
109.4297582934637
 30
0.0
 10
262.5603587683757
 20
109.4967063412138
 30
0.0
 10
262.5618659316112
 20
109.5376344789642
 30
0.0
 10
262.5626248520692
 20
109.5582435280124
 30
0.0
  0
LINE
  5
13C
330
1F
100
AcDbEntity
  8
0
  6
Continuous
 62
     7
370
    15
100
AcDbLine
 10
261.7084290687
 20
107.4922286365
 30
0.0
 11
261.7084290687
 21
108.4565995067
 31
0.0
  0
SPLINE
  5
13D
330
1F
100
AcDbEntity
  8
0
  6
Continuous
 62
     7
370
    15
100
AcDbSpline
210
0.0
220
0.0
230
1.0
 70
     8
 71
     3
 72
    23
 73
    19
 74
     0
 42
0.00000001
 43
0.00000001
 40
0.0
 40
0.0
 40
0.0
 40
0.0
 40
0.0546632006848315
 40
0.1098108231335665
 40
0.1655525239245193
 40
0.2233863563955637
 40
0.2819781570366705
 40
0.3410713590708395
 40
0.401350910702651
 40
0.4628684002856576
 40
0.5255713178649661
 40
0.5892775012365681
 40
0.6542200422477998
 40
0.7214035789499161
 40
0.7896290653709832
 40
0.8583676824783784
 40
0.9285918620467288
 40
1.0
 40
1.0
 40
1.0
 40
1.0
 10
263.3977492842404
 20
110.0403506007673
 30
0.0
 10
263.3962465663157
 20
109.9891260506646
 30
0.0
 10
263.3932278134769
 20
109.8862230017955
 30
0.0
 10
263.3672494419209
 20
109.7210768756215
 30
0.0
 10
263.3240568835385
 20
109.5487831316319
 30
0.0
 10
263.2666105528345
 20
109.3712010508742
 30
0.0
 10
263.1920778376619
 20
109.1911356081025
 30
0.0
 10
263.1084837138021
 20
109.0101417610587
 30
0.0
 10
263.0087937063244
 20
108.831788801654
 30
0.0
 10
262.8997937980438
 20
108.654546438383
 30
0.0
 10
262.7788304190046
 20
108.4821966742416
 30
0.0
 10
262.6492397845569
 20
108.314092864019
 30
0.0
 10
262.5096045215486
 20
108.1523620704724
 30
0.0
 10
262.361895955175
 20
107.9964712107793
 30
0.0
 10
262.2065483385485
 20
107.8498232515031
 30
0.0
 10
262.0449419066121
 20
107.7160496139434
 30
0.0
 10
261.8783176664828
 20
107.5948950213079
 30
0.0
 10
261.765373316203
 20
107.5266409520176
 30
0.0
 10
261.7084290686826
 20
107.4922286365162
 30
0.0
  0
LINE
  5
13E
330
1F
100
AcDbEntity
  8
0
  6
Continuous
 62
     7
370
    15
100
AcDbLine
 10
263.3977492842
 20
114.0461988307
 30
0.0
 11
263.3977492842
 21
110.0403506008
 31
0.0
  0
LINE
  5
13F
330
1F
100
AcDbEntity
  8
0
  6
Continuous
 62
     7
370
    15
100
AcDbLine
 10
262.5626248521
 20
113.5640917579
 30
0.0
 11
263.3977492842
 21
114.0461988307
 31
0.0
  0
LINE
  5
140
330
1F
100
AcDbEntity
  8
0
  6
Continuous
 62
     7
370
    15
100
AcDbLine
 10
262.5626248521
 20
109.558243528
 30
0.0
 11
262.5626248521
 21
113.5640917579
 31
0.0
  0
LINE
  5
141
330
1F
100
AcDbEntity
  8
0
  6
Continuous
 62
     7
370
    15
100
AcDbLine
 10
260.1917547694
 20
111.2901608019
 30
0.0
 11
258.6168626611
 21
110.3809949399
 31
0.0
  0
LINE
  5
142
330
1F
100
AcDbEntity
  8
0
  6
Continuous
 62
     7
370
    15
100
AcDbLine
 10
260.1917547694
 20
112.254531672
 30
0.0
 11
260.1917547694
 21
111.2901608019
 31
0.0
  0
LINE
  5
143
330
1F
100
AcDbEntity
  8
0
  6
Continuous
 62
     7
370
    15
100
AcDbLine
 10
258.6168626611
 20
111.3453658101
 30
0.0
 11
260.1917547694
 21
112.254531672
 31
0.0
  0
LINE
  5
144
330
1F
100
AcDbEntity
  8
0
  6
Continuous
 62
     7
370
    15
100
AcDbLine
 10
258.6168626611
 20
110.3809949399
 30
0.0
 11
258.6168626611
 21
111.3453658101
 31
0.0
  0
SPLINE
  5
145
330
1F
100
AcDbEntity
  8
0
  6
Continuous
 62
     7
370
    15
100
AcDbSpline
210
0.0
220
0.0
230
1.0
 70
     8
 71
     3
 72
    19
 73
    15
 74
     0
 42
0.00000001
 43
0.00000001
 40
0.0
 40
0.0
 40
0.0
 40
0.0
 40
0.1235780180493525
 40
0.2457106691246945
 40
0.3691384956846903
 40
0.4951216957190304
 40
0.5586986869637454
 40
0.6217225379942173
 40
0.683544425398594
 40
0.7456589186433553
 40
0.808004502111983
 40
0.8704302642657215
 40
0.9347406159870852
 40
1.0
 40
1.0
 40
1.0
 40
1.0
 10
258.1942816684046
 20
107.0016796978034
 30
0.0
 10
258.136164400564
 20
106.999480784236
 30
0.0
 10
258.0206096037303
 20
106.9951086755672
 30
0.0
 10
257.8631013909033
 20
107.0312576957079
 30
0.0
 10
257.7192443989787
 20
107.0968368729963
 30
0.0
 10
257.6149003321516
 20
107.180776401412
 30
0.0
 10
257.539598742242
 20
107.2610881258348
 30
0.0
 10
257.4917058520047
 20
107.3319404907804
 30
0.0
 10
257.4515675722373
 20
107.4106762062676
 30
0.0
 10
257.4168670806135
 20
107.4947926165549
 30
0.0
 10
257.3909082225603
 20
107.5877437119395
 30
0.0
 10
257.3729098158978
 20
107.6886762513834
 30
0.0
 10
257.3616545596029
 20
107.7964897830975
 30
0.0
 10
257.3599937322613
 20
107.8730771059443
 30
0.0
 10
257.3591572362334
 20
107.9116512489249
 30
0.0
  0
LINE
  5
146
330
1F
100
AcDbEntity
  8
0
  6
Continuous
 62
     7
370
    15
100
AcDbLine
 10
258.1942816684
 20
112.4366977389
 30
0.0
 11
258.1942816684
 21
107.0016796978
 31
0.0
  0
LINE
  5
147
330
1F
100
AcDbEntity
  8
0
  6
Continuous
 62
     7
370
    15
100
AcDbLine
 10
257.3591572362
 20
111.9545906661
 30
0.0
 11
258.1942816684
 21
112.4366977389
 31
0.0
  0
LINE
  5
148
330
1F
100
AcDbEntity
  8
0
  6
Continuous
 62
     7
370
    15
100
AcDbLine
 10
257.3591572362
 20
107.9116512489
 30
0.0
 11
257.3591572362
 21
111.9545906661
 31
0.0
  0
SPLINE
  5
149
330
1F
100
AcDbEntity
  8
0
  6
Continuous
 62
     7
370
    15
100
AcDbSpline
210
0.0
220
0.0
230
1.0
 70
     8
 71
     3
 72
    23
 73
    19
 74
     0
 42
0.00000001
 43
0.00000001
 40
0.0
 40
0.0
 40
0.0
 40
0.0
 40
0.0647604666824029
 40
0.1278597966913651
 40
0.1908389239230624
 40
0.254221942887852
 40
0.317137340381499
 40
0.3786901240571142
 40
0.4402591989607382
 40
0.5017141445761434
 40
0.5632669282517612
 40
0.6244583865845674
 40
0.6863145657041411
 40
0.7488105699285318
 40
0.8116905341024636
 40
0.874093750695177
 40
0.936653911893007
 40
1.0
 40
1.0
 40
1.0
 40
1.0
 10
254.4041015531662
 20
104.68499523469
 30
0.0
 10
254.3581683842883
 20
104.6599400033891
 30
0.0
 10
254.2674802540913
 20
104.6104722193488
 30
0.0
 10
254.1337807336921
 20
104.5592938966943
 30
0.0
 10
254.0034151194679
 20
104.5223725357115
 30
0.0
 10
253.8786869630277
 20
104.5083098359938
 30
0.0
 10
253.7593793373634
 20
104.5080831615915
 30
0.0
 10
253.6481073860388
 20
104.5260472715888
 30
0.0
 10
253.5446693037904
 20
104.5591171431215
 30
0.0
 10
253.4489310537328
 20
104.6071269744374
 30
0.0
 10
253.3627008547252
 20
104.670887213229
 30
0.0
 10
253.2863260712626
 20
104.7496750007813
 30
0.0
 10
253.2176371885005
 20
104.8397023947914
 30
0.0
 10
253.1592533506926
 20
104.9438929219947
 30
0.0
 10
253.1132329663093
 20
105.0618297498746
 30
0.0
 10
253.0800745590082
 20
105.191785675159
 30
0.0
 10
253.0592429850363
 20
105.3323813626111
 30
0.0
 10
253.0564563888083
 20
105.4338496913302
 30
0.0
 10
253.0550543935051
 20
105.4849005464434
 30
0.0
  0
LINE
  5
14A
330
1F
100
AcDbEntity
  8
0
  6
Continuous
 62
     7
370
    15
100
AcDbLine
 10
254.8407351205
 20
104.9370584278
 30
0.0
 11
254.4041015532
 21
104.6849952347
 31
0.0
  0
LINE
  5
14B
330
1F
100
AcDbEntity
  8
0
  6
Continuous
 62
     7
370
    15
100
AcDbLine
 10
254.8407351205
 20
105.9014292979
 30
0.0
 11
254.8407351205
 21
104.9370584278
 31
0.0
  0
LINE
  5
14C
330
1F
100
AcDbEntity
  8
0
  6
Continuous
 62
     7
370
    15
100
AcDbLine
 10
254.4241766597
 20
105.6609552172
 30
0.0
 11
254.8407351205
 21
105.9014292979
 31
0.0
  0
SPLINE
  5
14D
330
1F
100
AcDbEntity
  8
0
  6
Continuous
 62
     7
370
    15
100
AcDbSpline
210
0.0
220
0.0
230
1.0
 70
     8
 71
     3
 72
    15
 73
    11
 74
     0
 42
0.00000001
 43
0.00000001
 40
0.0
 40
0.0
 40
0.0
 40
0.0
 40
0.128888820859976
 40
0.2514625169574536
 40
0.3727384761519241
 40
0.4995798841075813
 40
0.6265799572174152
 40
0.7489128460893256
 40
0.8723052687239966
 40
1.0
 40
1.0
 40
1.0
 40
1.0
 10
253.8901788256762
 20
105.9646894199911
 30
0.0
 10
253.8920533026389
 20
105.9241825456206
 30
0.0
 10
253.8957104134096
 20
105.8451534993828
 30
0.0
 10
253.9260365601572
 20
105.7465814907741
 30
0.0
 10
253.9753472975631
 20
105.6692142194087
 30
0.0
 10
254.0435894145145
 20
105.6159254433706
 30
0.0
 10
254.12508316622
 20
105.5856020783231
 30
0.0
 10
254.2172069458204
 20
105.5813266468638
 30
0.0
 10
254.3184650155285
 20
105.6069265629797
 30
0.0
 10
254.3885392110232
 20
105.6427411083497
 30
0.0
 10
254.4241766597087
 20
105.6609552171783
 30
0.0
  0
LINE
  5
14E
330
1F
100
AcDbEntity
  8
0
  6
Continuous
 62
     7
370
    15
100
AcDbLine
 10
253.8901788257
 20
108.6167093129
 30
0.0
 11
253.8901788257
 21
105.96468942
 31
0.0
  0
LINE
  5
14F
330
1F
100
AcDbEntity
  8
0
  6
Continuous
 62
     7
370
    15
100
AcDbLine
 10
253.0550543935
 20
108.1346022402
 30
0.0
 11
253.8901788257
 21
108.6167093129
 31
0.0
  0
LINE
  5
150
330
1F
100
AcDbEntity
  8
0
  6
Continuous
 62
     7
370
    15
100
AcDbLine
 10
253.0550543935
 20
105.4849005464
 30
0.0
 11
253.0550543935
 21
108.1346022402
 31
0.0
  0
LINE
  5
151
330
1F
100
AcDbEntity
  8
0
  6
Continuous
 62
     7
370
    15
100
AcDbLine
 10
248.7509515508
 20
101.4215012037
 30
0.0
 11
248.7509515508
 21
105.5189183023
 31
0.0
  0
LINE
  5
152
330
1F
100
AcDbEntity
  8
0
  6
Continuous
 62
     7
370
    15
100
AcDbLine
 10
249.5860759829
 20
101.9036082765
 30
0.0
 11
248.7509515508
 21
101.4215012037
 31
0.0
  0
LINE
  5
153
330
1F
100
AcDbEntity
  8
0
  6
Continuous
 62
     7
370
    15
100
AcDbLine
 10
249.5860759829
 20
106.0010253751
 30
0.0
 11
249.5860759829
 21
101.9036082765
 31
0.0
  0
SPLINE
  5
154
330
1F
100
AcDbEntity
  8
0
  6
Continuous
 62
     7
370
    15
100
AcDbSpline
210
0.0
220
0.0
230
1.0
 70
     8
 71
     3
 72
    15
 73
    11
 74
     0
 42
0.00000001
 43
0.00000001
 40
0.0
 40
0.0
 40
0.0
 40
0.0
 40
0.1280959719884329
 40
0.2509333729724847
 40
0.3750602178812982
 40
0.5031561898697317
 40
0.6302058528482577
 40
0.751889093187377
 40
0.8738540805368282
 40
1.0
 40
1.0
 40
1.0
 40
1.0
 10
250.0357583695015
 20
106.8251029981089
 30
0.0
 10
250.0050590882211
 20
106.8016663058057
 30
0.0
 10
249.9449207866028
 20
106.7557550397472
 30
0.0
 10
249.859371273812
 20
106.6682961375311
 30
0.0
 10
249.7826586900029
 20
106.566877438246
 30
0.0
 10
249.7134603228517
 20
106.4562273358359
 30
0.0
 10
249.6581319120262
 20
106.3397195019871
 30
0.0
 10
249.6151632530634
 20
106.2232600275976
 30
0.0
 10
249.5905558730691
 20
106.1084289176028
 30
0.0
 10
249.5875859617078
 20
106.0372265013467
 30
0.0
 10
249.5860759829478
 20
106.0010253750761
 30
0.0
  0
LINE
  5
155
330
1F
100
AcDbEntity
  8
0
  6
Continuous
 62
     7
370
    15
100
AcDbLine
 10
250.0357583695
 20
107.8010648643
 30
0.0
 11
250.0357583695
 21
106.8251029981
 31
0.0
  0
SPLINE
  5
156
330
1F
100
AcDbEntity
  8
0
  6
Continuous
 62
     7
370
    15
100
AcDbSpline
210
0.0
220
0.0
230
1.0
 70
     8
 71
     3
 72
    23
 73
    19
 74
     0
 42
0.00000001
 43
0.00000001
 40
0.0
 40
0.0
 40
0.0
 40
0.0
 40
0.0652878271899208
 40
0.1292302516828417
 40
0.1922693260345318
 40
0.254779745436288
 40
0.3170820787811777
 40
0.3779730798492322
 40
0.4386880807084523
 40
0.4987980261421244
 40
0.5595051048978573
 40
0.6203210221186635
 40
0.6814012975747784
 40
0.7432523202049287
 40
0.8061768473856316
 40
0.8696341590252639
 40
0.9339796076412608
 40
1.0
 40
1.0
 40
1.0
 40
1.0
 10
248.7509515507766
 20
105.5189183023213
 30
0.0
 10
248.7519562347841
 20
105.5709797352784
 30
0.0
 10
248.7539448990226
 20
105.6740297581326
 30
0.0
 10
248.7744407061227
 20
105.8358160169941
 30
0.0
 10
248.8035176929632
 20
105.9982821519287
 30
0.0
 10
248.8475319913854
 20
106.1630484252752
 30
0.0
 10
248.9013570810725
 20
106.3267462822919
 30
0.0
 10
248.9649125688785
 20
106.4886579913747
 30
0.0
 10
249.0383522030172
 20
106.6466842590814
 30
0.0
 10
249.1202638159225
 20
106.801484276601
 30
0.0
 10
249.2103768479412
 20
106.9520769826718
 30
0.0
 10
249.3091144313884
 20
107.0971873050087
 30
0.0
 10
249.4149611336163
 20
107.2362038410025
 30
0.0
 10
249.5276592166171
 20
107.3688706363634
 30
0.0
 10
249.6470166247816
 20
107.4930783948373
 30
0.0
 10
249.7717683090715
 20
107.6086763215917
 30
0.0
 10
249.9021332898847
 20
107.7116534622608
 30
0.0
 10
249.9908367880061
 20
107.7710068722358
 30
0.0
 10
250.0357583695015
 20
107.8010648643071
 30
0.0
  0
LINE
  5
157
330
1F
100
AcDbEntity
  8
0
  6
Continuous
 62
     7
370
    15
100
AcDbLine
 10
286.935093848
 20
124.0977865904
 30
0.0
 11
283.8567152196
 21
116.1531980428
 31
0.0
  0
LINE
  5
158
330
1F
100
AcDbEntity
  8
0
  6
Continuous
 62
     7
370
    15
100
AcDbLine
 10
283.8489249312
 20
128.4784637827
 30
0.0
 11
286.935093848
 21
124.0977865904
 31
0.0
  0
LINE
  5
159
330
1F
100
AcDbEntity
  8
0
  6
Continuous
 62
     7
370
    15
100
AcDbLine
 10
277.684377386
 20
124.9145524273
 30
0.0
 11
283.8489249312
 21
128.4784637827
 31
0.0
  0
LINE
  5
15A
330
1F
100
AcDbEntity
  8
0
  6
Continuous
 62
     7
370
    15
100
AcDbLine
 10
274.6059987576
 20
116.9699638796
 30
0.0
 11
277.684377386
 21
124.9145524273
 31
0.0
  0
LINE
  5
15B
330
1F
100
AcDbEntity
  8
0
  6
Continuous
 62
     7
370
    15
100
AcDbLine
 10
277.6921676744
 20
112.5892866874
 30
0.0
 11
274.6059987576
 21
116.9699638796
 31
0.0
  0
LINE
  5
15C
330
1F
100
AcDbEntity
  8
0
  6
Continuous
 62
     7
370
    15
100
AcDbLine
 10
283.8567152196
 20
116.1531980428
 30
0.0
 11
277.6921676744
 21
112.5892866874
 31
0.0
  0
SPLINE
  5
15D
330
1F
100
AcDbEntity
  8
0
  6
Continuous
 62
     7
370
    15
100
AcDbSpline
210
0.0
220
0.0
230
1.0
 70
     8
 71
     3
 72
    11
 73
     7
 74
     0
 42
0.00000001
 43
0.00000001
 40
0.0
 40
0.0
 40
0.0
 40
0.0
 40
0.2442788944241021
 40
0.5011845906818034
 40
0.7581150563618944
 40
0.9999999999999999
 40
0.9999999999999999
 40
0.9999999999999999
 40
0.9999999999999999
 10
251.7792813727243
 20
106.3259470185826
 30
0.0
 10
251.6817230096412
 20
106.3814530420156
 30
0.0
 10
251.4815634813913
 20
106.4953342010911
 30
0.0
 10
251.1761092587668
 20
106.66288856004
 30
0.0
 10
250.8710617264643
 20
106.8289664139672
 30
0.0
 10
250.6654474161162
 20
106.9309290306503
 30
0.0
 10
250.5657411822256
 20
106.9803726150482
 30
0.0
  0
SPLINE
  5
15E
330
1F
100
AcDbEntity
  8
0
  6
Continuous
 62
     7
370
    15
100
AcDbSpline
210
0.0
220
0.0
230
1.0
 70
     8
 71
     3
 72
    11
 73
     7
 74
     0
 42
0.00000001
 43
0.00000001
 40
0.0
 40
0.0
 40
0.0
 40
0.0
 40
0.2414492208900287
 40
0.5043736252281992
 40
0.7662746416891641
 40
1.0
 40
1.0
 40
1.0
 40
1.0
 10
251.8344879157164
 20
106.12715625637
 30
0.0
 10
251.834200921609
 20
106.1467534331936
 30
0.0
 10
251.8336014073186
 20
106.1876908157302
 30
0.0
 10
251.8250896021583
 20
106.2443406229887
 30
0.0
 10
251.8130477576266
 20
106.2993250967765
 30
0.0
 10
251.790102023519
 20
106.3174158560024
 30
0.0
 10
251.7792813727243
 20
106.3259470185826
 30
0.0
  0
LINE
  5
15F
330
1F
100
AcDbEntity
  8
0
  6
Continuous
 62
     7
370
    15
100
AcDbLine
 10
251.8344879157
 20
103.201588857
 30
0.0
 11
251.8344879157
 21
106.1271562564
 31
0.0
  0
LINE
  5
160
330
1F
100
AcDbEntity
  8
0
  6
Continuous
 62
     7
370
    15
100
AcDbLine
 10
252.6696123479
 20
103.6836959297
 30
0.0
 11
251.8344879157
 21
103.201588857
 31
0.0
  0
LINE
  5
161
330
1F
100
AcDbEntity
  8
0
  6
Continuous
 62
     7
370
    15
100
AcDbLine
 10
252.6696123479
 20
106.6092633291
 30
0.0
 11
252.6696123479
 21
103.6836959297
 31
0.0
  0
SPLINE
  5
162
330
1F
100
AcDbEntity
  8
0
  6
Continuous
 62
     7
370
    15
100
AcDbSpline
210
0.0
220
0.0
230
1.0
 70
     8
 71
     3
 72
    15
 73
    11
 74
     0
 42
0.00000001
 43
0.00000001
 40
0.0
 40
0.0
 40
0.0
 40
0.0
 40
0.1411747586544387
 40
0.2734214706297249
 40
0.3976950817320769
 40
0.5167145818528818
 40
0.6328051273343126
 40
0.7513791741456242
 40
0.8732459828312531
 40
1.0
 40
1.0
 40
1.0
 40
1.0
 10
252.3413843559165
 20
107.3041743401142
 30
0.0
 10
252.3686607837477
 20
107.2856516689129
 30
0.0
 10
252.4214886481779
 20
107.2497777205658
 30
0.0
 10
252.4899861260745
 20
107.1845343663551
 30
0.0
 10
252.5468502502039
 20
107.112292087951
 30
0.0
 10
252.5928019230111
 20
107.032655895899
 30
0.0
 10
252.6271239707456
 20
106.9426419341146
 30
0.0
 10
252.6528085423956
 20
106.8435539645103
 30
0.0
 10
252.6665118098986
 20
106.7311700332774
 30
0.0
 10
252.6685653793632
 20
106.6504279536551
 30
0.0
 10
252.6696123478876
 20
106.6092633291249
 30
0.0
  0
SPLINE
  5
163
330
1F
100
AcDbEntity
  8
0
  6
Continuous
 62
     7
370
    15
100
AcDbSpline
210
0.0
220
0.0
230
1.0
 70
     8
 71
     3
 72
    17
 73
    13
 74
     0
 42
0.00000001
 43
0.00000001
 40
0.0
 40
0.0
 40
0.0
 40
0.0
 40
0.0304058505700263
 40
0.0690671579232574
 40
0.1151103030721523
 40
0.168979101011251
 40
0.290614913209477
 40
0.4248525954347715
 40
0.5686452344401861
 40
0.7189596056628199
 40
0.8662114369417937
 40
1.0
 40
1.0
 40
1.0
 40
1.0
 10
251.1971032829896
 20
107.990468676879
 30
0.0
 10
251.2088553783609
 20
107.9837776924649
 30
0.0
 10
251.2355503667173
 20
107.9685790623154
 30
0.0
 10
251.278967744801
 20
107.9414030424215
 30
0.0
 10
251.3329350186317
 20
107.9116082853653
 30
0.0
 10
251.4162060577629
 20
107.8588118135528
 30
0.0
 10
251.5343670816073
 20
107.7879745271585
 30
0.0
 10
251.6853573847984
 20
107.6940578505751
 30
0.0
 10
251.8483024112963
 20
107.5953073522979
 30
0.0
 10
252.0143631647173
 20
107.4904369974062
 30
0.0
 10
252.1803649119344
 20
107.3942527775052
 30
0.0
 10
252.2894531692171
 20
107.3332259877541
 30
0.0
 10
252.3413843559165
 20
107.3041743401142
 30
0.0
  0
SPLINE
  5
164
330
1F
100
AcDbEntity
  8
0
  6
Continuous
 62
     7
370
    15
100
AcDbSpline
210
0.0
220
0.0
230
1.0
 70
     8
 71
     3
 72
    15
 73
    11
 74
     0
 42
0.00000001
 43
0.00000001
 40
0.0
 40
0.0
 40
0.0
 40
0.0
 40
0.1216133123252548
 40
0.245537553535642
 40
0.3724645694820577
 40
0.5032067670450934
 40
0.634787150863287
 40
0.7604110493804311
 40
0.8819018234907133
 40
1.0
 40
1.0
 40
1.0
 40
1.0
 10
250.4472980536244
 20
107.9644592923588
 30
0.0
 10
250.4812161816322
 20
107.9790452292122
 30
0.0
 10
250.549696959043
 20
108.0084942688158
 30
0.0
 10
250.6512584244421
 20
108.0369699569114
 30
0.0
 10
250.7529217230656
 20
108.0562014738983
 30
0.0
 10
250.8537026173637
 20
108.0649350720933
 30
0.0
 10
250.950154884139
 20
108.0619016652358
 30
0.0
 10
251.0417609441201
 20
108.0519768920309
 30
0.0
 10
251.123017085131
 20
108.0261026787057
 30
0.0
 10
251.1726421150917
 20
108.002234016804
 30
0.0
 10
251.1971032829896
 20
107.990468676879
 30
0.0
  0
LINE
  5
165
330
1F
100
AcDbEntity
  8
0
  6
Continuous
 62
     7
370
    15
100
AcDbLine
 10
250.4472980536
 20
107.0000884222
 30
0.0
 11
250.4472980536
 21
107.9644592924
 31
0.0
  0
SPLINE
  5
166
330
1F
100
AcDbEntity
  8
0
  6
Continuous
 62
     7
370
    15
100
AcDbSpline
210
0.0
220
0.0
230
1.0
 70
     8
 71
     3
 72
     9
 73
     5
 74
     0
 42
0.00000001
 43
0.00000001
 40
0.0
 40
0.0
 40
0.0
 40
0.0
 40
0.4813975215779981
 40
1.0
 40
1.0
 40
1.0
 40
1.0
 10
250.5657411822256
 20
106.9803726150482
 30
0.0
 10
250.5500686666693
 20
106.991351735217
 30
0.0
 10
250.5175123803286
 20
107.0141585002641
 30
0.0
 10
250.4712762338044
 20
107.0048933513738
 30
0.0
 10
250.4472980536244
 20
107.0000884221963
 30
0.0
  0
LINE
  5
167
330
1F
100
AcDbEntity
  8
0
  6
Continuous
 62
     7
370
    15
100
AcDbLine
 10
255.6326980736
 20
105.394248909
 30
0.0
 11
255.2512710493
 21
105.1740557748
 31
0.0
  0
SPLINE
  5
168
330
1F
100
AcDbEntity
  8
0
  6
Continuous
 62
     7
370
    15
100
AcDbSpline
210
0.0
220
0.0
230
1.0
 70
     8
 71
     3
 72
    23
 73
    19
 74
     0
 42
0.00000001
 43
0.00000001
 40
0.0
 40
0.0
 40
0.0
 40
0.0
 40
0.0634397024086812
 40
0.1261149469751419
 40
0.1885165655921465
 40
0.251350430029426
 40
0.3135527823138855
 40
0.3752786195133437
 40
0.4365826433993983
 40
0.4982486573090527
 40
0.559816653179205
 40
0.6211261500687257
 40
0.6831916987735899
 40
0.746222833115471
 40
0.8092823518705424
 40
0.8723773331853616
 40
0.9355927383980389
 40
1.0
 40
1.0
 40
1.0
 40
1.0
 10
256.973715190616
 20
107.7470952724469
 30
0.0
 10
256.9727622150091
 20
107.6946727621379
 30
0.0
 10
256.970867747293
 20
107.59045944056
 30
0.0
 10
256.9493473274723
 20
107.4256517139742
 30
0.0
 10
256.9177332994307
 20
107.2581159417145
 30
0.0
 10
256.8722817254334
 20
107.0877427988869
 30
0.0
 10
256.8163462814145
 20
106.9169723034892
 30
0.0
 10
256.7484959651415
 20
106.7480681260705
 30
0.0
 10
256.6720454736763
 20
106.5813778120241
 30
0.0
 10
256.5859132848317
 20
106.4179945848331
 30
0.0
 10
256.4901534524658
 20
106.2599642488159
 30
0.0
 10
256.3874840226003
 20
106.1067034525656
 30
0.0
 10
256.2755259424565
 20
105.9609982964807
 30
0.0
 10
256.1563795611514
 20
105.8234175023991
 30
0.0
 10
256.0321205163235
 20
105.6932923337535
 30
0.0
 10
255.9020038126712
 20
105.5801038855678
 30
0.0
 10
255.768649184887
 20
105.4771347629944
 30
0.0
 10
255.6782963762101
 20
105.4220490072937
 30
0.0
 10
255.6326980735719
 20
105.3942489090313
 30
0.0
  0
LINE
  5
169
330
1F
100
AcDbEntity
  8
0
  6
Continuous
 62
     7
370
    15
100
AcDbLine
 10
256.9737151906
 20
110.3967969662
 30
0.0
 11
256.9737151906
 21
107.7470952724
 31
0.0
  0
LINE
  5
16A
330
1F
100
AcDbEntity
  8
0
  6
Continuous
 62
     7
370
    15
100
AcDbLine
 10
256.1385907584
 20
109.9146898934
 30
0.0
 11
256.9737151906
 21
110.3967969662
 31
0.0
  0
LINE
  5
16B
330
1F
100
AcDbEntity
  8
0
  6
Continuous
 62
     7
370
    15
100
AcDbLine
 10
256.1385907584
 20
107.2626700005
 30
0.0
 11
256.1385907584
 21
109.9146898934
 31
0.0
  0
SPLINE
  5
16C
330
1F
100
AcDbEntity
  8
0
  6
Continuous
 62
     7
370
    15
100
AcDbSpline
210
0.0
220
0.0
230
1.0
 70
     8
 71
     3
 72
    15
 73
    11
 74
     0
 42
0.00000001
 43
0.00000001
 40
0.0
 40
0.0
 40
0.0
 40
0.0
 40
0.1239333176833993
 40
0.2425241998073558
 40
0.3629032888329901
 40
0.4897054060671301
 40
0.6177784102964646
 40
0.7418956508874208
 40
0.8675835188740612
 40
1.0
 40
1.0
 40
1.0
 40
1.0
 10
255.6326980735719
 20
106.3586197791938
 30
0.0
 10
255.6663539163105
 20
106.380347101508
 30
0.0
 10
255.73221478796
 20
106.4228651390843
 30
0.0
 10
255.8273740483189
 20
106.511440069494
 30
0.0
 10
255.9140495110905
 20
106.6188474245369
 30
0.0
 10
255.9915196436832
 20
106.7408821785345
 30
0.0
 10
256.0563881205596
 20
106.8713410835716
 30
0.0
 10
256.1048571035611
 20
107.0044241142399
 30
0.0
 10
256.134025812028
 20
107.1374486820888
 30
0.0
 10
256.1370428918671
 20
107.2202103797425
 30
0.0
 10
256.1385907584448
 20
107.2626700004849
 30
0.0
  0
LINE
  5
16D
330
1F
100
AcDbEntity
  8
0
  6
Continuous
 62
     7
370
    15
100
AcDbLine
 10
255.2512710493
 20
106.138426645
 30
0.0
 11
255.6326980736
 21
106.3586197792
 31
0.0
  0
LINE
  5
16E
330
1F
100
AcDbEntity
  8
0
  6
Continuous
 62
     7
370
    15
100
AcDbLine
 10
255.2512710493
 20
105.1740557748
 30
0.0
 11
255.2512710493
 21
106.138426645
 31
0.0
  0
LINE
  5
16F
330
1F
100
AcDbEntity
  8
0
  6
Continuous
 62
     7
370
    15
100
AcDbLine
 10
261.3019081612
 20
108.6670142298
 30
0.0
 11
258.6168626611
 21
107.1169704563
 31
0.0
  0
LINE
  5
170
330
1F
100
AcDbEntity
  8
0
  6
Continuous
 62
     7
370
    15
100
AcDbLine
 10
261.3019081612
 20
109.6313851
 30
0.0
 11
261.3019081612
 21
108.6670142298
 31
0.0
  0
LINE
  5
171
330
1F
100
AcDbEntity
  8
0
  6
Continuous
 62
     7
370
    15
100
AcDbLine
 10
258.6168626611
 20
108.0813413264
 30
0.0
 11
261.3019081612
 21
109.6313851
 31
0.0
  0
LINE
  5
172
330
1F
100
AcDbEntity
  8
0
  6
Continuous
 62
     7
370
    15
100
AcDbLine
 10
258.6168626611
 20
107.1169704563
 30
0.0
 11
258.6168626611
 21
108.0813413264
 31
0.0
  0
LINE
  5
173
330
1F
100
AcDbEntity
  8
0
  6
Continuous
 62
     7
370
    15
100
AcDbLine
 10
263.3977492842
 20
115.4405956538
 30
0.0
 11
263.3977492842
 21
114.402042409
 31
0.0
  0
LINE
  5
174
330
1F
100
AcDbEntity
  8
0
  6
Continuous
 62
     7
370
    15
100
AcDbLine
 10
262.5626248521
 20
114.958488581
 30
0.0
 11
263.3977492842
 21
115.4405956538
 31
0.0
  0
LINE
  5
175
330
1F
100
AcDbEntity
  8
0
  6
Continuous
 62
     7
370
    15
100
AcDbLine
 10
262.5626248521
 20
113.9199353362
 30
0.0
 11
262.5626248521
 21
114.958488581
 31
0.0
  0
LINE
  5
176
330
1F
100
AcDbEntity
  8
0
  6
Continuous
 62
     7
370
    15
100
AcDbLine
 10
263.3977492842
 20
114.402042409
 30
0.0
 11
262.5626248521
 21
113.9199353362
 31
0.0
  0
LINE
  5
177
330
1F
100
AcDbEntity
  8
0
  6
Continuous
 62
     7
370
    15
100
AcDbLine
 10
265.216553937
 20
115.1552864872
 30
0.0
 11
265.6471649723
 21
115.4038729466
 31
0.0
  0
SPLINE
  5
178
330
1F
100
AcDbEntity
  8
0
  6
Continuous
 62
     7
370
    15
100
AcDbSpline
210
0.0
220
0.0
230
1.0
 70
     8
 71
     3
 72
    23
 73
    19
 74
     0
 42
0.00000001
 43
0.00000001
 40
0.0
 40
0.0
 40
0.0
 40
0.0
 40
0.0658127047340777
 40
0.1298204427217536
 40
0.1932469720482251
 40
0.2557827506187862
 40
0.3177324065714905
 40
0.3786052193628104
 40
0.4379506288480029
 40
0.4974221947793363
 40
0.5569604411967202
 40
0.6168880175545107
 40
0.6776865498876711
 40
0.740090003594054
 40
0.8036380564219201
 40
0.8678641077483633
 40
0.932801822068934
 40
0.9999999999999999
 40
0.9999999999999999
 40
0.9999999999999999
 40
0.9999999999999999
 10
263.8474316707941
 20
112.8186701554034
 30
0.0
 10
263.848918287394
 20
112.8736890120656
 30
0.0
 10
263.8518507489291
 20
112.9822177886718
 30
0.0
 10
263.8710809979659
 20
113.1511472131033
 30
0.0
 10
263.9041102229217
 20
113.3221348176783
 30
0.0
 10
263.9508328110423
 20
113.4943054931703
 30
0.0
 10
264.007820843021
 20
113.6650353910143
 30
0.0
 10
264.0748358097794
 20
113.8324154335299
 30
0.0
 10
264.1519802579541
 20
113.9953116721415
 30
0.0
 10
264.238485740586
 20
114.1530909653108
 30
0.0
 10
264.3339835189895
 20
114.3062400318505
 30
0.0
 10
264.4391870250014
 20
114.4525253554618
 30
0.0
 10
264.5520253971936
 20
114.59379930856
 30
0.0
 10
264.6735144340099
 20
114.7273230381521
 30
0.0
 10
264.8018617380959
 20
114.8523933644715
 30
0.0
 10
264.9355706137691
 20
114.9666620931017
 30
0.0
 10
265.0744289099974
 20
115.0696993135078
 30
0.0
 10
265.1686416917701
 20
115.1264339075865
 30
0.0
 10
265.2165539369979
 20
115.1552864871755
 30
0.0
  0
LINE
  5
179
330
1F
100
AcDbEntity
  8
0
  6
Continuous
 62
     7
370
    15
100
AcDbLine
 10
263.8474316708
 20
111.6746388467
 30
0.0
 11
263.8474316708
 21
112.8186701554
 31
0.0
  0
SPLINE
  5
17A
330
1F
100
AcDbEntity
  8
0
  6
Continuous
 62
     7
370
    15
100
AcDbSpline
210
0.0
220
0.0
230
1.0
 70
     8
 71
     3
 72
    23
 73
    19
 74
     0
 42
0.00000001
 43
0.00000001
 40
0.0
 40
0.0
 40
0.0
 40
0.0
 40
0.0675504078032108
 40
0.1328078001832588
 40
0.1974620233846618
 40
0.2614778458594299
 40
0.3245848263961352
 40
0.385682660252897
 40
0.4461800094259098
 40
0.5060113531793878
 40
0.5657756881893673
 40
0.625413245705047
 40
0.6861822799345014
 40
0.7475872176347256
 40
0.8099882773604831
 40
0.872355437524494
 40
0.9352769517597374
 40
0.9999999999999999
 40
0.9999999999999999
 40
0.9999999999999999
 40
0.9999999999999999
 10
265.2165539369979
 20
110.9268911333861
 30
0.0
 10
265.1686524531143
 20
110.9009534015419
 30
0.0
 10
265.0744755131524
 20
110.8499584006233
 30
0.0
 10
264.9354131368165
 20
110.7917511980386
 30
0.0
 10
264.8018813398774
 20
110.753557042351
 30
0.0
 10
264.6731432281543
 20
110.730730299612
 30
0.0
 10
264.5525679751471
 20
110.7277690377167
 30
0.0
 10
264.4387801803833
 20
110.7373582368284
 30
0.0
 10
264.3343210835047
 20
110.7642676349966
 30
0.0
 10
264.2384403617311
 20
110.8066796971708
 30
0.0
 10
264.1519712394679
 20
110.8646895515652
 30
0.0
 10
264.0750898640854
 20
110.9384618625394
 30
0.0
 10
264.0080887169356
 20
111.0272417215145
 30
0.0
 10
263.9505537352533
 20
111.1300351566555
 30
0.0
 10
263.90451263338
 20
111.2466194040202
 30
0.0
 10
263.8710203900025
 20
111.3763229208403
 30
0.0
 10
263.8518639659385
 20
111.5196703007039
 30
0.0
 10
263.848922938744
 20
111.622498901507
 30
0.0
 10
263.8474316707941
 20
111.674638846689
 30
0.0
  0
LINE
  5
17B
330
1F
100
AcDbEntity
  8
0
  6
Continuous
 62
     7
370
    15
100
AcDbLine
 10
265.6471649723
 20
111.1754775928
 30
0.0
 11
265.216553937
 21
110.9268911334
 31
0.0
  0
LINE
  5
17C
330
1F
100
AcDbEntity
  8
0
  6
Continuous
 62
     7
370
    15
100
AcDbLine
 10
265.6471649723
 20
112.1398484629
 30
0.0
 11
265.6471649723
 21
111.1754775928
 31
0.0
  0
LINE
  5
17D
330
1F
100
AcDbEntity
  8
0
  6
Continuous
 62
     7
370
    15
100
AcDbLine
 10
265.216553937
 20
111.8912620035
 30
0.0
 11
265.6471649723
 21
112.1398484629
 31
0.0
  0
SPLINE
  5
17E
330
1F
100
AcDbEntity
  8
0
  6
Continuous
 62
     7
370
    15
100
AcDbSpline
210
0.0
220
0.0
230
1.0
 70
     8
 71
     3
 72
    15
 73
    11
 74
     0
 42
0.00000001
 43
0.00000001
 40
0.0
 40
0.0
 40
0.0
 40
0.0
 40
0.121119045140189
 40
0.2397478209164834
 40
0.3588373683104855
 40
0.4864321707232654
 40
0.6148705444854129
 40
0.7404115077914437
 40
0.867867189517411
 40
1.0
 40
1.0
 40
1.0
 40
1.0
 10
264.6825561029653
 20
112.1544277202367
 30
0.0
 10
264.6845107801415
 20
112.1178268424976
 30
0.0
 10
264.6883799453339
 20
112.0453776197398
 30
0.0
 10
264.7186464536856
 20
111.9554990341103
 30
0.0
 10
264.7685578953231
 20
111.8856047138213
 30
0.0
 10
264.8360365485064
 20
111.8366205673527
 30
0.0
 10
264.9181977659611
 20
111.8116730429226
 30
0.0
 10
265.009868890217
 20
111.8095505227622
 30
0.0
 10
265.1109308866145
 20
111.8360934157793
 30
0.0
 10
265.1809258759171
 20
111.8726529044206
 30
0.0
 10
265.2165539369979
 20
111.8912620035486
 30
0.0
  0
LINE
  5
17F
330
1F
100
AcDbEntity
  8
0
  6
Continuous
 62
     7
370
    15
100
AcDbLine
 10
264.682556103
 20
113.2961408297
 30
0.0
 11
264.682556103
 21
112.1544277202
 31
0.0
  0
SPLINE
  5
180
330
1F
100
AcDbEntity
  8
0
  6
Continuous
 62
     7
370
    15
100
AcDbSpline
210
0.0
220
0.0
230
1.0
 70
     8
 71
     3
 72
    15
 73
    11
 74
     0
 42
0.00000001
 43
0.00000001
 40
0.0
 40
0.0
 40
0.0
 40
0.0
 40
0.1304782469789304
 40
0.2566661973782944
 40
0.3811981291504504
 40
0.5095374341505713
 40
0.6364564326508793
 40
0.7572540372485475
 40
0.8767368840156795
 40
1.0
 40
1.0
 40
1.0
 40
1.0
 10
265.2165539369979
 20
114.190915617013
 30
0.0
 10
265.1809007940408
 20
114.1684832404669
 30
0.0
 10
265.1107668304166
 20
114.1243560934552
 30
0.0
 10
265.0098307277209
 20
114.032629328337
 30
0.0
 10
264.917768196621
 20
113.9235697729531
 30
0.0
 10
264.8363853106514
 20
113.8015840358093
 30
0.0
 10
264.7677919064966
 20
113.6727969732308
 30
0.0
 10
264.7189259152421
 20
113.5427607836415
 30
0.0
 10
264.688215654942
 20
113.4149209857261
 30
0.0
 10
264.6844621048988
 20
113.3361431493423
 30
0.0
 10
264.6825561029653
 20
113.296140829744
 30
0.0
  0
LINE
  5
181
330
1F
100
AcDbEntity
  8
0
  6
Continuous
 62
     7
370
    15
100
AcDbLine
 10
265.6471649723
 20
114.4395020764
 30
0.0
 11
265.216553937
 21
114.190915617
 31
0.0
  0
LINE
  5
182
330
1F
100
AcDbEntity
  8
0
  6
Continuous
 62
     7
370
    15
100
AcDbLine
 10
265.6471649723
 20
115.4038729466
 30
0.0
 11
265.6471649723
 21
114.4395020764
 31
0.0
  0
SPLINE
  5
183
330
1F
100
AcDbEntity
  8
0
  6
Continuous
 62
     7
370
    15
100
AcDbSpline
210
0.0
220
0.0
230
1.0
 70
     8
 71
     3
 72
    11
 73
     7
 74
     0
 42
0.00000001
 43
0.00000001
 40
0.0
 40
0.0
 40
0.0
 40
0.0
 40
0.2308431431366286
 40
0.4737475274254859
 40
0.7298185370493068
 40
1.0
 40
1.0
 40
1.0
 40
1.0
 10
269.0609368399012
 20
117.2378277443533
 30
0.0
 10
269.0939310966726
 20
117.2682761138704
 30
0.0
 10
269.1616435153837
 20
117.3307637389171
 30
0.0
 10
269.2684799699806
 20
117.41713782017
 30
0.0
 10
269.3820777215925
 20
117.5016081639738
 30
0.0
 10
269.4603805094987
 20
117.5532219953806
 30
0.0
 10
269.5005816731837
 20
117.5797208741597
 30
0.0
  0
LINE
  5
184
330
1F
100
AcDbEntity
  8
0
  6
Continuous
 62
     7
370
    15
100
AcDbLine
 10
269.0508992866
 20
118.7040896847
 30
0.0
 11
269.0609368399
 21
117.2378277444
 31
0.0
  0
LINE
  5
185
330
1F
100
AcDbEntity
  8
0
  6
Continuous
 62
     7
370
    15
100
AcDbLine
 10
268.2157748545
 20
118.221982612
 30
0.0
 11
269.0508992866
 21
118.7040896847
 31
0.0
  0
LINE
  5
186
330
1F
100
AcDbEntity
  8
0
  6
Continuous
 62
     7
370
    15
100
AcDbLine
 10
268.2157748545
 20
112.6583045149
 30
0.0
 11
268.2157748545
 21
118.221982612
 31
0.0
  0
LINE
  5
187
330
1F
100
AcDbEntity
  8
0
  6
Continuous
 62
     7
370
    15
100
AcDbLine
 10
269.5005816732
 20
113.4000077037
 30
0.0
 11
268.2157748545
 21
112.6583045149
 31
0.0
  0
LINE
  5
188
330
1F
100
AcDbEntity
  8
0
  6
Continuous
 62
     7
370
    15
100
AcDbLine
 10
269.5005816732
 20
114.3643785739
 30
0.0
 11
269.5005816732
 21
113.4000077037
 31
0.0
  0
LINE
  5
189
330
1F
100
AcDbEntity
  8
0
  6
Continuous
 62
     7
370
    15
100
AcDbLine
 10
269.0508992866
 20
114.1047824578
 30
0.0
 11
269.5005816732
 21
114.3643785739
 31
0.0
  0
LINE
  5
18A
330
1F
100
AcDbEntity
  8
0
  6
Continuous
 62
     7
370
    15
100
AcDbLine
 10
269.0508992866
 20
115.7959087794
 30
0.0
 11
269.0508992866
 21
114.1047824578
 31
0.0
  0
SPLINE
  5
18B
330
1F
100
AcDbEntity
  8
0
  6
Continuous
 62
     7
370
    15
100
AcDbSpline
210
0.0
220
0.0
230
1.0
 70
     8
 71
     3
 72
    15
 73
    11
 74
     0
 42
0.00000001
 43
0.00000001
 40
0.0
 40
0.0
 40
0.0
 40
0.0
 40
0.1312767493444146
 40
0.2578477539371242
 40
0.3831088229086363
 40
0.5107463197718843
 40
0.6365962873776932
 40
0.7566720854522679
 40
0.8769608469777745
 40
1.0
 40
1.0
 40
1.0
 40
1.0
 10
269.5005816731837
 20
116.6269410000328
 30
0.0
 10
269.4691859788458
 20
116.6019326008263
 30
0.0
 10
269.4075199998455
 20
116.5528122531856
 30
0.0
 10
269.320699541808
 20
116.4614567584209
 30
0.0
 10
269.2437143855417
 20
116.3575113295568
 30
0.0
 10
269.1756132748117
 20
116.2460252474584
 30
0.0
 10
269.1205379703355
 20
116.1300749592627
 30
0.0
 10
269.080643948597
 20
116.0147077790689
 30
0.0
 10
269.0553070565471
 20
115.9014421101011
 30
0.0
 10
269.0523795732751
 20
115.8313506429551
 30
0.0
 10
269.0508992866299
 20
115.7959087793786
 30
0.0
  0
LINE
  5
18C
330
1F
100
AcDbEntity
  8
0
  6
Continuous
 62
     7
370
    15
100
AcDbLine
 10
269.5005816732
 20
117.5797208742
 30
0.0
 11
269.5005816732
 21
116.626941
 31
0.0
  0
LINE
  5
18D
330
1F
100
AcDbEntity
  8
0
  6
Continuous
 62
     7
370
    15
100
AcDbLine
 10
201.1193842986
 20
77.0158424645
 30
0.0
 11
198.8209033714
 21
74.2943282272
 31
0.0
  0
LINE
  5
18E
330
1F
100
AcDbEntity
  8
0
  6
Continuous
 62
     7
370
    15
100
AcDbLine
 10
198.8209033714
 20
74.2943282272
 30
0.0
 11
198.7175783299
 21
71.23875979
 31
0.0
  0
LINE
  5
18F
330
1F
100
AcDbEntity
  8
0
  6
Continuous
 62
     7
370
    15
100
AcDbLine
 10
198.7175783299
 20
71.23875979
 30
0.0
 11
202.3795500061
 21
70.6814905343
 31
0.0
  0
SPLINE
  5
190
330
1F
100
AcDbEntity
  8
0
  6
Continuous
 62
     7
370
    15
100
AcDbSpline
210
0.0
220
0.0
230
1.0
 70
     8
 71
     3
 72
     8
 73
     4
 74
     0
 42
0.00000001
 43
0.00000001
 40
0.9527783502882817
 40
0.9527783502882817
 40
0.9527783502882817
 40
0.9527783502882817
 40
0.9945810945917569
 40
0.9945810945917569
 40
0.9945810945917569
 40
0.9945810945917569
 10
202.3795500060479
 20
70.68149053434418
 30
0.0
 10
201.2868397521181
 20
69.97419866591586
 30
0.0
 10
200.1940754067604
 20
69.26604252761574
 30
0.0
 10
199.1013072319972
 20
68.55778833884368
 30
0.0
  0
ARC
  5
191
330
1F
100
AcDbEntity
  8
0
  6
Continuous
 62
     7
370
    15
100
AcDbCircle
 10
198.3470416638
 20
69.6065323511
 30
0.0
 40
1.291812893082258
100
AcDbArc
 50
268.2506408616
 51
305.7240079055
  0
LINE
  5
192
330
1F
100
AcDbEntity
  8
0
  6
Continuous
 62
     7
370
    15
100
AcDbLine
 10
194.3323115261
 20
68.6707727654
 30
0.0
 11
198.307606061
 21
68.3153215302
 31
0.0
  0
ARC
  5
193
330
1F
100
AcDbEntity
  8
0
  6
Continuous
 62
     7
370
    15
100
AcDbCircle
 10
194.4933005235
 20
69.5354512799
 30
0.0
 40
0.8795376005316563
100
AcDbArc
 50
170.7481208213
 51
259.4532221715
  0
LINE
  5
194
330
1F
100
AcDbEntity
  8
0
  6
Continuous
 62
     7
370
    15
100
AcDbLine
 10
193.6252047449
 20
74.5263493906
 30
0.0
 11
193.6252047449
 21
69.6768588821
 31
0.0
  0
ARC
  5
195
330
1F
100
AcDbEntity
  8
0
  6
Continuous
 62
     7
370
    15
100
AcDbCircle
 10
196.691737187
 20
74.3849918631
 30
0.0
 40
3.069788782465974
100
AcDbArc
 50
140.2279276209
 51
177.3607126388
  0
LINE
  5
196
330
1F
100
AcDbEntity
  8
0
  6
Continuous
 62
     7
370
    15
100
AcDbLine
 10
198.3481697714
 20
81.3445330983
 30
0.0
 11
194.3323115261
 21
76.3488436191
 31
0.0
  0
ARC
  5
197
330
1F
100
AcDbEntity
  8
0
  6
Continuous
 62
     7
370
    15
100
AcDbCircle
 10
200.4002056404
 20
79.7425331094
 30
0.0
 40
2.603316187509959
100
AcDbArc
 50
121.1058993512
 51
142.0212651362
  0
LINE
  5
198
330
1F
100
AcDbEntity
  8
0
  6
Continuous
 62
     7
370
    15
100
AcDbLine
 10
276.4580851012
 20
126.6552188613
 30
0.0
 11
199.0552765526
 21
81.9715286053
 31
0.0
  0
LINE
  5
199
330
1F
100
AcDbEntity
  8
0
  6
Continuous
 62
     7
370
    15
100
AcDbLine
 10
276.4580851012
 20
126.6552188613
 30
0.0
 11
284.2556253736
 21
131.1632126949
 31
0.0
  0
ARC
  5
19A
330
1F
100
AcDbEntity
  8
0
  6
Continuous
 62
     7
370
    15
100
AcDbCircle
 10
284.8128940131
 20
130.4820950744
 30
0.0
 40
0.8800395159732916
100
AcDbArc
 50
40.6196981527
 51
129.2889325163
  0
LINE
  5
19B
330
1F
100
AcDbEntity
  8
0
  6
Continuous
 62
     7
370
    15
100
AcDbLine
 10
285.4808858321
 20
131.0550317894
 30
0.0
 11
288.9758188439
 21
126.0941324525
 31
0.0
  0
ARC
  5
19C
330
1F
100
AcDbEntity
  8
0
  6
Continuous
 62
     7
370
    15
100
AcDbCircle
 10
287.3450877053
 20
125.2768586447
 30
0.0
 40
1.824067028145283
100
AcDbArc
 50
333.4537656827
 51
26.6186628716
  0
LINE
  5
19D
330
1F
100
AcDbEntity
  8
0
  6
Continuous
 62
     7
370
    15
100
AcDbLine
 10
288.9768506702
 20
124.461646924
 30
0.0
 11
285.4907397731
 21
115.4647949925
 31
0.0
  0
ARC
  5
19E
330
1F
100
AcDbEntity
  8
0
  6
Continuous
 62
     7
370
    15
100
AcDbCircle
 10
282.6090467066
 20
116.5254301001
 30
0.0
 40
3.070684249706044
100
AcDbArc
 50
302.6680096515
 51
339.7933719222
  0
LINE
  5
19F
330
1F
100
AcDbEntity
  8
0
  6
Continuous
 62
     7
370
    15
100
AcDbLine
 10
284.2665111409
 20
113.9404903696
 30
0.0
 11
276.4689708684
 21
109.432496536
 31
0.0
  0
SPLINE
  5
1A0
330
1F
100
AcDbEntity
  8
0
  6
Continuous
 62
     7
370
    15
100
AcDbSpline
210
0.0
220
0.0
230
1.0
 70
     8
 71
     3
 72
     9
 73
     5
 74
     0
 42
0.00000001
 43
0.00000001
 40
0.0
 40
0.0
 40
0.0
 40
0.0
 40
0.2775334838061939
 40
0.8544073493935668
 40
0.8544073493935668
 40
0.8544073493935668
 40
0.8544073493935668
 10
276.4689708684465
 20
109.4324965359965
 30
0.0
 10
269.3511765216649
 20
106.8330370082977
 30
0.0
 10
247.4385203694832
 20
98.83040866069294
 30
0.0
 10
225.1640977978126
 20
85.29625854205594
 30
0.0
 10
210.0921551222668
 20
75.65038509585183
 30
0.0
  0
LINE
  5
1A1
330
1F
100
AcDbEntity
  8
0
  6
Continuous
 62
     7
370
    15
100
AcDbLine
 10
210.0921551223
 20
75.6503850959
 30
0.0
 11
201.1193842986
 21
77.0158424645
 31
0.0
  0
LINE
  5
1A2
330
1F
100
AcDbEntity
  8
0
  6
Continuous
 62
     7
370
    15
100
AcDbLine
 10
207.6917136337
 20
79.2170339902
 30
0.0
 11
210.0412047735
 21
81.8385082965
 31
0.0
  0
LINE
  5
1A3
330
1F
100
AcDbEntity
  8
0
  6
Continuous
 62
     7
370
    15
100
AcDbLine
 10
210.0412047735
 20
81.8385082965
 30
0.0
 11
210.2671452854
 21
84.9511303642
 31
0.0
  0
LINE
  5
1A4
330
1F
100
AcDbEntity
  8
0
  6
Continuous
 62
     7
370
    15
100
AcDbLine
 10
210.2671452854
 20
84.9511303642
 30
0.0
 11
208.1435946576
 21
85.4422781254
 31
0.0
  0
LINE
  5
1A5
330
1F
100
AcDbEntity
  8
0
  6
Continuous
 62
     7
370
    15
100
AcDbLine
 10
208.1435946576
 20
85.4422781254
 30
0.0
 11
205.7941035178
 21
82.8208038191
 31
0.0
  0
LINE
  5
1A6
330
1F
100
AcDbEntity
  8
0
  6
Continuous
 62
     7
370
    15
100
AcDbLine
 10
205.7941035178
 20
82.8208038191
 30
0.0
 11
205.5681630058
 21
79.7081817514
 31
0.0
  0
LINE
  5
1A7
330
1F
100
AcDbEntity
  8
0
  6
Continuous
 62
     7
370
    15
100
AcDbLine
 10
205.5681630058
 20
79.7081817514
 30
0.0
 11
207.6917136337
 21
79.2170339902
 31
0.0
  0
LINE
  5
1A8
330
1F
100
AcDbEntity
  8
0
  6
Continuous
 62
     7
370
    15
100
AcDbLine
 10
285.4907397731
 20
115.4647949925
 30
0.0
 11
289.9879389015
 21
112.8686171969
 31
0.0
  0
LINE
  5
1A9
330
1F
100
AcDbEntity
  8
0
  6
Continuous
 62
     7
370
    15
100
AcDbLine
 10
288.9768506702
 20
124.461646924
 30
0.0
 11
293.4740497985
 21
121.8654691284
 31
0.0
  0
LINE
  5
1AA
330
1F
100
AcDbEntity
  8
0
  6
Continuous
 62
     7
370
    15
100
AcDbLine
 10
293.4740497985
 20
121.8654691284
 30
0.0
 11
289.9879389015
 21
112.8686171969
 31
0.0
  0
LINE
  5
1AB
330
1F
100
AcDbEntity
  8
0
  6
Continuous
 62
     7
370
    15
100
AcDbLine
 10
284.2665111409
 20
113.9404903696
 30
0.0
 11
288.7637102692
 21
111.344312574
 31
0.0
  0
ARC
  5
1AC
330
1F
100
AcDbEntity
  8
0
  6
Continuous
 62
     7
370
    15
100
AcDbCircle
 10
287.1062458349
 20
113.9292523045
 30
0.0
 40
3.070684249706113
100
AcDbArc
 50
302.6680096515
 51
339.7933719222
  0
LINE
  5
1AD
330
1F
100
AcDbEntity
  8
0
  6
Continuous
 62
     7
370
    15
100
AcDbLine
 10
276.4689708684
 20
109.432496536
 30
0.0
 11
280.9661699968
 21
106.8363187404
 31
0.0
  0
LINE
  5
1AE
330
1F
100
AcDbEntity
  8
0
  6
Continuous
 62
     7
370
    15
100
AcDbLine
 10
288.7637102692
 20
111.344312574
 30
0.0
 11
280.9661699968
 21
106.8363187404
 31
0.0
  0
LINE
  5
1AF
330
1F
100
AcDbEntity
  8
0
  6
Continuous
 62
     7
370
    15
100
AcDbLine
 10
288.9758188439
 20
126.0941324525
 30
0.0
 11
293.4730179722
 21
123.4979546569
 31
0.0
  0
ARC
  5
1B0
330
1F
100
AcDbEntity
  8
0
  6
Continuous
 62
     7
370
    15
100
AcDbCircle
 10
291.8422868336
 20
122.6806808491
 30
0.0
 40
1.824067028145091
100
AcDbArc
 50
333.4537656827
 51
26.6186628716
  0
LINE
  5
1B1
330
1F
100
AcDbEntity
  8
0
  6
Continuous
 62
     7
370
    15
100
AcDbLine
 10
285.4808858321
 20
131.0550317894
 30
0.0
 11
289.9780849605
 21
128.4588539938
 31
0.0
  0
LINE
  5
1B2
330
1F
100
AcDbEntity
  8
0
  6
Continuous
 62
     7
370
    15
100
AcDbLine
 10
289.9780849605
 20
128.4588539938
 30
0.0
 11
293.4730179722
 21
123.4979546569
 31
0.0
  0
LINE
  5
1B3
330
1F
100
AcDbEntity
  8
0
  6
Continuous
 62
     7
370
    15
100
AcDbLine
 10
214.5893542506
 20
73.0542073003
 30
0.0
 11
210.0921551223
 21
75.6503850959
 31
0.0
  0
SPLINE
  5
1B4
330
1F
100
AcDbEntity
  8
0
  6
Continuous
 62
     7
370
    15
100
AcDbSpline
210
0.0
220
0.0
230
1.0
 70
     8
 71
     3
 72
     9
 73
     5
 74
     0
 42
0.00000001
 43
0.00000001
 40
0.0
 40
0.0
 40
0.0
 40
0.0
 40
0.2775334838061939
 40
0.8544073493935668
 40
0.8544073493935668
 40
0.8544073493935668
 40
0.8544073493935668
 10
280.966169996793
 20
106.8363187404003
 30
0.0
 10
273.8483756500113
 20
104.2368592127015
 30
0.0
 10
251.9357194978296
 20
96.23423086509673
 30
0.0
 10
229.6612969261591
 20
82.70008074645973
 30
0.0
 10
214.5893542506133
 20
73.05420730025563
 30
0.0
  0
LINE
  5
1B5
330
1F
100
AcDbEntity
  8
0
  6
Continuous
 62
     7
370
    15
100
AcDbLine
 10
274.6059987576
 20
116.9699638796
 30
0.0
 11
279.103197886
 21
114.3737860841
 31
0.0
  0
LINE
  5
1B6
330
1F
100
AcDbEntity
  8
0
  6
Continuous
 62
     7
370
    15
100
AcDbLine
 10
279.5881535477
 20
113.6854134564
 30
0.0
 11
279.103197886
 21
114.3737860841
 31
0.0
  0
LWPOLYLINE
  5
1B7
330
1F
100
AcDbEntity
  8
0
  6
Continuous
 62
     7
370
    15
100
AcDbPolyline
 90
        3
 70
   128
 43
0.0
 10
289.9780849605
 20
128.4588539938
 10
289.8751989471
 20
128.5769888165
 10
289.7537750608
 20
128.6666470956
  0
LINE
  5
1B8
330
1F
100
AcDbEntity
  8
0
  6
Continuous
 62
     7
370
    15
100
AcDbLine
 10
277.684377386
 20
124.9145524273
 30
0.0
 11
282.1815765143
 21
122.3183746317
 31
0.0
  0
LINE
  5
1B9
330
1F
100
AcDbEntity
  8
0
  6
Continuous
 62
     7
370
    15
100
AcDbLine
 10
282.1815765143
 20
122.3183746317
 30
0.0
 11
286.4501381863
 21
124.786159218
 31
0.0
  0
LINE
  5
1BA
330
1F
100
AcDbEntity
  8
0
  6
Continuous
 62
     7
370
    15
100
AcDbLine
 10
279.103197886
 20
114.3737860841
 30
0.0
 11
282.1815765143
 21
122.3183746317
 31
0.0
  0
LINE
  5
1BB
330
1F
100
AcDbEntity
  8
0
  6
Continuous
 62
     7
370
    15
100
AcDbLine
 10
271.9800521549
 20
115.6333690316
 30
0.0
 11
271.3324351452
 21
116.0072303734
 31
0.0
  0
LINE
  5
1BC
330
1F
100
AcDbEntity
  8
0
  6
Continuous
 62
     7
370
    15
100
AcDbLine
 10
271.4478641792
 20
114.7387085349
 30
0.0
 11
270.7984373112
 21
115.1136146857
 31
0.0
  0
LINE
  5
1BD
330
1F
100
AcDbEntity
  8
0
  6
Continuous
 62
     7
370
    15
100
AcDbLine
 10
272.0212465265
 20
115.7544871565
 30
0.0
 11
271.2702023149
 21
116.1880557511
 31
0.0
  0
LINE
  5
1BE
330
1F
100
AcDbEntity
  8
0
  6
Continuous
 62
     7
370
    15
100
AcDbLine
 10
270.7383477338
 20
114.1145548409
 30
0.0
 11
269.9030875594
 21
114.596740276
 31
0.0
  0
LINE
  5
1BF
330
1F
100
AcDbEntity
  8
0
  6
Continuous
 62
     7
370
    15
100
AcDbLine
 10
269.5005816732
 20
113.8451863417
 30
0.0
 11
269.0508992866
 21
114.1047824578
 31
0.0
  0
LINE
  5
1C0
330
1F
100
AcDbEntity
  8
0
  6
Continuous
 62
     7
370
    15
100
AcDbLine
 10
269.0575261726
 20
117.7360499194
 30
0.0
 11
268.2157748545
 21
118.221982612
 31
0.0
  0
LINE
  5
1C1
330
1F
100
AcDbEntity
  8
0
  6
Continuous
 62
     7
370
    15
100
AcDbLine
 10
272.142885183
 20
116.5492115203
 30
0.0
 11
269.9030875594
 21
117.842219166
 31
0.0
  0
LINE
  5
1C2
330
1F
100
AcDbEntity
  8
0
  6
Continuous
 62
     7
370
    15
100
AcDbLine
 10
267.6485640676
 20
113.1123192482
 30
0.0
 11
266.9952083767
 21
113.4894934602
 31
0.0
  0
LINE
  5
1C3
330
1F
100
AcDbEntity
  8
0
  6
Continuous
 62
     7
370
    15
100
AcDbLine
 10
267.1432070215
 20
112.2554817627
 30
0.0
 11
266.4953382238
 21
112.6294884587
 31
0.0
  0
LINE
  5
1C4
330
1F
100
AcDbEntity
  8
0
  6
Continuous
 62
     7
370
    15
100
AcDbLine
 10
266.8708055431
 20
111.9561247633
 30
0.0
 11
266.0998586249
 21
112.4011829459
 31
0.0
  0
LINE
  5
1C5
330
1F
100
AcDbEntity
  8
0
  6
Continuous
 62
     7
370
    15
100
AcDbLine
 10
269.5005816732
 20
116.9840261844
 30
0.0
 11
269.0609368399
 21
117.2378277444
 31
0.0
  0
LINE
  5
1C6
330
1F
100
AcDbEntity
  8
0
  6
Continuous
 62
     7
370
    15
100
AcDbLine
 10
267.8303328088
 20
114.1490994969
 30
0.0
 11
266.9952083767
 21
114.6312065697
 31
0.0
  0
LINE
  5
1C7
330
1F
100
AcDbEntity
  8
0
  6
Continuous
 62
     7
370
    15
100
AcDbLine
 10
267.8294967029
 20
115.1233196463
 30
0.0
 11
266.4953382238
 21
115.8935129423
 31
0.0
  0
LINE
  5
1C8
330
1F
100
AcDbEntity
  8
0
  6
Continuous
 62
     7
370
    15
100
AcDbLine
 10
265.1738910233
 20
110.9088901619
 30
0.0
 11
263.8474316708
 21
111.6746388467
 31
0.0
  0
LINE
  5
1C9
330
1F
100
AcDbEntity
  8
0
  6
Continuous
 62
     7
370
    15
100
AcDbLine
 10
265.6471649723
 20
111.6426755442
 30
0.0
 11
265.216553937
 21
111.8912620035
 31
0.0
  0
LINE
  5
1CA
330
1F
100
AcDbEntity
  8
0
  6
Continuous
 62
     7
370
    15
100
AcDbLine
 10
267.8303328088
 20
114.666225947
 30
0.0
 11
266.0998586249
 21
115.6652074295
 31
0.0
  0
LINE
  5
1CB
330
1F
100
AcDbEntity
  8
0
  6
Continuous
 62
     7
370
    15
100
AcDbLine
 10
263.1796667727
 20
109.2020328094
 30
0.0
 11
262.5626248521
 21
109.558243528
 31
0.0
  0
LINE
  5
1CC
330
1F
100
AcDbEntity
  8
0
  6
Continuous
 62
     7
370
    15
100
AcDbLine
 10
262.3995725686
 20
108.0576108569
 30
0.0
 11
261.7084290687
 21
108.4565995067
 31
0.0
  0
LINE
  5
1CD
330
1F
100
AcDbEntity
  8
0
  6
Continuous
 62
     7
370
    15
100
AcDbLine
 10
265.6471649723
 20
114.9067000278
 30
0.0
 11
265.216553937
 21
115.1552864872
 31
0.0
  0
LINE
  5
1CE
330
1F
100
AcDbEntity
  8
0
  6
Continuous
 62
     7
370
    15
100
AcDbLine
 10
264.682556103
 20
112.3365630826
 30
0.0
 11
263.8474316708
 21
112.8186701554
 31
0.0
  0
LINE
  5
1CF
330
1F
100
AcDbEntity
  8
0
  6
Continuous
 62
     7
370
    15
100
AcDbLine
 10
263.3977492842
 20
113.0819846852
 30
0.0
 11
262.5626248521
 21
113.5640917579
 31
0.0
  0
LINE
  5
1D0
330
1F
100
AcDbEntity
  8
0
  6
Continuous
 62
     7
370
    15
100
AcDbLine
 10
259.4521228355
 20
107.5991558913
 30
0.0
 11
258.6168626611
 21
108.0813413264
 31
0.0
  0
LINE
  5
1D1
330
1F
100
AcDbEntity
  8
0
  6
Continuous
 62
     7
370
    15
100
AcDbLine
 10
263.3977492842
 20
114.4763815082
 30
0.0
 11
262.5626248521
 21
114.958488581
 31
0.0
  0
LINE
  5
1D2
330
1F
100
AcDbEntity
  8
0
  6
Continuous
 62
     7
370
    15
100
AcDbLine
 10
258.1942816684
 20
107.4295441762
 30
0.0
 11
257.3591572362
 21
107.9116512489
 31
0.0
  0
LINE
  5
1D3
330
1F
100
AcDbEntity
  8
0
  6
Continuous
 62
     7
370
    15
100
AcDbLine
 10
259.4521228355
 20
110.863180375
 30
0.0
 11
258.6168626611
 21
111.3453658101
 31
0.0
  0
LINE
  5
1D4
330
1F
100
AcDbEntity
  8
0
  6
Continuous
 62
     7
370
    15
100
AcDbLine
 10
258.1942816684
 20
111.4724835934
 30
0.0
 11
257.3591572362
 21
111.9545906661
 31
0.0
  0
LINE
  5
1D5
330
1F
100
AcDbEntity
  8
0
  6
Continuous
 62
     7
370
    15
100
AcDbLine
 10
256.7924885341
 20
106.8851828496
 30
0.0
 11
256.1385907584
 21
107.2626700005
 31
0.0
  0
LINE
  5
1D6
330
1F
100
AcDbEntity
  8
0
  6
Continuous
 62
     7
370
    15
100
AcDbLine
 10
256.274185434
 20
105.9882970086
 30
0.0
 11
255.6326980736
 21
106.3586197792
 31
0.0
  0
LINE
  5
1D7
330
1F
100
AcDbEntity
  8
0
  6
Continuous
 62
     7
370
    15
100
AcDbLine
 10
256.0164834954
 20
105.6966789027
 30
0.0
 11
255.2512710493
 21
106.138426645
 31
0.0
  0
LINE
  5
1D8
330
1F
100
AcDbEntity
  8
0
  6
Continuous
 62
     7
370
    15
100
AcDbLine
 10
256.9737151906
 20
109.4325828207
 30
0.0
 11
256.1385907584
 21
109.9146898934
 31
0.0
  0
LINE
  5
1D9
330
1F
100
AcDbEntity
  8
0
  6
Continuous
 62
     7
370
    15
100
AcDbLine
 10
254.4223913617
 20
104.6955537164
 30
0.0
 11
253.0550543935
 21
105.4849005464
 31
0.0
  0
LINE
  5
1DA
330
1F
100
AcDbEntity
  8
0
  6
Continuous
 62
     7
370
    15
100
AcDbLine
 10
254.8407351205
 20
105.4204811364
 30
0.0
 11
254.4241766597
 21
105.6609552172
 31
0.0
  0
LINE
  5
1DB
330
1F
100
AcDbEntity
  8
0
  6
Continuous
 62
     7
370
    15
100
AcDbLine
 10
252.6696123479
 20
105.6450491836
 30
0.0
 11
251.8344879157
 21
106.1271562564
 31
0.0
  0
LINE
  5
1DC
330
1F
100
AcDbEntity
  8
0
  6
Continuous
 62
     7
370
    15
100
AcDbLine
 10
253.8901788257
 20
107.6524951674
 30
0.0
 11
253.0550543935
 21
108.1346022402
 31
0.0
  0
LINE
  5
1DD
330
1F
100
AcDbEntity
  8
0
  6
Continuous
 62
     7
370
    15
100
AcDbLine
 10
252.6696123479
 20
105.8119698869
 30
0.0
 11
251.7792813727
 21
106.3259470186
 31
0.0
  0
LINE
  5
1DE
330
1F
100
AcDbEntity
  8
0
  6
Continuous
 62
     7
370
    15
100
AcDbLine
 10
251.25318828
 20
107.9580914973
 30
0.0
 11
251.197103283
 21
107.9904686769
 31
0.0
  0
LINE
  5
1DF
330
1F
100
AcDbEntity
  8
0
  6
Continuous
 62
     7
370
    15
100
AcDbLine
 10
249.5860759829
 20
105.0368112296
 30
0.0
 11
248.7509515508
 21
105.5189183023
 31
0.0
  0
LINE
  5
1E0
330
1F
100
AcDbEntity
  8
0
  6
Continuous
 62
     7
370
    15
100
AcDbLine
 10
252.6563759396
 20
106.6891857737
 30
0.0
 11
250.4472980536
 21
107.9644592924
 31
0.0
  0
LINE
  5
1E1
330
1F
100
AcDbEntity
  8
0
  6
Continuous
 62
     7
370
    15
100
AcDbLine
 10
205.616583427
 20
74.4196646689
 30
0.0
 11
201.1193842986
 21
77.0158424645
 31
0.0
  0
LINE
  5
1E2
330
1F
100
AcDbEntity
  8
0
  6
Continuous
 62
     7
370
    15
100
AcDbLine
 10
214.5893542506
 20
73.0542073003
 30
0.0
 11
205.616583427
 21
74.4196646689
 31
0.0
  0
LINE
  5
1E3
330
1F
100
AcDbEntity
  8
0
  6
Continuous
 62
     7
370
    15
100
AcDbLine
 10
199.101307232
 20
68.5577883388
 30
0.0
 11
203.5985063603
 21
65.9616105432
 31
0.0
  0
LINE
  5
1E4
330
1F
100
AcDbEntity
  8
0
  6
Continuous
 62
     7
370
    15
100
AcDbLine
 10
206.8767467797
 20
68.0853112146
 30
0.0
 11
202.3795500061
 21
70.6814905343
 31
0.0
  0
SPLINE
  5
1E5
330
1F
100
AcDbEntity
  8
0
  6
Continuous
 62
     7
370
    15
100
AcDbSpline
210
0.0
220
0.0
230
1.0
 70
     8
 71
     3
 72
     8
 73
     4
 74
     0
 42
0.00000001
 43
0.00000001
 40
0.9527783803154877
 40
0.9527783803154877
 40
0.9527783803154877
 40
0.9527783803154877
 40
0.9945810945917569
 40
0.9945810945917569
 40
0.9945810945917569
 40
0.9945810945917569
 10
206.8767467796899
 20
68.08531121458977
 30
0.0
 10
205.7840373105839
 20
67.37801985297256
 30
0.0
 10
204.6912737501638
 20
66.66986422327555
 30
0.0
 10
203.5985063603436
 20
65.96161054324746
 30
0.0
  0
LINE
  5
1E6
330
1F
100
AcDbEntity
  8
0
  6
Continuous
 62
     7
370
    15
100
AcDbLine
 10
210.2159558242
 20
84.245929489
 30
0.0
 11
208.1435946576
 21
85.4422781254
 31
0.0
  0
LINE
  5
1E7
330
1F
100
AcDbEntity
  8
0
  6
Continuous
 62
     7
370
    15
100
AcDbLine
 10
209.1732424647
 20
80.8700684276
 30
0.0
 11
205.7941035178
 21
82.8208038191
 31
0.0
  0
LINE
  5
1E8
330
1F
100
AcDbEntity
  8
0
  6
Continuous
 62
     7
370
    15
100
AcDbLine
 10
198.307606061
 20
68.3153215302
 30
0.0
 11
202.8048051894
 21
65.7191437346
 31
0.0
  0
ARC
  5
1E9
330
1F
100
AcDbEntity
  8
0
  6
Continuous
 62
     7
370
    15
100
AcDbCircle
 10
202.8442407921
 20
67.0103545555
 30
0.0
 40
1.291812893082258
100
AcDbArc
 50
268.2506408616
 51
305.7240079055
  0
LINE
  5
1EA
330
1F
100
AcDbEntity
  8
0
  6
Continuous
 62
     7
370
    15
100
AcDbLine
 10
194.3323115261
 20
68.6707727654
 30
0.0
 11
198.8295106544
 21
66.0745949698
 31
0.0
  0
LINE
  5
1EB
330
1F
100
AcDbEntity
  8
0
  6
Continuous
 62
     7
370
    15
100
AcDbLine
 10
198.8295106544
 20
66.0745949698
 30
0.0
 11
202.8048051894
 21
65.7191437346
 31
0.0
  0
LINE
  5
1EC
330
1F
100
AcDbEntity
  8
0
  6
Continuous
 62
     7
370
    15
100
AcDbLine
 10
203.3181024997
 20
71.6981504316
 30
0.0
 11
198.8209033714
 21
74.2943282272
 31
0.0
  0
LINE
  5
1ED
330
1F
100
AcDbEntity
  8
0
  6
Continuous
 62
     7
370
    15
100
AcDbLine
 10
203.3181024997
 20
71.6981504316
 30
0.0
 11
203.2664112248
 21
70.1695158818
 31
0.0
  0
LINE
  5
1EE
330
1F
100
AcDbEntity
  8
0
  6
Continuous
 62
     7
370
    15
100
AcDbLine
 10
205.616583427
 20
74.4196646689
 30
0.0
 11
203.3181024997
 21
71.6981504316
 31
0.0
  0
LWPOLYLINE
  5
1EF
330
1F
100
AcDbEntity
  8
0
  6
Continuous
 62
     7
370
    15
100
AcDbPolyline
 90
        4
 70
   128
 43
0.0
 10
198.8295106544
 20
66.0745949698
 10
198.6756987665
 20
66.1044806684
 10
198.5366174356
 20
66.1650383959
 10
198.536698703
 20
66.1649914736
  0
ENDSEC
  0
SECTION
  2
OBJECTS
  0
DICTIONARY
  5
C
330
0
100
AcDbDictionary
281
     1
  3
ACAD_GROUP
350
D
  3
ACAD_LAYOUT
350
1A
  3
ACAD_MLINESTYLE
350
17
  3
ACAD_PLOTSETTINGS
350
19
  3
ACAD_PLOTSTYLENAME
350
E
  3
ACAD_TABLESTYLE
350
1F0
  3
ACAD_VISUALSTYLE
350
2A
  3
AcDbVariableDictionary
350
1F1
  0
DICTIONARY
  5
D
102
{ACAD_REACTORS
330
C
102
}
330
C
100
AcDbDictionary
281
     1
  0
DICTIONARY
  5
1A
102
{ACAD_REACTORS
330
C
102
}
330
C
100
AcDbDictionary
281
     1
  3
Layout1
350
1E
  3
Layout2
350
26
  3
Model
350
22
  0
DICTIONARY
  5
17
102
{ACAD_REACTORS
330
C
102
}
330
C
100
AcDbDictionary
281
     1
  3
Standard
350
18
  0
DICTIONARY
  5
19
102
{ACAD_REACTORS
330
C
102
}
330
C
100
AcDbDictionary
281
     1
  0
ACDBDICTIONARYWDFLT
  5
E
102
{ACAD_REACTORS
330
C
102
}
330
C
100
AcDbDictionary
281
     1
  3
Normal
350
F
100
AcDbDictionaryWithDefault
340
F
  0
DICTIONARY
  5
1F0
102
{ACAD_REACTORS
330
C
102
}
330
C
100
AcDbDictionary
281
     1
  0
DICTIONARY
  5
2A
102
{ACAD_REACTORS
330
C
102
}
330
C
100
AcDbDictionary
281
     1
  3
2dWireframe
350
2F
  3
3D Hidden
350
31
  3
3dWireframe
350
30
  3
Basic
350
32
  3
Brighten
350
36
  3
ColorChange
350
3A
  3
Conceptual
350
34
  3
Dim
350
35
  3
Facepattern
350
39
  3
Flat
350
2B
  3
FlatWithEdges
350
2C
  3
Gouraud
350
2D
  3
GouraudWithEdges
350
2E
  3
Linepattern
350
38
  3
Realistic
350
33
  3
Thicken
350
37
  0
DICTIONARY
  5
1F1
102
{ACAD_REACTORS
330
C
102
}
330
C
100
AcDbDictionary
281
     1
  3
PSOLHEIGHT
350
1F3
  3
PSOLWIDTH
350
1F2
  0
LAYOUT
  5
1E
102
{ACAD_REACTORS
330
1A
102
}
330
1A
100
AcDbPlotSettings
  1

  2
none_device
  4

  6

 40
0.0
 41
0.0
 42
0.0
 43
0.0
 44
0.0
 45
0.0
 46
0.0
 47
0.0
 48
0.0
 49
0.0
140
0.0
141
0.0
142
1.0
143
1.0
 70
   688
 72
     0
 73
     0
 74
     5
  7

 75
    16
147
1.0
148
0.0
149
0.0
100
AcDbLayout
  1
Layout1
 70
     1
 71
     1
 10
0.0
 20
0.0
 11
420.0
 21
297.0
 12
0.0
 22
0.0
 32
0.0
 14
1.0000000000E+20
 24
1.0000000000E+20
 34
1.0000000000E+20
 15
-1.0000000000E+20
 25
-1.0000000000E+20
 35
-1.0000000000E+20
146
0.0
 13
0.0
 23
0.0
 33
0.0
 16
1.0
 26
0.0
 36
0.0
 17
0.0
 27
1.0
 37
0.0
 76
     0
330
1B
  0
LAYOUT
  5
26
102
{ACAD_REACTORS
330
1A
102
}
330
1A
100
AcDbPlotSettings
  1

  2
none_device
  4

  6

 40
0.0
 41
0.0
 42
0.0
 43
0.0
 44
0.0
 45
0.0
 46
0.0
 47
0.0
 48
0.0
 49
0.0
140
0.0
141
0.0
142
1.0
143
1.0
 70
   688
 72
     0
 73
     0
 74
     5
  7

 75
    16
147
1.0
148
0.0
149
0.0
100
AcDbLayout
  1
Layout2
 70
     1
 71
     2
 10
0.0
 20
0.0
 11
0.0
 21
0.0
 12
0.0
 22
0.0
 32
0.0
 14
0.0
 24
0.0
 34
0.0
 15
0.0
 25
0.0
 35
0.0
146
0.0
 13
0.0
 23
0.0
 33
0.0
 16
1.0
 26
0.0
 36
0.0
 17
0.0
 27
1.0
 37
0.0
 76
     0
330
23
  0
LAYOUT
  5
22
102
{ACAD_REACTORS
330
1A
102
}
330
1A
100
AcDbPlotSettings
  1

  2
none_device
  4

  6

 40
0.0
 41
0.0
 42
0.0
 43
0.0
 44
0.0
 45
0.0
 46
0.0
 47
0.0
 48
0.0
 49
0.0
140
0.0
141
0.0
142
1.0
143
1.0
 70
  1712
 72
     0
 73
     0
 74
     0
  7

 75
     0
147
1.0
148
0.0
149
0.0
100
AcDbLayout
  1
Model
 70
     1
 71
     0
 10
0.0
 20
0.0
 11
431.8
 21
279.4
 12
0.0
 22
0.0
 32
0.0
 14
0.0
 24
0.0
 34
0.0
 15
431.8
 25
279.4
 35
0.0
146
0.0
 13
0.0
 23
0.0
 33
0.0
 16
1.0
 26
0.0
 36
0.0
 17
0.0
 27
1.0
 37
0.0
 76
     0
330
1F
331
29
  0
MLINESTYLE
  5
18
102
{ACAD_REACTORS
330
17
102
}
330
17
100
AcDbMlineStyle
  2
Standard
 70
     0
  3

 62
   256
 51
90.0
 52
90.0
 71
     2
 49
0.5
 62
   256
  6
BYLAYER
 49
-0.5
 62
   256
  6
BYLAYER
  0
ACDBPLACEHOLDER
  5
F
102
{ACAD_REACTORS
330
E
102
}
330
E
  0
VISUALSTYLE
  5
2F
102
{ACAD_REACTORS
330
2A
102
}
330
2A
100
AcDbVisualStyle
  2
2dWireframe
 70
     4
 71
     0
 72
     2
 73
     0
 90
        0
 40
-0.6
 41
-30.0
 62
     5
 63
     7
 74
     1
 91
        4
 64
     7
 65
   257
 75
     1
175
     1
 42
1.0
 92
        0
 66
   257
 43
1.0
 76
     1
 77
     6
 78
     2
 67
     7
 79
     5
170
     0
171
     0
290
     0
174
     0
 93
        1
 44
0.0
173
     0
291
     0
 45
0.0
1001
ACAD
1000
AcDbSavedByObjectVersion
1070
     0
  0
VISUALSTYLE
  5
31
102
{ACAD_REACTORS
330
2A
102
}
330
2A
100
AcDbVisualStyle
  2
3D Hidden
 70
     6
 71
     1
 72
     2
 73
     2
 90
        0
 40
-0.6
 41
-30.0
 62
     5
 63
     7
 74
     2
 91
        2
 64
     7
 65
   257
 75
     2
175
     1
 42
40.0
 92
        0
 66
   257
 43
1.0
 76
     1
 77
     6
 78
     2
 67
     7
 79
     3
170
     0
171
     0
290
     0
174
     0
 93
        1
 44
0.0
173
     0
291
     0
 45
0.0
1001
ACAD
1000
AcDbSavedByObjectVersion
1070
     0
  0
VISUALSTYLE
  5
30
102
{ACAD_REACTORS
330
2A
102
}
330
2A
100
AcDbVisualStyle
  2
3dWireframe
 70
     5
 71
     0
 72
     2
 73
     0
 90
        0
 40
-0.6
 41
-30.0
 62
     5
 63
     7
 74
     1
 91
        4
 64
     7
 65
   257
 75
     1
175
     1
 42
1.0
 92
        0
 66
   257
 43
1.0
 76
     1
 77
     6
 78
     2
 67
     7
 79
     5
170
     0
171
     0
290
     0
174
     0
 93
        1
 44
0.0
173
     0
291
     0
 45
0.0
1001
ACAD
1000
AcDbSavedByObjectVersion
1070
     0
  0
VISUALSTYLE
  5
32
102
{ACAD_REACTORS
330
2A
102
}
330
2A
100
AcDbVisualStyle
  2
Basic
 70
     7
 71
     1
 72
     0
 73
     1
 90
        0
 40
-0.6
 41
-30.0
 62
     5
 63
     7
 74
     0
 91
        4
 64
     7
 65
   257
 75
     1
175
     1
 42
1.0
 92
        8
 66
     7
 43
1.0
 76
     1
 77
     6
 78
     2
 67
     7
 79
     5
170
     0
171
     0
290
     0
174
     0
 93
        1
 44
0.0
173
     0
291
     1
 45
0.0
1001
ACAD
1000
AcDbSavedByObjectVersion
1070
     0
  0
VISUALSTYLE
  5
36
102
{ACAD_REACTORS
330
2A
102
}
330
2A
100
AcDbVisualStyle
  2
Brighten
 70
    12
 71
     2
 72
     2
 73
     0
 90
        0
 40
-0.6
 41
-30.0
 62
     5
 63
     7
 74
     1
 91
        4
 64
     7
 65
   257
 75
     1
175
     1
 42
1.0
 92
        8
 66
     7
 43
1.0
 76
     1
 77
     6
 78
     2
 67
     7
 79
     5
170
     0
171
     0
290
     0
174
     0
 93
        1
 44
50.0
173
     0
291
     1
 45
0.0
1001
ACAD
1000
AcDbSavedByObjectVersion
1070
     0
  0
VISUALSTYLE
  5
3A
102
{ACAD_REACTORS
330
2A
102
}
330
2A
100
AcDbVisualStyle
  2
ColorChange
 70
    16
 71
     2
 72
     2
 73
     3
 90
        0
 40
-0.6
 41
-30.0
 62
     5
 63
     8
 74
     1
 91
        4
 64
     7
 65
   257
 75
     1
175
     1
 42
1.0
 92
        8
 66
     8
 43
1.0
 76
     1
 77
     6
 78
     2
 67
     7
 79
     5
170
     0
171
     0
290
     0
174
     0
 93
        1
 44
0.0
173
     0
291
     1
 45
0.0
1001
ACAD
1000
AcDbSavedByObjectVersion
1070
     0
  0
VISUALSTYLE
  5
34
102
{ACAD_REACTORS
330
2A
102
}
330
2A
100
AcDbVisualStyle
  2
Conceptual
 70
     9
 71
     3
 72
     2
 73
     0
 90
        0
 40
-0.6
 41
-30.0
 62
     5
 63
     7
 74
     2
 91
        2
 64
     7
 65
   257
 75
     1
175
     1
 42
40.0
 92
        8
 66
     7
 43
1.0
 76
     1
 77
     6
 78
     2
 67
     7
 79
     3
170
     0
171
     0
290
     0
174
     0
 93
        1
 44
0.0
173
     0
291
     0
 45
0.0
1001
ACAD
1000
AcDbSavedByObjectVersion
1070
     0
  0
VISUALSTYLE
  5
35
102
{ACAD_REACTORS
330
2A
102
}
330
2A
100
AcDbVisualStyle
  2
Dim
 70
    11
 71
     2
 72
     2
 73
     0
 90
        0
 40
-0.6
 41
-30.0
 62
     5
 63
     7
 74
     1
 91
        4
 64
     7
 65
   257
 75
     1
175
     1
 42
1.0
 92
        8
 66
     7
 43
1.0
 76
     1
 77
     6
 78
     2
 67
     7
 79
     5
170
     0
171
     0
290
     0
174
     0
 93
        1
 44
-50.0
173
     0
291
     1
 45
0.0
1001
ACAD
1000
AcDbSavedByObjectVersion
1070
     0
  0
VISUALSTYLE
  5
39
102
{ACAD_REACTORS
330
2A
102
}
330
2A
100
AcDbVisualStyle
  2
Facepattern
 70
    15
 71
     2
 72
     2
 73
     0
 90
        0
 40
-0.6
 41
-30.0
 62
     5
 63
     7
 74
     1
 91
        4
 64
     7
 65
   257
 75
     1
175
     1
 42
1.0
 92
        8
 66
     7
 43
1.0
 76
     1
 77
     6
 78
     2
 67
     7
 79
     5
170
     0
171
     0
290
     0
174
     0
 93
        1
 44
0.0
173
     0
291
     1
 45
0.0
1001
ACAD
1000
AcDbSavedByObjectVersion
1070
     0
  0
VISUALSTYLE
  5
2B
102
{ACAD_REACTORS
330
2A
102
}
330
2A
100
AcDbVisualStyle
  2
Flat
 70
     0
 71
     2
 72
     1
 73
     1
 90
        2
 40
-0.6
 41
30.0
 62
     5
 63
     7
 74
     0
 91
        4
 64
     7
 65
   257
 75
     1
175
     1
 42
1.0
 92
        8
 66
     7
 43
1.0
 76
     1
 77
     6
 78
     2
 67
     7
 79
     5
170
     0
171
     0
290
     0
174
     0
 93
       13
 44
0.0
173
     0
291
     1
 45
0.0
1001
ACAD
1000
AcDbSavedByObjectVersion
1070
     0
  0
VISUALSTYLE
  5
2C
102
{ACAD_REACTORS
330
2A
102
}
330
2A
100
AcDbVisualStyle
  2
FlatWithEdges
 70
     1
 71
     2
 72
     1
 73
     1
 90
        2
 40
-0.6
 41
30.0
 62
     5
 63
     7
 74
     1
 91
        4
 64
     7
 65
   257
 75
     1
175
     1
 42
1.0
 92
        0
 66
   257
 43
1.0
 76
     1
 77
     6
 78
     2
 67
     7
 79
     5
170
     0
171
     0
290
     0
174
     0
 93
       13
 44
0.0
173
     0
291
     1
 45
0.0
1001
ACAD
1000
AcDbSavedByObjectVersion
1070
     0
  0
VISUALSTYLE
  5
2D
102
{ACAD_REACTORS
330
2A
102
}
330
2A
100
AcDbVisualStyle
  2
Gouraud
 70
     2
 71
     2
 72
     2
 73
     1
 90
        2
 40
-0.6
 41
30.0
 62
     5
 63
     7
 74
     0
 91
        4
 64
     7
 65
   257
 75
     1
175
     1
 42
1.0
 92
        0
 66
     7
 43
1.0
 76
     1
 77
     6
 78
     2
 67
     7
 79
     5
170
     0
171
     0
290
     0
174
     0
 93
       13
 44
0.0
173
     0
291
     1
 45
0.0
1001
ACAD
1000
AcDbSavedByObjectVersion
1070
     0
  0
VISUALSTYLE
  5
2E
102
{ACAD_REACTORS
330
2A
102
}
330
2A
100
AcDbVisualStyle
  2
GouraudWithEdges
 70
     3
 71
     2
 72
     2
 73
     1
 90
        2
 40
-0.6
 41
30.0
 62
     5
 63
     7
 74
     1
 91
        4
 64
     7
 65
   257
 75
     1
175
     1
 42
1.0
 92
        0
 66
   257
 43
1.0
 76
     1
 77
     6
 78
     2
 67
     7
 79
     5
170
     0
171
     0
290
     0
174
     0
 93
       13
 44
0.0
173
     0
291
     1
 45
0.0
1001
ACAD
1000
AcDbSavedByObjectVersion
1070
     0
  0
VISUALSTYLE
  5
38
102
{ACAD_REACTORS
330
2A
102
}
330
2A
100
AcDbVisualStyle
  2
Linepattern
 70
    14
 71
     2
 72
     2
 73
     0
 90
        0
 40
-0.6
 41
-30.0
 62
     5
 63
     7
 74
     1
 91
        4
 64
     7
 65
   257
 75
     7
175
     7
 42
1.0
 92
        8
 66
     7
 43
1.0
 76
     1
 77
     6
 78
     2
 67
     7
 79
     5
170
     0
171
     0
290
     0
174
     0
 93
        1
 44
0.0
173
     0
291
     1
 45
0.0
1001
ACAD
1000
AcDbSavedByObjectVersion
1070
     0
  0
VISUALSTYLE
  5
33
102
{ACAD_REACTORS
330
2A
102
}
330
2A
100
AcDbVisualStyle
  2
Realistic
 70
     8
 71
     2
 72
     2
 73
     0
 90
        0
 40
-0.6
 41
-30.0
 62
     5
 63
     7
 74
     1
 91
        0
 64
     7
 65
   257
 75
     1
175
     1
 42
1.0
 92
        8
 66
     8
 43
1.0
 76
     1
 77
     6
 78
     2
 67
     7
 79
     5
170
     0
171
     0
290
     0
174
     0
 93
       13
 44
0.0
173
     0
291
     0
 45
0.0
1001
ACAD
1000
AcDbSavedByObjectVersion
1070
     0
  0
VISUALSTYLE
  5
37
102
{ACAD_REACTORS
330
2A
102
}
330
2A
100
AcDbVisualStyle
  2
Thicken
 70
    13
 71
     2
 72
     2
 73
     0
 90
        0
 40
-0.6
 41
-30.0
 62
     5
 63
     7
 74
     1
 91
        4
 64
     7
 65
   257
 75
     1
175
     1
 42
1.0
 92
       12
 66
     7
 43
1.0
 76
     1
 77
     6
 78
     2
 67
     7
 79
     5
170
     0
171
     0
290
     0
174
     0
 93
        1
 44
0.0
173
     0
291
     1
 45
0.0
1001
ACAD
1000
AcDbSavedByObjectVersion
1070
     0
  0
DICTIONARYVAR
  5
1F3
102
{ACAD_REACTORS
330
1F1
102
}
330
1F1
100
DictionaryVariables
280
     0
  1
80.000000
  0
DICTIONARYVAR
  5
1F2
102
{ACAD_REACTORS
330
1F1
102
}
330
1F1
100
DictionaryVariables
280
     0
  1
5.000000
  0
ENDSEC
  0
EOF
